<mxfile host="app.diagrams.net" modified="2022-06-16T08:52:00.436Z" agent="5.0 (Windows NT 10.0; Win64; x64) AppleWebKit/537.36 (KHTML, like Gecko) Chrome/102.0.0.0 Safari/537.36" etag="P_sKI8APNTUFbqcPGpSt" version="19.0.0" type="github">
  <diagram name="Page-1" id="38b20595-45e3-9b7f-d5ca-b57f44c5b66d">
    <mxGraphModel dx="2844" dy="2358" grid="1" gridSize="10" guides="1" tooltips="1" connect="1" arrows="1" fold="1" page="1" pageScale="1" pageWidth="1100" pageHeight="850" background="none" math="0" shadow="0">
      <root>
        <mxCell id="0" />
        <mxCell id="1" parent="0" />
        <mxCell id="48ef80bc37b76060-49" value="" style="shape=rect;shadow=0;rounded=0;comic=0;fontFamily=Verdana;fontSize=12;align=center;html=1;direction=west;rotation=-5;" parent="1" vertex="1">
          <mxGeometry x="807.98" y="1375.02" width="288" height="50" as="geometry" />
        </mxCell>
        <mxCell id="48ef80bc37b76060-156" value="" style="verticalLabelPosition=bottom;html=1;verticalAlign=top;align=center;strokeWidth=1;shape=mxgraph.floorplan.wall;fillColor=#000000;direction=south;rounded=0;shadow=0;comic=0;fontFamily=Verdana;fontSize=12;" parent="1" vertex="1">
          <mxGeometry x="361" y="480" width="10" height="967" as="geometry" />
        </mxCell>
        <mxCell id="48ef80bc37b76060-157" value="" style="verticalLabelPosition=bottom;html=1;verticalAlign=top;align=center;strokeWidth=1;shape=mxgraph.floorplan.wall;fillColor=#000000;direction=south;rounded=0;shadow=0;comic=0;fontFamily=Verdana;fontSize=12;" parent="1" vertex="1">
          <mxGeometry x="802" y="921" width="10" height="519" as="geometry" />
        </mxCell>
        <mxCell id="48ef80bc37b76060-264" value="" style="verticalLabelPosition=bottom;html=1;verticalAlign=top;align=center;strokeWidth=1;shape=mxgraph.floorplan.wall;fillColor=#000000;rounded=0;shadow=0;comic=0;fontFamily=Verdana;fontSize=12;" parent="1" vertex="1">
          <mxGeometry x="361" y="480" width="1310" height="10" as="geometry" />
        </mxCell>
        <mxCell id="48ef80bc37b76060-346" value="" style="verticalLabelPosition=bottom;html=1;verticalAlign=top;align=center;strokeWidth=1;shape=mxgraph.floorplan.wall;fillColor=#000000;rounded=0;shadow=0;comic=0;fontFamily=Verdana;fontSize=12;" parent="1" vertex="1">
          <mxGeometry x="1260" y="730" width="670" height="10" as="geometry" />
        </mxCell>
        <mxCell id="h5Ed9bphOVO61y2eIJjv-32" value="" style="verticalLabelPosition=bottom;html=1;verticalAlign=top;align=center;strokeWidth=1;shape=mxgraph.floorplan.wall;fillColor=#000000;direction=north;rounded=0;shadow=0;comic=0;fontFamily=Verdana;fontSize=12;" vertex="1" parent="1">
          <mxGeometry x="811" y="485.5" width="10" height="254.5" as="geometry" />
        </mxCell>
        <mxCell id="h5Ed9bphOVO61y2eIJjv-1" value="" style="shape=image;verticalLabelPosition=bottom;labelBackgroundColor=default;verticalAlign=top;aspect=fixed;imageAspect=0;image=data:image/jpeg,/9j/4AAQSkZJRgABAQEAYABgAAD/4QAiRXhpZgAATU0AKgAAAAgAAQESAAMAAAABAAEAAAAAAAD//gA9Q1JFQVRPUjogZ2QtanBlZyB2MS4wICh1c2luZyBJSkcgSlBFRyB2NjIpLCBxdWFsaXR5ID0gMTAwCgD/2wBDAAIBAQIBAQICAgICAgICAwUDAwMDAwYEBAMFBwYHBwcGBwcICQsJCAgKCAcHCg0KCgsMDAwMBwkODw0MDgsMDAz/2wBDAQICAgMDAwYDAwYMCAcIDAwMDAwMDAwMDAwMDAwMDAwMDAwMDAwMDAwMDAwMDAwMDAwMDAwMDAwMDAwMDAwMDAz/wAARCAI8Ay8DASIAAhEBAxEB/8QAHwAAAQUBAQEBAQEAAAAAAAAAAAECAwQFBgcICQoL/8QAtRAAAgEDAwIEAwUFBAQAAAF9AQIDAAQRBRIhMUEGE1FhByJxFDKBkaEII0KxwRVS0fAkM2JyggkKFhcYGRolJicoKSo0NTY3ODk6Q0RFRkdISUpTVFVWV1hZWmNkZWZnaGlqc3R1dnd4eXqDhIWGh4iJipKTlJWWl5iZmqKjpKWmp6ipqrKztLW2t7i5usLDxMXGx8jJytLT1NXW19jZ2uHi4+Tl5ufo6erx8vP09fb3+Pn6/8QAHwEAAwEBAQEBAQEBAQAAAAAAAAECAwQFBgcICQoL/8QAtREAAgECBAQDBAcFBAQAAQJ3AAECAxEEBSExBhJBUQdhcRMiMoEIFEKRobHBCSMzUvAVYnLRChYkNOEl8RcYGRomJygpKjU2Nzg5OkNERUZHSElKU1RVVldYWVpjZGVmZ2hpanN0dXZ3eHl6goOEhYaHiImKkpOUlZaXmJmaoqOkpaanqKmqsrO0tba3uLm6wsPExcbHyMnK0tPU1dbX2Nna4uPk5ebn6Onq8vP09fb3+Pn6/9oADAMBAAIRAxEAPwD9/KKKKACiiigAooooAMcUmxQ27aN3rilooATYv90dc9KNikY2jHpilooAMUYoooAMUYoooAMUm0eg/KlooATYv90flSeSuMbVx9KdRQABQO1IVB7D8qWigAxQRmiigAooooAKKKKACiiigAooooAKKKKACiiigAooooAKKKKACiiigAooooAKKKKACiiigAooooAKKKKACiiigAooooAKKKKACiiigAooooAKKKKACiiigAooooAKKKKACiiigAooooAKKKKACiiigAooooAKKKKACiiigAooooAKKKKACiiigAooooAKKKKACiiigAooooAKKKKACiiigAooooAKKKKACiiigAooooAKKKKACiiigAooooAKKKKACiiigAooooAKKKKACiiigAooooAKKKKACiiigAooooAKKKKACiiigAooooAKKKKACiiigAooooAKKKKACiiigAooooAKKKKACiiigAooooAKKKKACiiigAooooAKKKKACiiigAooooAKKKKACiiigAooooAKKKKACiiigAooooAKKKKACiiigAooooAKKKKACiiigAooooAKKKKACiiigAooooAKKKKACiiigAooooAKKKKACiiigAooooAKKKKACiiigAooooAKKKKACiiigAooooAKKKKACiiigAooooAKKKKACiiigAooooAKKKKACiiigAooooAKKKKACiiigAooooAKKKKACiiigAooooAKKKKACiiigAooooAKKKKACiiigAooooAKKKKACiiigAooooAKKKKACiiigAooooAKKKKACiiigAooooAKKKKACiiigAooooAKKKKACiiigAooooAKKKKACiiigAooooAKKKKACiiigAooooAKKKKACiiigAooooAKKKKACiiigAooooAKKKKACiiigAooooAKKKKACiiigAooooAKKKKACiiigAooooAKKKKACiiigAooooAKKKKACiiigAooooAKKKKACiiigAooooAKKKKACiiigAooooAKKKKACiiigAooooAKKKKACiiigAooooAKKKKACiiigAooooAKKKKACiiigAooooAKKKKACiiigAooooAKKKKACiiigAooooAKKKKACiiigAooooAKKKKACiiigAooooAKKKKACiiigAooooAKKKKACiiigAooooAKKKKACiiigAooooAKKKKACiiigAooooAKKKKACiiigAooooAKKKKACiiigAooooAKKKKACiiigAooooAKKKKACiiigAooooAKKKKACiiigAooooAKKKKACiiigAooooAKKKKACiiigAooooAKKKKACiiigAooooAKKKKACiiigAooooAKKKKACiiigAooooAKKKKACiiigAooooAKKKKACiiigAooooAKKKKACiiigAooooAKKKKACiiigAooooAKKKKACiiigAooooAKKKKACiiigAooooAKKKKACiiigAooooAKKKKACiiigAooooAKKKKACiiigAooooAKKKKACiiigAooooAKKKKACiiigAooooAKKKKACiiigAooooAKKKKACiiigAooooAKKKKACiiigAooooAKKKKACiiigAooooAKKKKACiiigAooooAKKKKACiiigAooooAKKKKACiiigAooooAKKKKACiiigAooooAKKKKACiiigAooooAKKKKACiiigAooooAKKKKACiiigAooooAKKKKACiiigAooooAKKKKACiiigAooooAKKKKACiiigAooooAKKKKACiiigAooooAKKKKACiiigAooooAKKKKACiiigAooooAKKKKACiiigAooooAKKKKACiiigAooooAKKKCcUAFFcv4++OPgr4UCb/hKfGHhfw39ntjeS/2rqsFn5cA3ZlbzGXCDa2WPHynng1n3f7Tnw2sLeOWf4heB4YpZo7dHk121VXkkdY40BL8szsqKOpZgBkkCtIUpz+BN+iFzI7iisFPin4Yk27fEegt5jbFxqEXzHjgfN15H5iqPhz4+eBfGL6gukeNPCeqNpF5Jp18LPV7ec2V1HjzIJdrnZKuRuRsMMjIFDpzTs0/uHdHWUVyesfHvwL4d1O2stQ8aeE7G8vIpJ7eC41e3ilnjjKCR0VnBZVMsYYjgGRM43DNeT9pL4dxMFbx94LUtwAdbthn/AMfqvq1a1+V/cwO0ori2/aR+HaFQfH3gsFhkA63bcj/vv2NM/wCGmfhv5uz/AIWD4I34zt/t21z0z03+lZunJaNAtdEdvRXF/wDDR/w8P/M+eC//AAd23/xdH/DR/wAO/wDofPBf/g7tv/i6OWXYr2cux2lFcWP2j/h4f+Z88F/+Du2/+Lp3/DRvw9P/ADPng3/wd23/AMXRyy7B7OXY7KiuN/4aM+Hv/Q+eDf8AwdW3/wAXR/w0Z8Pf+h88G/8Ag6tv/i6PZy7B7OXY7KiuN/4aM+Hv/Q9+Df8AwdW3/wAXR/w0Z8Pf+h78G/8Ag6tv/i6PZy7B7OXY7KiuMP7R3w8H/M+eDP8Awd23/wAXSf8ADR/w8/6HzwX/AODu2/8Ai6PZy7B7OXY7SiuM/wCGjvh7/wBD54M/8Hdt/wDF0f8ADR3w9/6HzwZ/4O7b/wCLo9nLsHs5djs6K4z/AIaO+Hv/AEPngz/wd23/AMXR/wANHfD3/ofPBn/g7tv/AIuj2cuwezl2OzorjP8Aho74e/8AQ+eDP/B3bf8AxdH/AA0d8Pf+h88Gf+Du2/8Ai6PZy7B7OXY7OiuL/wCGkPh3/wBD74L/APB3bf8AxdA/aQ+HZ/5n3wX/AODu2/8Ai6PZy7B7OXY7SiuN/wCGjPh7/wBD54N/8HVt/wDF0h/aN+HoH/I+eDP/AAd23/xdHs5dg9nLsdnRXF/8NIfDs/8AM++C/wDwd23/AMXTk/aM+HsjBV8d+DWZugGtW3P/AI/RyS7B7OXY7KiuLb9pD4dpJsbx74LDc/Kdbts8df46U/tHfDwD/kfPBn/g7tv/AIups1uHLLsdnRXFn9pD4dqf+R98F89P+J3bf/F0L+0f8O3Hy+PPBbfTW7b/AOLqoxb2D2cux2lFcb/w0Z8Pf+h88G/+Dq2/+LoH7Rfw9P8AzPfg3/wdW3/xdP2c+zH7OXZnZUVxo/aK+H7dPHXg0/8Acatv/i6zfEP7Xnwn8Iyxx6t8UPh3pck0MlxGt34js4S8ce3zHAaQZVN6bj0G9c4yKXLLsLll2PRKKx/A/wAQ/D/xO8MWut+G9c0fxDot8pa2v9MvY7u1uAGKkpJGSrAMrDgnkEdq2KkkKKKKACiiigAooooAKKKKACiiigAooooAKKKKACiiigAooooAKKKKACiiigAooooAKKKKACiiigAooooAKKKKACiiigAooooAKKKKACiiigAooooAKKKKACiiigAooooAKKKKACiiigAooooAKKKKACiiigAooooAD0pk33Pwp56Uyb7n4UR3A/L3/gvp/wAe/ir/ALJxd/yvq+ONd+JniD4q/F238DeHdI1a9ms/EFrdJCTZxI4sLuO7mw7yg5AtpCNxGSAOhr7H/wCC+n/Hv4q/7Jxd/wAr6vin9kfThB/wUatmaSGeVtY1gbliVSoaG7Hb+6D/AOO9q+44VnyOb8kcuIhex9r2Hj34j6b5PnfDvxe6xy+ZHIt1om2JvlyT/poJ6Keh6V4j+xjrXxS8LWXxoe28B+Jjdat8T9Z1ISpdaMVVJTBt3BrvhjhuACBmvrzylhMmySRFhUSEiRh5nX5evbH/AI9Rey/NazbZDhMmIuSxyPvBuoz7ddpq61OVarzE/Cj5j+MHhD4vfFn4h+F9ct/CWrWzaDpeoWE73V1pSsWuZLFwFCXDAj/RGyTjHy46mq9n8IfiZJCftngnVryZflSSO+0xVWTkk4+0r2Kduxr0HQP2mz44/ai1LwDpdlDJb6bpt3eTX8NytyqywS2kTQumzhw1xIMl8qYmGOTjkP2xv2yvEn7L3i7TbfTfAWqeJtN/s4ahc6rbytBbwEMxeN8QSIPLwSxLDAbkCvr6NGValCjLsuvkKNSpJ8sdjzODx7dad8UNV8N69Bd6Vq+gXK2k1lOsUjAPaxXKlXhZ0IKzg8tnORjgVsa/qlvobXt9Isi/ZbWSQoOX4iOMc4yfrTvi23g39rH9gbVPipqXgXwxa+JPEBi33ctpBdXS+TqCWo/f+WrH5IgOgwOOe/m/wy8Lab4p/bO8P2OpWWnalbXX2cSwXFtHLHJ/oKkBkYEHBA4I7V8TxvhqeBjCpRvzO6f3H1fCOXUsTipe16W/M9s8MfD7xp410x7zTPDd9JFHKYWLXNmp3AAngze4q+fgZ8SG6eGbv/wMsf8A49X1Mmm2tj81tDHDH3ih+SMn+9tHy7ugzjOKRpgp/wBX+tfmdLFYprWb/H/M+8xFPA05cqhf7v8AI+Wf+FF/EpPu+GLz/wADLH/49Xjf7W/7SumfsIDw/wD8LWuLzwr/AMJV9p/sv/Rxffavs/led/x7eZt2+fF9/Gd3GcHH6FCRpP4W/A1+Of8AwdoggfADr/zMXX/uFV00cRiJTSlN29WeVmWIw1HDyq0qa5la19t0ulvzPrT9n3Vta/an+EOkePPAdnda54U17zvsN6TBa+f5M0kEn7uZkkXEkTr8yjO3IyCCez/4Ul8Sv+hduf8AwLsv/jtc9/wQCjJ/4JH/AAlOOP8Aicc4/wCozf19jbf938qieYYqMnFSdr92b4WphJ0YTnTV2k3bu16Hy4vwS+JWw/8AFO3P/gXZf/HaZ/wpT4lF/wDkXbn/AMC7L/47X1QMbD938hUY6/w/98io/tHF/wAz+9m/+xf8+/y/yPl0fA/4jN18NXTH1+2WX/x6j/hRvxG/6Fm7/wDAyy/+PV9TLtx93P04pcL/AHf1o/tLF/zP72HLgv8An3+X+R8sf8KM+JH/AELtz/4GWX/x2j/hRnxJ/wChduP/AAMsv/jtfVGB/s/lRj/d/IUf2li/5n97Hy4L/n3+X+R8sj4EfEsj/kWbr/wMsf8A49R/woj4l/8AQs3X/gbY/wDx6vqJkGfvfrSCPd0Y/nR/aWL/AJn97J/2L/n3+X+R8v8A/Ch/iV/0LN1/4GWP/wAeo/4UP8Sv+hZuv/Ayx/8Aj1fUJmZesDfrQbjb1hYfjTWYYt/af3sf+xf8+/y/yPln/hRPxI/6Fi7/APA2x/8Aj1H/AAor4kLz/wAIzdj3+2WP/wAer6naZlPMbD6mlEjOP9W2PWtPrWK/5+v8f8w/2L/n3+X+R8sf8KS+JX/Qu3P/AIF2X/x2vPf2qvFfiL9jz4C698RvGXh7WB4b8O/Z/thspLKef9/cRW6bU84Z/eTJnngZNfdGzPp/3zXxx/wX9TH/AASQ+LXT/mD9v+ozY1VPE4lySdR/j/mYYqeFhQnOnT1SbW29tOh89/sQ/wDBQ3Rf+CgHxX1Dwb8PvDvjCTWdM0mTWpxqMNjbRfZ45oYWw32g5bfPHxjpn0r6O8eeBPH/AMOfC1xrVz4fvbe3sShZ1ubKQjcwQYHmnPLCvzL/AODWU4/4KCeMPl3f8W9vf/TlplfvTq2kWviGxa0ura1uLeTHmRXEKzRuAcjKsCOCAc+1TjMZiKcrQk/vZjkdTDYmipYmPvXeyX5Hwx4M+J8PiO7ujeSTW91bYVxNGOGYncP3eR1X6elO8T/EptI1vQ9Lijury68RT/ZrYQJGF3syKNxcrjJkH619e337MXw53G6k8E+C7q4uG3SbtEtmYseST8p70uk/s6/DfSL5Lqz8AeFbK8sHWeCeDToo28wHcrDao5UgYrhWMxNTRnsSyvLVUU9fuR4GPgH8TjHufw7cOy8jF5Zf/HasQ/Az4jQhkHhe8VlbDD7bY9e//LavqSINKdskm7PGdoWhLjzmY+Swbcc8n5vetqdbGQ+Gf5/5nPUjgYy0h+X+R8u/8KR+I/8A0LN5/wCBlj/8eqO7+C/xKhT5fDd0m7rm7sef/ItfU4fccCM/nT4k8xiP9XgdxnNbfXcd9qpp8/8AMxqVsEnaVLT5f5HyjbfBv4meWW/4R+547/a7H/47Xy3/AMFM9E8TfD3S9J1TXrOTTXbw/rlpa73glaVnFmxAEbMBjy1yWx1GO+P1Olt38uXa38JAwvfFflL/AMHDHin7P8M/hu0d1HJ5uoX1uzK4+VXiiyM++39KzWOxPNZyf3s1ngcDVw05wp2+7/I/Xj/gheksf/BKH4O3F3GyzXGkz3BYkchry4YHAOOhHFfYVfKf/BGy0h0z/glt8BY0J/feELGXBcnJdN+cE992fevqyvSpTcldn5fWgoysgooorQyCiiigAooooAKKKKACiiigAooooAKKKKACiiigAooooAKKKKACiiigAooooAKKKKACiiigAooooAKKKKACiiigAooooAKKKKACiiigAooooAKKKKACiiigAooooAKKKKACiiigAooooAKKKKACiiigAoooB5oAD0pk33PwpS2TSScr6UR3Dc/L3/gvp/x7+Kv+ycXf8r6viz9kD/lI5b/9hfWv/RF3X2l/wX3OyHxV/wBk4uv5X1fFv7Ic1qv/AAULhkFxm4Gr60BD5Z5Pk3Yxu6V9xwvRupy8kcmIk00fpCkqQbnk3GNBuYKcNgdce9V7aZtZjkuNP/0aKwmYzbhtkYPgKQRk54OSSCeOTT4ZbiSHzIoT1IZg4Bjxg5/Xt6VV1PR9P1+yks9UsLHV7G5O65tr+BbiKcghhlWGDhgG5B5APUV6ip1oz5pRYotM8R/4ZJ+JOgftAfEvx7o3iDw9bx+OpNJ/s0TzSzS2sNvaNHcK6PCyRmSXym/dk7tmWIPB4P4t/sO/Fr4tfEPwTf8AinxN4R1bS9KnaTUImkkSV4mvnYiHbbLsY2qwR5VkO6POc/Ofoa9+AHgC/X5vA3g8MGJ3DRrfcAei52dBwAPQCnL8E/AVrGY18AeC1YABXXRrZewGW+Tk5ye3X8a+jw+aVYKN6fkTTpe+3c4L9pz4b2nww/4J/eKNH0+PybGxltvJjM8kxQPfwOfmkJY/MzHk96+a/gd/yfr4a/34f/SAV9L/ALZmnaf4X/Yv8Vadp+j6TYwq1q0a2tssKw5vYCQgUYUE5J9Sx9a+afghHJ/w3h4bZU3HdCcZ/wCnAV8Vx3Kf1aNWe7b0+R91wBTXt60n2X5n6MD/AFH/AAKlVd1NtriMwHcdrZ6VKvzD5a/K6N+XU9ebbm2IsKntX44f8Hai7T8AP+5i/wDcXX7HSlosZX73vX43/wDB2hyfgCfX/hIv/cXXXR+NHnZrf6rL5fmj7I/4IBpn/gkV8JT/ANhj/wBPN/X2MrbE5r45/wCCALk/8EjfhKvb/icf+nm/r7GZtq/3qUpWk/U6MGn7CHovyQLMoz160vnj3qNVV1J9+lIqqTU8508rJg4ajcPSmgBRQz4PT9aOc05gPWimlj/d/WhWZh939aOcOZD4gC3IpZGCdKQyKV6c0m5e9HOZajgnlja3JahYFQ88065RUdcHzG9emKjZFcfM/wClHP5BqBHk8GgRFvm7Urnc3Pze9N89gu0dKObyCxLXxn/wcAH/AI1KfFr/ALg//p5sa+yIjgc18c/8HAEgP/BJH4tDH/QH5/7jNhVQkuZaHPiv4E/8L/I/NP8A4NZm2/8ABQPxh/2T29/9OWmV++QORX4G/wDBrKcf8FBPGHy7v+Le3v8A6ctMr98jzzjB6Yq61ue5yZLH/Z0/NhTk700GmSMfl28+tRz6WPanGX82hI/3qksogzndzxUYVgMkVGtztbey7V+71rKxhGNpXHouLiT8f51JbrmWb2XNQowjkdmzx97npzUkbBizL0mGwGmtDd1E3aw1kZ2TDfeYd6/GL/gsEZPF/wAF/Cm5909trwMbyH7gMEucY9wv5V+zv7y2uIU+9sw5PTPNfj58eNPh+KXgix0yeYLJJrFusQ2bmJaOZeCeB1H5+1ZL3p6HfObjg5tLQ/d//gmDY/2R/wAE2/gDDMEZo/h1oDZUZ5OnQMTz9a+hK8c/YP0EeE/2HvhBpsjNus/BekWw34YnZZRKDxx2HHavY69enG0T8pqJ87uFFFFUSFFFFABRRRQAUUUUAFFFFABRRRQAUUUUAFFFFABRRRQAUUUUAFFFFABRRRQAUUUUAFFFFABRRRQAUUUUAFFFFABRRRQAUUUUAFFFFABRRRQAUUUUAFFFFABRRRQAUUUUAFFFFABRRRQAUUUUAFFFFABSA/NS1GxYSNj2oExxwG700+9NBYv1pCzZ5YUbajeh+YH/AAX64j8Vf9k4uv5X1fKun/s2w+G/jPJ4y0Lxd4j8P6tLcS3UXlrYOtu8yMHwslrJnPmN94t96vqj/gvorMnipiPl/wCFc3X5Yva8Fu/iN4dh1Ga2m1S1a+gZlMakl1KZ4xjtj9K7sLnlbBfwpWv+h0YfLKuI+GDl6K5oR6p8QgoC/FjxsqZ+bNnpK5+g+wgH8ak+3+PP+iteOv8AwD0P/wCQaoJ8QtJa3XdqEc+GOSiNhRx14FJ/wsTQ/wDn+j/WumpxtjU9JxPUXCeNau6Urej/AMi9JqHj1R8vxa8d/wDgHof/AMg0LqPjwr83xY8dZ/68tD/+QaoH4haK33b6PP40n/CfaP8A8/0X5H/CrlxripRV6qXpYxlwni2/dpz+5/5Ffx74b8VfEXwtdaNrXxI8bappd5s861a30iNZdrq6/NFZq4wyg8MOnORkVy/weja0/wCCg+g20e2S3hmjQP1lIWwxnjjPHpiuvbx/pSr8l9Fu7cH/AArmfgzayar+3Voepaesn2WS8XbKY227fspVuo+orw894krY2EYTmmkfWcK5PiMDzucJK/dM/QiMwG23R+c3zY/fCMDp/s4P9KQSf5WgrEINqqx+bOdrAfmacnlqv3Wry42todFaLjLVB9/7xY/71fjf/wAHafB+AP8A3MX/ALiq/ZBpVm+729a/G/8A4O0iP+LAY/6mLP8A5Sq3o/GjyM2/3WXy/NH2N/wQDkH/AA6O+Eq/xf8AE4/9PN/X2MFJ69K+Of8AggGF/wCHSHwl/vf8Tj/0839fY4LAc9Kip8TOzB/7vD/CvyBlx06d6VipHy9aXzE2Y70i7UbJqTpADApr9aczBz8pFKqqPvkfnQZgitt+79KVlZvur+lBkYd/l/h+lHmP/CaADKD7ynd34ozH/dP5UF1J7+9DSRlcKDuoAakfkffYs3bJzQETPztt/GnSAOd3cVHJGHFAAHpwj784pqqCtOjdihFBXKNwT92vjn/gv5x/wSP+LWfvf8Sf/wBPNjX2Qp218b/8F/h/xqR+LR/7A/8A6ebGqp/Ejmxkf9nn6P8AI/NX/g1mJH/BQTxhgZ/4t7e/+nLTK/fJCQ27rxjFfgf/AMGsbBf+CgnjHP8A0Ty9H/lS0yv3xIyfl6VpX+M4sll/s3zYpG/sB9Kb5Xlc/ez+lSIFUc1BI00j4Q/KPasT1nIU3THjb+lSQxLH/rgw74Xbn/x7j+tNSPA96c7bh++5bt9KCRd8a7dwPP3sAfpn3/vfzxTJ5V42ZX5gF6Zz+Hy/lQyrIOnWmrEqyxBvu7xSewEiz/ZX8y4HytGQpI9//rGvxd1TxELX45fCfw7cTfL4o8XWFoI+rSZuIoyB/wB/cdD1Ffsn431FbDw9q0/zbbGzlliYY+QrGWz74OTzX4sfFeGJf28f2T4LKNo5rz4kabAFJzv3ajYADqe9YYf+IelWl/wnS/rqj+lr9n/Rl0P4HeD9NRCqaZodlbgSDkBYEX+ld1WF4AtDY+DNLt5F2zQ2MEcg9CIwK3a9w/K6nxMKKKKCQooooAKKKKACiiigAooooAKKKKACiiigAooooAKKKKACiiigAooooAKKKKACiiigAooooAKKKKACiiigAooooAKKKKACiiigAooooAKKKKACiiigAooooAKKKKACiiigAooooAKKKKACiiigAooooAKhmHz1NUbDMnPSplKwEYGRUAUnp830qy5wjewqjNH5Sf3+Ogq943MWnOdj81/+C6vh6+8V2/ipbC1luDJ8PbqBcDq5W9wP1FfL/wCx9rVpB+2TpNq06pdx6pqIa3kVopVIS4JBVwCDx0OK+0v+Cs82PFmoxsqkN4ScFfMAJybn8a/PP4Jgv/wWvvnWXLP4i1o+Vt5GbS74rxJylUnZdD9Uyv2eGwkajveSR+m+vw/btUt5FZVEIBIPU85+n50/7Svt/wB9D/GhIYkgbZCbhhkl1J/d+5/z2qIHf2rOWHUneRs8yrVNNLEyzhjx/wChD/Gl8z2/8eH+NRCE44pcMgqo4WmndXMfrLWxNHIQ/CM3sCCf51RCZ1951wy/MNoPzZ2kfzqZpGK4oT5cVp7KKd0EsZUtZDNOHk2nz/Kd/Q9elWGZWP3hTJGwo+teY/tqfEDVvhR+yB8WPFXh+7+wa94a8G6vqum3XlJL9muYLKaWKTY4ZG2uinawKnGCCOK03djlnUdnKZ6VKQvVhX44f8HZgx/woE+v/CRf+4uv2PQYFfjn/wAHaP8AzQH/ALmL/wBxda0fjR52bf7rL5fmj7G/4IBDH/BJH4Snt/xOP/TzfV9kM25MV8cf8EAf+UR/wl/7jH/p5vq+x6ip8TOvBy/2eHovyERMHJKr9TT2ZXXAdfzphUluKeHZak6OYjEe1uq/nStAZfu4qUQxzjc5A+pqNdqSsufkHQ0EjmOAq91GDRG2w80jgB2x0zxXzT+zD+0B4u+In/BRT9qLwJrGrfbPCvw6/wCEU/4R6x+ywx/2f9t0yWe6/eKgkk3yKG/eM23GF2jina5Eqii0n1dvwb/Q+mfMUBvm+90pqfu33EjHSk+5zRnzaRYgOacEzUfmNEelG9pD900AOX7gpsX3fxqTLUHJFBoNr44/4L/f8oj/AItf9wf/ANPNjX2QriHgV8c/8F/yz/8ABI74tN2/4k//AKebCqp/Ejmxn+7z/wAL/I/NT/g1iOP+CgvjD/snl7/6ctMr98s/NntivwN/4NYW2/8ABQXxl/2Ty9/9OWmV+90x3OtaV/jPOyX/AHb5sVpFzUq/uR83G7pUYX5RUpb92tYnrCFsCml1m+ZT04ppk3HpSmPym/CgBVIXvRNOqxLz/wAtF/rQ5yw70N80TYUNtBf72MYqZbAcn8cysHwg8W3DMqxx6NeOST2ED5/lX456P4euvF//AAUm/ZHksEWZdN+JmkXVwQ33EGqadk1+wn7RMnnfs6ePJfulPC2pJgfN/wAu8p/rX5uf8EwvCcXxp/b++HM9usl23hnULXUn2I37pF1GwJY8jjgev0rLDr3zsx0vZZdK/Vfqj+imxGwNnsq5/KrlVbY4hkVBtC5x+tWq9vofl97u4UUUUAFFFNMqg0AOopvnLR5y0AOopvnLR5y0AOopvnLR5y0AOopvnLR5y0AOopvnLR5y0AOopvnLUX20UAT0xZ1bvzUf20VSfC3vmedJ5g+9Cv3emDjt6mgLM0vOXftz82cU7NUIImiuGmaTcGydh/gz/nFWFuvagCeio1uFJp3nLQA6im+ctHnLQA6im+ctHnLQA6im+ctHnLQA4nFJuFJuV6MLQAu4UbhSYWjC0AOopvnLR5y0AOLYoBzTCQ3NJ5oWgCQNu/lRnFQtcIB97b7AU2G4Eh6PgdyaALFAOajNwp//AFUCZR0oAkoqPz6PPoAkopvmUeZQA6im+ZR5lADqKb5lHmUAOoZtiknoOTTfMqG4dSfvMrY4X+E/WgCZpVVAxPB6UjXCL1b9KrXEu51C/wAOQQTgdu2DXxbq3/BcfwDB8XfFXg/S/hv8WPEWo+Evsn9oSWVvo6QR/aYRNFtNxqMTHK5BwvBU+xIB9tfao/736Ufao/736V8W/wDD6Tw/n/kivxo/758O/wDy3o/4fSeH8/8AJFPjR/3z4d/+W9AH2l9qj/vfpR9qj/vfpXxb/wAPpfD/AP0RT40f98+Hf/lvR/w+l8P/APRFPjR/3z4d/wDlvQB9pfao/wC9+lEt3HCF3NjdyOK+Lf8Ah9L4f/6Ip8aP++fDv/y3qOT/AILQeGw+2T4N/GhWxuAc+H+h9MaqfSgD7U/tCHzmj3/MoJIwexAP8xR5yyHKn9K+K7L/AILReEJfEml2OsfC/wCK3h6PWZXghvLmDRXTcsTzEEwalK/IjP8ABj6V9UfBH4qaX8a/hpp/ibSItQh07U/N8lL1FWdfLleJtwVmX7yHGCeMfSjluB1jsGVh97jp61VuYGUAoxbHJzVjd97HXtTVDGN93HFUttAi0po/NT/gsJ4V8UXPxZvby18Qpb6cnhUM0P8AZ8b7QDcbvmLbucE/jX57fs1+F/FFr/wWvMd54ot76+h8Qaz9pddJWESlbO6LkDeQvQ9Ca/Sr/gr9r1roviTVftUzKq+DpJGwpPy5uv8AA1+fv7MUbeOf+CtjeJdH8ybSNT1fW57e7Maq7xtZ3Y3fM6uD9VB9q8Jy5Zs/UMLTdbL6XL0X6H6eCX7EzRoPs/nAAg/P5nUY9v8A69RnbEu49NxX8RjP8xTYdWtXRVd/3kjbULKXbPHQ8Yp3kqP3bv8AOWLxjG4Nnrn8q305bnJCEo7jVvFcuqN80e3dx0yMinBi4+919qWSMkNujhjY4BCLgsAMAk/T+dMxtqYsQ7y8D736U0nB9qcXyKaelUB4F+3t+1T4g/ZfHwX/AOEfs9HvP+FifFPQ/BGpf2hDJJ5Fle+f5skOyRNsw8pdrNuUZOUbtr/8FFWB/wCCf3x0/wCye6//AOm24rxv/gsIcH9lr/s4Twn/AO3deyf8FE4D/wAO/Pjo3/VPdf8A/TbcVpHozlcm/aJ9F+h5X/wWg/b58Y/8E6P2W9B8ceCdN8M6pquqeKrfQ5otct557dYZLS8nLKsM0Tb91ugBLEYLcZII/O3/AIOJvilqPxy/Zc/Y38bavDZ2+q+MvCt9rl7FZoyW8U1zaaNPIsaszMEDOQoZmIGMknmvqH/g6ZfP/BPrwf6f8LDsv/TbqdfHP/Bb7P8Aw77/AGC8/wDRPX/9Nuh1pRS0fqeXmdSX72F9Eo/mj9J/+CAL5/4JJ/CZR1/4nH/p5vq+yGLKea+OP+CAEe//AIJK/Cbbw3/E45/7jN9X2WV2ja3zP61jU+JnrYP+BD0X5EayMrBcZ3VIenzDFNWEo4Ldeo+lG/dJzUnQOSEyv8x2p2NEtqFOFO73ofAb/WFfbFNz/wBNW/I0AeB/sF/tSeIf2oz8aB4gs9HtP+Fc/FPXPA+m/wBnxSR+fZWXkeVJNvkfdMfNbcy7VOBhF7+a/sXDZ/wVw/bYz/1Iv/pmmo/4I7naP2pu/wDxkL4s5/8AASj9iz99/wAFb/22P+5F/wDTNNWm1/T/ACPPjJyVJvu//SZFz4Oft9eMPiL/AMFiPit+z3fab4ai8F+BfCsGuWF7Bbzrqk0zxaU5WWQzGIpm+lwFiU4VOeDu+uyPL6V+an7MAx/wc7ftFf8AZPbT/wBEeHq/Sx+tKat9x0YOTnGTk/tNfcxpLkfMmPxprTNGPu/rTmPzj5t1Ocf9MweKg6uUAxYU15NvWlJ2Higp5in1oDmBYNy7utfHH/Bf+Xb/AMEjvi1Hj/oD/wDp5sa+yTJ5aAV8a/8ABf1d/wDwSP8Ai03/AGB//TzY1VP4kc2Ml/s8/R/kfmp/waygn/goJ4wx/wBE9vc/+DLTK/fRowycctn9K/A3/g1jP/GwTxj7/Dy9/wDTlplfvkG2fjWlf4ziyVf7N82BkWNRzSEN8tI0XmU4/OMbtu39axPWaHC3VR1qNrjI+br2+leIftT/ALfvhH9kT4x/CTwR4k07xLfar8ZtZOh6JLptvDJb2swntId1yZJkZU3XkRyiucK/GQAfb5dkZG5fmx29KLPczjOLbit1uA+VDu+WmGXJYKGbcNpwQMA/UVI0i7fm+7TQ0Z+7uB61M9ijiv2gr23sfgd4rtLiTy11TSbyxi3KWLyyW8gVfl6Z9Tge9fAv/BtPdWnjb/goBrlvNcJJJY+DLjUIVSJ0+ePUtNAySenz19df8FAPiOvw0+DFlcyRrJHf6vHZjrwXt5z2/wB018lf8Gweg+V/wUZ8RTRrFtj+Ht+H2jH/ADE9JI/kajC/GdGdytgPl+qP3/s5CUkDD5to/E45q5VaKPC7hVmvZPzKOwUUUUDCvzH/AGg/+DlXwb8AvjL448HXXwy8TahdeCdfvdCmuItRgSO5e2uGgMigrkBiuQDzzX6cV+Df7Y3w4tvF3/BSXxN4VsfC3hWZvEWs6te3Ek2jWMrzSi6vXLs0keSxESkktyfU5znW5lByj0PVyfLZY2v7Jdrn0F/xFS+CS4C/CfxVhscnVbfv/wABpw/4On/BRkZf+FT+KflJ5/tWD/4mvDP+HcOvNeBV8OeElXcFH/Eg0vj9asJ/wTo1jcuPDvhJsrz/AMU/pfP6157zJJ2Pp6PBlSV7tfee1v8A8HT/AIKT/mk/ir/wa2//AMTQf+Dp/wAFdvhP4q/8GsH/AMTXic//AATn1on/AJFzwl/4T+l/40f8O5taUf8AIueEv/Cf0v8Axo/tKPY2/wBSan8y+89rP/B1D4LH/NJ/FH/g1g/+IpR/wdQeCiP+ST+Kv/Brb/8AxNeIv/wTm1sn/kXPCP8A4T+l/wCNSL/wTe1oqP8AinvCfT/oX9L/AMamWZLog/1JqfzL7z2r/iKf8E/9En8Vf+DW3/8AiaQ/8HUXgkH/AJJP4q/8Gtv/APE14t/w7d1r/oXvCf8A4T+l/wCNNP8AwTg1nP8AyLvhL/wn9L/xqf7S9Q/1JqfzL7z2z/iKf8E/9En8Vf8Ag1t//iaVf+Dp7wUx/wCST+Kf/BrB/wDE14r/AMO5NY6f8I74S3f9i/pf+NNk/wCCcWuAfL4d8Jf+E/pf+NVHMl1D/UmSWsl97PbG/wCDp7wUv/NJ/FP/AINYP/iafB/wdF+CZL63jk+FniqOO4kEYddSt3IyQOmB/OvD4/8AgnFrp+94d8Jf+E/pf+NU9T/4JpeKtUtkMXh3wzbsp3ROmjaYCG7dGHes6mNm/gZ1YLgylSfPimnH1Z9raD/wXK0PxRpEV5Z+A9WEc0aSqs19GrbXGRnAPPt+tZXxF/4Li2Phvw/b6pZ+C9QMkmp6faukl1GV8ua8hglxx12SOR74r5K8M/AL42+F/MsbPRfDz2+nKLQbtI0Q7gvyqfmBPRT3J561kfF34D/Hu+8KWdn/AGD4dXbrWkuNukaEMlNRtnAOFHBIwc8HJzkZFZxr4qS3O6tg8gp/BRv31f8Amfdb/wDBbnSY7owt4F1L5WKki+T5sZ7beOlcX8Sv+DjLwb8K9SjtNQ+HvieeSTODb3UBUYCn+Ij+8P1r5lT4G/Hi4eXydD8PSSEZydJ0PI5HPK//AF+a5/xL/wAE+/ix8btQNzqemaFBPZgKQuk6TySAp+4yj/lmP89eWOMxadpv8EdGHynIMVD93Ss/OT/zPohf+DpjwXtLf8Kn8UYUZP8AxNYP/iaaf+DqDwStv5zfCfxV5e7Zxqlvuz16ben418z/AB7/AGR7r9nf4Yal4w1Dwl4VvNN0uOHzoTpGnpuMsyRDkBzwzqeFP4dap+G/hF4Z+LnxAtPDHhPw74RvLv8As+51S4k/4R60jVEjktogNksaqSTN1ByMYwQePQjmiS948erwHWnJyo25fU+pP+Ip/wAEtCsi/CfxVtfOM6rbg8f8Bo/4ioPBf/RJ/FH/AINYP/iK8Pg/4J06o0KiDQfCcyLwX/4R7TVBPXgE8cEdKf8A8O5ta/6F3wl/4T+l/wCNDzaHZnLLgmpDSbX3ntv/ABFQeC/+iT+KP/BrB/8AEUf8RUHgv/ok/in/AMGsH/xNeJr/AME5tazz4d8Jf+E/pf8AjS/8O5tY/wChd8Jf+E/pn+NH9qK6smTLg2Vrxa+9nuNr/wAHSfg28WTb8KPFAKjvqsHP/jlR2v8AwdN+DLpWP/Cp/FC7SP8AmLQf/EV82/FT9jbUPhJ4N1HWrrwv4Wmh02ynvXC6Np0fywoXOdoOeB6H6GoPHP7Mtv4q+Kul+G/CPg/wrBJJpNzqdxs0mxGRHNBGP9Yo/wCevY/h3H0mT4V42ryRPHzvI3gsOqj/AK1R9Ot/wdLeDoDhvhP4m55GNWg/+IpP+IpzwX/0SfxR/wCDaD/4ivluD/gn58QJbaNj4b8KqcH72h6O5PJ7k07/AId8fED/AKF7wn/4INGr6+PB8n9pfez5P28T6j/4inPBf/RJ/FH/AINYP/iKT/iKc8F/9En8Uf8Ag2g/+Ir5af8A4J9fEAN/yL/hP/wn9Gpw/wCCe/xAx/yL3hP/AMEGj/40/wDU6X8y+8PbRPp6z/4OoPBN8JjH8J/FW2CMytu1W3HA9Plqew/4OkPBupaZNdR/CjxOEh3ZDarACcDP9yviD4yfA+9/ZTtvDeteL/D3hX/hHNY8QWmkXrjQdOHlRyB3diIkd2Ajjf5QBn1ziuH+KHxd8G6z+0F4V8H/AA18P+FtQsvEjWliJV0K3t0W7nuWiwY54BuwDGeSFOcZGDWkeAsXL95G3L6mMsQfopp3/B074N1FW8v4S+Jxsx97V4BnOf8AYprf8HTHg1R83wn8TrzjjVoD6f7HuK+XP+HeHjwjbb6J4Wtlh4Z10DSP3hPI4z2waXUf+Cd3ja9ZRHpPhiONSWDDQNK+bOB69ttdGH4Qpc/NVa5fVkvES6H2R4X/AODkDwr4u8M6Xq0Pwz8Qx2+rWkd5EkmpQ71R13KGwuM4Izgn6mq/jL/g410nQ7awks/htqiRz38FvMH1KNjsZ8Pj5euOlfIfgT9j340eAPCeiaBb+F/Ct9b6JZR2Ec8mi6FunWJdgc7wzZO3PLE89T1qD4j/ALNfxmv4dFjPhHwrGP7ZtGIXR9CXIEnQ4UVvUweR0nZUXJ+r/wAx3rM+4bL/AIOEdAvvu/DjWBxuGdSj6Yyf4OuK5/x9/wAHLHhX4c3djDd/DDxDcPfJLJH5Opw4AjMYbJK/9NFxgHoelfMP/DOfxstvOVfCXhONVO1Sui6BwmcH+H+7+NYfi/8AYR+KXjrxdpN9faP4cWHS7S6iWI6Lo7JI0rQHJAIBwIjjIPXt3unl+SV4OMaTjJ7Xb/zHzVVq2fT3/EU74L/6JP4o/wDBtB/8RR/xFO+C/wDok/ij/wAG0H/xFfk3/wAFCfj3q3/BPr4z6Z4M1rwB4T1S61PRYtaSX+zdMg2pJPcQhdqW8o6wE53A89O592/Y1+CHi79sj9m3w38SNL8J+E9PsfEf2ryoP7F0mXy/IuprY/MyRk5aEnlB179T4FPh/DVsRLDUqi5o6te95dWrdV1NHUaV2feX/EU94K/6JL4o/wDBtB/8RR/xFPeC/wDokvij/wAG8H/xFfLn/Dvj4gf9C94T/wDBBo1H/Dvnx+vXw74T/wDBBo9dn+pr/mX3sn6wfUf/ABFPeC/+iS+KP/BvB/8AEUH/AIOn/BY/5pL4o/8ABvB/8RXy5/w778ff9C74T/8ABBo9H/Dvnx8//Mu+E/8AwQaPUf6ny/mX3h9YPqH/AIiovBX/AESXxR/4N4P/AIilH/B1D4KJ/wCSS+KP/BvB/wDEV8u/8O9PH3/Qv+E//Cf0f/Gj/h3r4+H/ADL3hP8A8J/R6P8AU5/zL72NV11PqP8A4invBX/RJfFH/g2g/wDiKjm/4OmPBMnP/CpfFGccH+14Mj/xyvmD/h3x8QP+he8J/wDgg0aopv2DvHlpKtufCPhO4eXpJ/Y2jptzx0/Wq/1Of8y+9l+3ifUUP/B0r4Lu2Pl/CXxO0nU79XgX9Qh/lXyf+zH4wm+J3x3+K3jhbdNOt/FH9keVaiXznh+z28kB3NtAOSuRgd61V/4J5+PrX5ZPDHhWNumV0XSOcdehrT0D9j/4x+FfOj0240/T0k27haaXplvuxnG7Yw3YycZ6ZPrR/qc/5l97D2yex6T9sk/56H8hSrcTOOJP0FcP/wAM1fHX/oMN/wCA9h/8cpV/Zw+O0Y41CSb38uwXH4eZR/qc/wCZfeyfaM7nzZv+en6D/Cmm5mAb5/u9eB/hXE/8M5/Hj/n8k/Kw/wDjlOH7PPx2hgZGuGYyAnJWw47f3/aj/U1/zL72S6jS1O0M06lcsvzDcPp+VV31ZbyNJ9pbI8rB4xt5/wDZq8h/aC0P4wfs7fBXXPGGszStb+H3hhf5rTkPPHCPulj96T+6f6j0DRvB/iv4q+MtV0zw/cLbQaLb288irDD1nedR94qelv6n8O/zWdZRPBJO/U97J8lr41tJnN/tP/EGbwV4f8Oa5HbLd/2Hqvzw+Z5JmWS1uIuG2vjBYHp2xXqP7OH/AAcZeF/2c/g5pHg3VPhn4g1C+0fzvMnttVh8qTzZ5JhjdGDwJAOg5BrI1L9jj4geKbZrTUWtdWspJAxjuLSzZVYBircv16j8awr7/gnLrhuT/wAU/wCFyccmTRNNkY/VmJJr5D6/JJpn1z4HqdGvvZ7Wn/B1B4J3n/i0/ir/AMGtv/8AE1Gf+DqbwVcfIvwn8VLu+XJ1W3OM/wDAa8Tm/wCCc+sQxb28O+E9qjc3/FP6Z0HXvU0X/BN/Uk+aPw94Tdl5x/wj+mD+tKlmSYR4Fm3fmX3nEft7/wDBWy2/bcvru48PeELzw+upeHn0OM31+kpjlYzgSkLH90eavGc/KfWqnwf120/Zt/aVTXI7GS6t9Fur5RBHcbWYSxTR8FlP/PTPPp+NRfFD9n/UfgXOv9oeF/DcYtLQ6gwGl2GNis5PCq39w+/tU/hC/vvjx8WRoXh2zsZJdWuZ0t5XtYGkbYHZyWlVSThG5ZgfrxXm4vFRavHc+wyPJqmFXLXalDTr/XQ9+1r/AIKdeH9ASNpPBuoSMu6RSt4AeMfh+hrEtv8Agr7p9zcSTr4FvJI7dygMmqKrenQR89fUViaj+w18QvEHh64EOnaazqki+Y1np7GPKjBG5+3Xism0/ZO+LnhaGxsV8K+E7qIx/wCtfQ9CLTYUDLFlLEnGcsScn1rbLZ1ai9/UniT+z+S+CXKxfht/wW4m8bfFPxto914BjSz8Py262jRantkZZFcndmMj+EV2cf8AwWB0OLUvst54K1aGZmUJ5N9HKpDdMkqpH5GvnP4A/st/Fix/ab+MU/8Awivhho7ifTdqNpOiskREUu7apBC5PoBXq8n7DHxJ8Za5/aF5pXh3T5ImQKkOi6SFIHf92VH6V0VebWMNzw+G/YYjGeyrLmVn5Hp8H/BVHQridEHhTVgzgkZuY8d/b2rkfir/AMFu/BHwU8O3mteIPB/iptJ04Qm5bTnt7i4HmlFXZG7xq2Gdc5deMnrwef8AH/7LPi74VeErnXNQs9Iuo9PCBol0ywi3h5Ag+ZSSMF89D0rwP45/shx/tkfEe7+FkOqW3hBfFItFF/Hpq3YsvLiiuTiIPHu3eXt4dcbs84wfNo1K0qyhJ6J6+lz7DHZbhlQq/V6HvKL5detnbr3OK/by/wCC+Xwf/ajPwY/sDw38SrP/AIV18U9D8b6l/aGn2Ufn2Vl5/mxw7Lt90x81dqttU4OXXv6D+1Z/wclfA345/st/EnwRpPhT4r2+q+MfCuqaHZTXmmaelvFNc2ksMbSFb1mCBnBJVWIAOATxXzx+2P8A8G76/slD4WA/GH+33+JfxD0nwHt/4RT7L/ZovvO/0v8A4/H8zy/K/wBV8m7d99cc9j+0V/wbC/8ACgv2fPHXjz/heH9rf8IV4e1DXvsP/CG/Z/tv2W2kn8rzPtzbN/l7d21sZzg4xX0cfZWVmfjcpZipTTivPbt6nL/8Fn/+Cz/wu/4KK/suaD4J8E6D4+0vVdL8U2+uSy65Y2kFu0MdpeQsqmG5lYuWuEIBUDAbnOAfBP8Agov+334P/a7/AGXf2Z/BPhvTfE1jqvwZ8KnQ9al1O3gjt7qc2mmw7rYxyuzJus5Tl1Q4ZOMkgd7/AMFTf+CHv/DtH9n7R/HX/Cz/APhNf7W8Qw6D9h/4Rz+zfK8y2uZ/N8z7VLnH2fbt2jO/ORjB9k/Z5/4NiP8AhfX7PvgPx3/wu7+yf+E28O6fr/2H/hDvP+xfaraOfyvM+3Lv2eZt3bVzjOBnFXF04pM56kMbVqThJatK+219Op9Ff8G4n7ffg34g/s9+Gf2e7HS/E0PjbwLo2qa5f308EA0uaB9XZwsTiUyl8X0OQ0ajKvzwN36c7MHex3e3Sv5zvhb/AMEZv26vgT4hm1fwT4R8TeDdWuLc2kt7ofjzTNPuJYGZXMTSQ3ysULIjFScEopxkCu9/4YX/AOCnTHH9ufGT/wAO5B/8saynTi3dNHfhcdXp0lCdKTtps9j985Jt53dNoxj1poOfmxj8a/A//hhD/gp3tLf218ZMd/8Ai7lv/wDLGmr+wp/wU6bprfxk/wDDuQf/ACxqfYr+ZHR/aVT/AJ8y+4/fIDzW6frSyRLGP4q/A0/sKf8ABTqP/mN/GQf91cg/+WNC/sK/8FOpf+Y58ZG/7q5B/wDLGj2K/mQf2lU/58y+4/Sn/gjucr+1J/2cJ4s/9tKd+xUdv/BW/wDbY/7kX/0zTV+RX7Nn7Jv7dnjn/hPv+FZap8SoP7G8Zajpfiz+z/iLDp3ma/F5f21ps3qefMd0e6cbw/HztjhPhh+yd+3Zr/7RXxS0PwrqnxKj+JHh/wDsn/hOZLb4iw215L51sz6f9ouTeqLnFuGCYeTy1yp25xWjprXVf1Y44Y6ajTXs5aN9N9Ht9/4H6JfsxHH/AAc6/tFf9k9tP/RHh6v0rY5NfzOeBf2bf2xNX/bs8aeEdB1Hx8nx80vRo7rxJPB45ig1R9PKWRQS6h9rCzJtlssIJmIAQY/dnb7h/wAMK/8ABTr/AKDnxk/8O5B/8samVNPqi8LmE4KSVKT95vbu9j982UBs96Uux9BX4Fr+wt/wU6dd39ufGTA/6q5B/wDLGhf2Fv8Agp1IeNc+Mh/7q5B/8san2K/mR1f2nU/58y+7/gH75xneOaHbYTjpX4GN+wr/AMFOoz/yHPjIP+6uQf8AyxpR+wp/wU6cf8hv4yf+Hcg/+WNHsV/Mhf2lU/58y+4/fEr5467fwr46/wCC/v7v/gkZ8Wl65/sfn/uNWNfmn/wwp/wU6X/mOfGT/wAO5B/8sa439oX9hD/goGfgh4ouviVdfEvVvAek6dLquuW+q/Eq21Kz+zWo+0tI9ub5/M8vyhIFCM25AVBYCqjTSad0ZYjH1J0pQ9lLVNbeR2f/AAaw/wDKQbxh/wBk9vf/AE5aZX74SjMg+nSv5q/+CGH7bXhH9hT9t9vEfjub+z/CviLw9e6Dfapsmm/src0N1HL5MMUkku6S1SHaoGPP3k4Qg/0Gfss/tgfDn9tf4f3nir4Z+Iv+Em0HT9QfSri6+wXVn5dykcUrR7LiONzhJozuClfmxnIICxEXzXKyWtH2HJfW706npiNkV5j8Lv2pPD/xb/aM+KXwz02z1mDXvhL/AGT/AGvPcwxraXP9o2zXMH2dlkZ22ohD70TDYxuHNelMSD8tfHP7FZx/wVw/bY/7kX/0zTVlFaM9OrUkpQS6u34N/oeO/wDBb8Y/4KC/sF/9lDf/ANOWh19vSftS+HX/AGxP+FJvZ6y3iz/hDf8AhN/tYijGn/Yftv2Ly9/meZ53mc48vbt53Z4r4f8A+C3xz/wUE/YL/wCyhP8A+nLQ69kJz/wcEf8AdvX/ALslaNXivn+ZxRm41p26yivwR9jbQevSmybIoWYKd2PWnUuN8Ui4+8hx7Gueex6kPiR8f/8ABZvWrnQ/2XPD15b7WKeJoJGUnbkC1vcjofSvMv8Ag1v0WR/2zvH2rTbAbHwTLaqiybt3m31m+c7R08npznd2xz33/BaSwbUf2VJrfzJA+mu+pKAxG3Za3vPX39/pWb/wajaVbaz8T/jPqifPJY6TptoGYklRNLcMQM+vkDt2HTusKvfJ4jly4eEFs1/kftnDdYihG3PmAd8Yz/8Arq7VOKIeXB/sgD+VXK9c/OgooooGFfiT8UArf8Fv4F2J/wAf2uc46/Nqh5r9tq/En4n/APKb2H1+3a5/6FqlTWv7CTXl+p9VwlK2Lfp+qPtpbNBG0jNJuXJ+96UPHut422ovlKIhhcZA7n3qa2jxYHdyfmz+ZqvK3mQNn+9xXj0+aTd0fQVJPnb5uoM4jh3bVLfSmeZ9r+8oXb0wOtCptiz708S+YD7e1acr7E87GqoXsKEAdmyPyookO0LihRa6BzvuCANGTikEeR90flSucSAVJ5uKevYOdkYXH8I/KgDaak86oycmk1H7aH7SXK7MG+amqsayM21W3DGDyF9xTqkYKo4Wj2cH8JlTqT6u4hfldqKm0Y+UY3dOT6nj9TRIm5GX+8SSQOuTk00n0pVAqvZyWqD3Jv3lYLZWa5zJdNFuzmSRuEPr1H0/Gq81xOZnSO0ubhEY4niJxNz1zg5/OrkVj9qcIFjbd2ddy/iCDUfkrcs0LqHNsSuG5Vef4R2HHYCjmg9GglWpw92MT5R/4LZRWtn/AMEw/iYUltId7aWQGA3AnVbPgHI/lXZ+JtV+y/8ABQL4eyJpcqyP8PfFCtbjhsDUvDpDn5enJHT15rhP+C52n+FLz/gm144vNe0WPVL3RX0tre4khWSa2P8AaNvF+6djuTiWReCPlkcdGIM3iH9kD4Z6D+3p4G07Tfhv8O7G1vvAPiO5mgh8O2ccMzxajoSo7oIsMyiVwpIJUO4BG45cacIqyRzutVi/cdkfVxaZ9pmjmRmG5hLn5GyRt5HXaEb6OPUUYpQkbTyvHHHGjMAqogTAAHGB2zk49ST3NO2ClyLsdVOpUau5jAOeg/KpGiCr2/Kmsg4+tSSINhoVmmrbHRTm1NXmePftpo8v7P8A4uCzTQr/AMI9qeRG20P/AKM3X1/+vXmn7N1w0n7XtnIcbm8H6kpPsL3Tv/ijXpv7Zgx+z/4w/wCxe1L/ANJmry79mr/k7ex/7FDU/wD0t02vpOCY3xUm+n+TMeLPewEf66o+i7Rd0C7mdicnk+9PcKnGW3fWktWxZp/e55/E1JAgCZYbm9a+txFSTqOzPy1QS3EgtfMj3MW3A9uKZLIYVypyelPaRlOM0LHuNY80+4csT5h/4KFX6q/wB8yNIY5PjX4ZidZPusrfask9MgY5+tfOv/BUa7ttO/4LU/s829r9mEcw8Nlmt8Iik67cjkDvgDvXvH/BS7wNovi9vgF/wkui6PraSfGHw/p0gubKKbfZT+f9qtjuXmKXy4t6H5X8tcg7RXy7/wAFKPgz8O/Av/BYf4C+HfDHgfwvoPhTVP8AhHjqOj2ej29vZ35k1q4jl82FV2Sb4wqNuB3KoB4FKjiKiXIloHs4H6lQbdYtY/PlNqhyxVm+VCDgDnHJGT+BptyjMVK20j4+Xy0H3B1zjB65P/fNWLOK7uv+Wkf2lxuD4wu0cEdPde3Y1IbqzT554ZHjbhAOoI+9375X8jSpzcZcl3YpOC0GPGrfwAquQpxxjJPHtzS2totqnyvwDuwf4uMYqSSFkOGbJHBwarsF3D5f0qXG3wC97oSHjdtVfmYN06YOcfQ9PpTI4xGSxyTjAz2+lPHyU5CC4PpQpNP3h+91Pwb/AODoP/k/vwh/2T+y/wDTjqVfpB/wQVLf8OnPhPt/6i+f/BzfV+cH/B0K279v3wj/ANiBZ/8Apx1Kv0d/4IOOy/8ABJr4S7Tj/kMZ/wDBzfV5eFk/rs2n0/VGjty6n2Fcp5SrsJkckhlHVfQn69R/WhlWJBukVWODg98jJ/I5H1Bp04W2gjaVdyOCEA6hl4Y/i3I/pR5UnlK0bKrcBie4PI/8dKj6j8a9f2k+5n7g2Mq4XMiKzNhl7oufvn2xg/iOaG3IXyrBVbCN2lH94e3T16inRRTzbW3r5Uh8uMY5WToSeOmQT+PSnTGOJSI1ZZozsnbs7eo9sg+nWj2ku7D3CMSjb/F+dNklIjYhWY44AP3j6fjR5jEZzSy3e2I7slV5YAdQOT+lCqT7sPcBF3+X83DAFz2hJ6hvcd+n4Uk0BCttnkyM7URseZ6Y+vBH1HWnRbnCqfv3ADW5/wCean7oP0/H8aV4miyzYMcefNA6sV4fH1IOOn4VXtJ9yeWIz+z7e4kKsYbdV6TYAEn4+/XrUsTf6NGGUwsM5U8MOe9JHDNO5hhZUuo/9Y7fdbHBxx6+1OjkjmTzI1ZYX+4p6jHX9aPaT7sLR6Bn/ab86dHGsr/NMkS4OXfoDxgdR15/I0ZWkFpJeNtgZUlIyC3TaOvr6r+Ro9pPuyrBbwiXd50kdrjp5g+99OR0/rSRyOq+X5K7ZvvyMmTCSMH8qI7N9Q/48mWHZ9/f3z09feoZpV8xUj3K0gBh54UH7ufp+NaU6zT95kSp82iPn/8A4KxM0X/BOT4jM0k0gjk05WMj7kQ/2lZ/Kw/vD6jnHFbH7EF/JbfFn4gsirzpmjxkEcDbNqeP5/yrL/4Kxsp/4JsfE1Nv76afT3gbHCJ/adngH3wD6/Wrn7GeX+Knj3b8v/Et0n/0dqNeXxjFRwtOSe7/AMj73gmXNUqRb2SPo5V8mYeWSGc8jt37U55Nsv7xN24Z39ACP4frjB/EUSDy0jK8N6/hXyz/AMFXNW0DTfgVo+oaxpMOpGz1+Cz/AHlrHOQ0ltcyAgPxjEfXqD06mvkcswsateNOTvc9TGVJRm2pH03perWeq6fPeW17ayQwzTW7vFKrCKWN2R1LA4DKykEdQQQelcto37S/w58T30drH8SPAdzczSLFBbprdrJLcOxwEQebksTgAAEkkcV87/AX43/D34Ufsgx+E9W0PXDYL4O1LxneRaWBCraZNPcPNDG6zRuk5LuQFKqpI2uuBjwe/wDjJ4Tv/wBpT4PW/wAGV8beEdNuPE1rH4nt9T1a4lXVYjdWwiQBrmcYCm4BHyZ8wde33GH4WoOhKp/X5nkvGVL2uel/8FabuSz8QX0O6CSFvCEnmHYfny11nbzxxxznkE+w8y+A27/h9NeQQSLFbr4h1vYij5VxaXZ4AIHUV13/AAV4+EPhPxR4qvNYm8M+H7i60/we/wBquZ9Pie4kZHu3BVypbhCgByMFe2Aa8r/Z4+D3hPwV/wAFmUt7Dwr4X09tP8Qap5a2elQQxwEWlyf3aqgCAc7QoG3jGMDH57Uw9NSsdlPEYhrR6H6vWsMOnQSSQzRSSL8yHgurDpgjpRBGptpCJN5mbzpsnc+9uuT+HcZ60ZWWXbA02/Aw00jSMCenLEmi4s2iaNi3r5xUkFzx/WinR5nyQOmNZJWQ+C8W2t48+YyqXXb5nfd9O39aYYmZfN8xlErMwXuBn1rMsfGdtq+sX1rZpcRHSysU3mAYdiOo5OeVbrjrXOar8aNL0v4hWehy29811NcxQs6xIYyXZcc7s4+b0rr/ALExEY88WRTxCpzvcz/2uJWP7NfiZWXdhrbDty2PtMB618W/BqBZ/wBvPw6m0Ll4VyBz/wAeAFfbf7Yka/8ADNfiZoxtj3WuB/28w18T/BT/AJP48O/9dYv/AEhFfP42lyySlv1PtcvuqHOpN3PUf+Cy7h7n9lg+XGp/4aD8JchcHreV65/wUUXd/wAE/Pjqy/d/4V7r/wD6bbivIf8Agsnzcfss/wDZwfhL/wBu69g/4KMPn/gn78ddvyr/AMK81/j/ALhtxXoUOXkjyHw2Jt7Wry9l+R8b/wDB066/8O+/By8bv+FhWR/8pup19k/8E6ZhF/wT5+BOQD/xb3QOv/YNt6+N/wDg6a2/8O9/B/Hzf8LDsufb+zdTr7L/AOCc+3/h3z8Cdy5/4t7oHb/qG29av4EcdP8A32foj2CRm8v/AOtTY0P3u/pThFugz3yackQ2VmekNyzD+mKDLlcYUfSmuuxuKVetACBuKBwaVvvUlBdj45/4I8Nj/hqb/s4XxZ/7aU79ik5/4K4fts/9yL/6ZpqT/gjsuR+1N/2cL4s/9tKZ+xacf8Fb/wBtj/uRf/TNNWr3fp/kedT+Gl/if5SPHf2Yxn/g50/aM/7J5af+iPD1fpQrHdX5rfsxH/jp0/aJ9/h7af8Aojw9X6XMuEpVN16IeB2n/il+Y1vmOen070M/Hp9KVpNwqN0z0rM7RXKzHc36Gnrc7E8sAc8ZNOTbj7v6U19uTgUAAcqP8abt3yf7VAJxzSscR8daAPmr/go9/wAEtvh9/wAFHvh7HZeIB/wjvirT8NpvifT7C2fUIdkdwsVvM7oZJbMSXDStbrJHuZQQ6Hmvx8/b6/4JdfFH/gjVZaD42+G/xO8faxba5bXdpruv+GtJu9BTQYFlsxFFc3NvcyAJcSyqFWRkBeAYDHG3+hVAXbmpGG1eOOa0hVcdOhw4rL6Va8tpdz8Jv2Xv+Doj4g/CH4fWPh/x38O9G+IH9j6dZ6fY6lBrdzp2oXHkxmOSe9lmW6+0zS4Ri6iL5vMJDbxt+9/+CdnxG8PfFn/gqF+2d4g8K67o/ibQdQ/4Qj7LqWlXsd5Z3OzSbiN9ksZZG2urKcE4ZSDyDX0Z+1X+w78KP24fD2k6Z8UvB1n4qt9BuGutPdrie0uLR3Xa4Se3kjlCOAu5N2xjHGSpKIV/mz/4KC/A+6/YV/4KGeP/AAr4buv7C/4RHxCNS8Oy6VfXBl0q2l2XtgEnfEwmhhlgBfcWEiEh2wHOseWd0tGedXliMJyyqPninp0ezX693sfrt/wW+/5SCfsF/wDZQn/9OWh17H/zsEf929f+7JX4Z+Bv+CjHj7xR8dfgXrnxZ8XeJfHXh34MeKrfXLQXXl3eqJAb63urpRcSFZbh3FuoQTykKFVVKLxX7T/Bn4qaf8dP+C0/hPxtpEN5b6T4x/Zhs9csorxFS4ihuddSaNZFVmUOFcBgrMAc4JHNEouKs+zHh8VCtNzj1lHT5WPuyhnWIKxKr+8UAt+NFSWrrBcpJJu8sEJ8hw2Scjnjjg/pXJPY+hp/Ej5N/wCClWorrWgeJtDuFmEE3g+6lR4pdpZitwnAII7n8RWV/wAGkujXUEnx+a8t9Qtz/wAU7s+05+b/AJCmcZA9s/hXkn/BY/4o/wDCvf2mLGZ5b4WeoeHrex2QEb23zXJIYkj5TtPc9q+2P+Dfr4f2/gU/Fr7Pb2sH2r+x93kg/Nt+3deP9qjCfEcPFE2qdP0/yP0gaIOijn5emKmqMdKkr1j4SIUUUUFBX4l/EYbv+C4cLH+G/wBcH/j2qV+2lfiT8TpCP+C3seP+f/XP/QtUrPFf7tP5fqfWcHq+Md+36o+3lfdA/wBW/marpH+7bdz83GauRxJ/Z7NuG7DHGfrVXd+6x39K8yjJ8p7042kMVirYHT0p71GPv1ISrj1xWvMyQSkeX92z+Xu8rjys/NNnjg9RjrxSZxTgnKN8+1R8xH3x/u9vrntS5mA3OJQm1pDjd5wJ2jHO3HTJxjPX5qa24t93HtjpUiEom3EgbOcKP3ePr1z6ds496RmYsfmHXv1o5mBCS/8Ad/8AHafHMwDbl+6OMjrQyyY+8tPExkChlYeX3x96lvuTIbFMbltpUL9BT9q+1HnbvlVT9cUZWgka20dD+tG32/SkbaT901KMN/Ev50OTBRuxsK5kG4ce4okOHOOB7UrMAPvLn60irurFxGormPnv/gqF4dtfFP7DvjixvrNr+3uPsHmQAspkxqFsw5XnggHj0rzf9jIeNvFP7WttfeOvGFx4s1C18I6nBp13Lpsdn9jie80xpowsfD72SE5PK+Xx9416l/wUwtY7z9izxlGytIrfYcqvU/6fbmuR/Zzijm/as01tW235TwnqoQ2RyRm80v6Dsc/UVwVqklVSWx91l+HpfUZSlFN+nofVFleQvbM00XmbhtR1kMarjPzYHHfH/Aa8j/bW/aS1X9nT4Dal4m0rwzdaxeWwkGyGQx/Z0W3mkMrfunG1TGucjHPXsfWotXmfa0264mm/d+cq/IuOhOMAAbuuOxry/wDawgtfGvw2uvC8Nn4wu7fxJa3NletBaRMyW7xGJxkKdpIl4OD93t3+ryejTnJSmz4TGU04uUdDU8A69r2i/Cua71q+bWtW0yyubuSVrVLdroozsq7FGF+XauQD0zg5r5P/AOCff7b3j741fHGz0jxBqzeKNJ1DTpJmtYYIIWsNuyQSs8MQcjAMXJAzMD1AB9j+KHinVPjFbeJtL1CL4l2vhjxNpkumHTbfR7RfsolhETsjNE0m4gufmdgC/TGAOH/ZC/ZL8J/CL9qvxJ8SNP0n4iWvi7x3b366i+owoNPjmuplun2rsBUCeNcZJwuRzX38qWWLD1XpzW09bM8qnGq6keXa57T+2Ncx3nwF8aGO2a1jHh7UdsbOXI/0Zs8nk+v415n+zGmf2vLHjP8AxR+p9v8Ap902vSv2worr/hm3xVHcsZJovDuqbyFwObdiOw7V5v8Assqw/a/s12kt/wAIdqZxjnH23Ta+U4PUpYua21/zO/iqV8BD+uqPovR1t54ds0Y3DJDlyvHpXKfGO91iz8L3Vxo941rMu1d6WqTbf3i88juCRXSLN9ttlh8xI4M+YGJAyeR1/wA9K8v/AGoPEGs6bp9npOj6Pfana6rAPONtaPcMhjdWHKnjP64NfeZXRjLHKNe3Lc/Na0k1oeC/8EifjZ8Sf2ivAGreJfH2t6rq8cWqzaPbJPaLbxpII7SRG3RqoYjzH+UjkHrwBXkf7OP7WPx08bf8FDrXwzrWqeJF+H+oeIr63s7uXTESwvrWMzSxiKTygGWWGIhWVzgNvBO0V6p8L/AutfB7wAmg+H/CvjTT9LttZGvuItLeeaadY1jKOZFYCEqi527WyOGHNbHwj8E+JPDHjnwVZX2l+NJtD8NXSQ6bZ3WlrHYaQgt5LbdHKsazOEtpJUQzSSZ3Bn3MAw+6p0cFRdRvlaa0OOEJXLn/AAVhhv8AXPhh8LV8Nag3hvVV+JukfZdSSIXhsZzFd+VNsf5W2N820nDYwa+Pfih4X8ewf8FK/gr/AMJx4+m+Ims/2poZh1F9GhsTDD/arbYPLiJU4be248nzMdAK+3f+CnnmQ+EPhG1x5mG+J2jxp5q7csUuemMen8q+Uv2kV2f8FL/gzH5X+svNEwVB2c6rIOTXBToUvY3UV9xpGTeiP1CgmjvLdXjTardi3mdOOp604yMh+UlfXBpruZTvVmkVujEDn8uKM1+f4i3O7HZGNtxfLVvT/GgrsWvLPEX7dfwR8Ha/faTqnxi+FemappdxJaXlnd+LLCG4tJo2KSRSI0oZHVgVKsAQQQea+ef2ofDH7Cf7aHj608U/Erx18H/EmvafpyaXb3P/AAspbPZbJJLKsey3vY0OHmkOSC3zYzgADhlVSXutX9bf5jPtqM/3ufrR8u4bl3L3AOM1+b8X7Dv/AATPb72tfB//AMOzP/8ALGgfsOf8Ezt67tb+EO3uV+LM+f8A041l7af93/wL/gDPkD/g6JRY/wBvzwftkVw3w+sjgD7n/Ex1L5T7j3r9H/8AggnMkH/BJj4TsY/MLf2wMbvTWL7n8c4/4Cfevxz/AOCyvwq+Bvwg/af0LTPgBc+GbrwbN4Xt7m7fQ/ET65B9uN3eK4eZ55isnlJBmMMAAVO0bsn61/4Jk/sr/sL/ABG/Yf8ABOtfGTU/h3b/ABGvvt/9rx6n8QpdKvFKX9ykO+2W9jEY+zrCR8g3A7uc5Pm4epJYqclb79OnW36FP4T9lSu5d235u5xzRGu4c/SvzhX9hz/gmeV51r4P/wDh2Z//AJY19IfAn9pL9lX9l74P6T4H8CfFv4P6J4X0MzfYrH/hPLS68jzZpJ5P3k1y8jZkkdvmY43YGAAB6kazb96333/REWPpGQgRdPmxjPrTFDSbV83y88BzyE/A8dsV5Z4e/bq+CPjHWbHSdL+Mfwr1PVdUuI7S0s7TxZYTXF3NIwRIo41lLO7MQoVQSSQBzXqciNJCFVVbOMbs7T9cc/5FbRknsISSdoo2ba8nlnbsDEGf/bHoD1wOOKWaQxJtClmUgeYOjc9cdOaG+XZu8wKi4YqBuU/7OeNv15qSOURIPvFlGCq/d/DviqAWFFli+YY3dfeon/dSHHrxQytcvkfL7U/Cw/L1NAERk3Lgjj0pxlJUt1NSF9vVcUjPs+bHAoASNfMTd0NNXEv3lU/hSk+b83QUqyrJ8w6dKqzAGjV+qqfqKCcAU4HNMf5VX6UKyfvEy5re6eBf8FZEU/8ABNb4ofKPmudPJ46/8TOyq1+x5ED8W/Hn2eXb/wASrRy4U7vm87Us59Kq/wDBWWVU/wCCafxOZmUL5+nHJPH/ACE7KuBt5tc8MeIrzUPD2u6lpr6hDFb3SNBbSKxiaVl274WIH75uc8/hXHxhFVMLBQXX/I+04OzDCUpyWIdj7Ugt/s91I09xwxJUP8oH0596x/G3w70H4kqsOvQrf2cBUwxS3DiHcN3zBQwXI3uM4yNzepr5bX4kfEayt4/+K+1bd5eP3VhpzYPy+tr9aaPil8SJD/yPurFuuZNP04fyta/P6NTEUZKVNa+p9XiKmUSq8yqfh/wT6Ysfg3oH211j+0W9u1qLA7b+cKbcBVEX+s/1YUAbemABjii1+C/h/QrqKTT2mjk3hv3N7PkkHI6SV8zP8TPiZI20+Pr0gfcH2HT8e2f9FpB8TviYGG7x1qA/3LDT/wCtrXqSzzMHDkin9/8AwDmlTyhT5vafh/wS9/wUd8JR67eaklxqEdqJvDEkbrKoYkH7QMnLAnj17CvG/wBiz4cSz/tq6X4g16Rr/wARTXmqzXd+1t9mkmka3ugWIUgLkHBA4I+tdT470XxJ8SXWTXPFWtXkk1sbaUrbWceU3Px8tuMcMffmof2R9P8AJ/bD0+R/M/4/NTzHGMrzBc8DPP618zKOI9petpc+tjjssnh+TDO7trp5H3zfMsTr/q5ZCPlZQF2H6Dg/jWD8Q9KsNe8FXml6orLDqWzmK4ezkco6udrRlWznGSCDg4PBxW18hkMK+T5UoCyJuPzA5HPORnnpWX4i8JXPiKFVtdcvtFuLNmWH7OIDC8ZwAGMsUhyoDdMfeGc9vpMrrRw8oufQ+KxNCLbseFfs1ReF/gH4HvtUhgsG1bxZ4g1yKZZbvZcNDY6vdwRFmcs0nyOnznnkZLFs1q/Cfwd4Z+Lfx1+I3i7UPDWh/atH1DTNO024mtIpmHl6dbX3no5UZfzb5lLct+5QFtqoiemz/D7Ujawr/wAJ94ueTkPH9n0vy4yvB2/6JuwTyNxPFQj4e3Vtdxyt4w8TXEkjKXEkOn7SQAB922BwQAPw9a+wxedYWrQs3ZnDSwU3NJbGN+1fHGP2XvELLqFv1t/9GVVBP+lQ9MHPv0r41+Dny/t5eHv+usX/AKQivsr9qeK6tP2WvEVq15JdqrW+TIqeY/8ApUJ/hUDj6dq+Nfg4pP7enh9cHd5sXH/biK/L8yqQq1/c7n6Fl8FGly22R+iV1M0bj+Ld8teM/wDBRZvL/wCCfvx1UL/zT3X+3/UNuK9od/4lG5fu5HPNct8aPhppvxu+DnizwPq817BpfjLRrzQ7yazdVuI4LqB4JGjLKyhwrkqWVgDjII4rupWikfH4y021FHRvJkbiqt26dKkiVZkyeO1Bn8s52nntTJHWRtzEL7E4qjMfH+9i3N64xTZPl6UhbzX3dPanr8tADUOaeIxRgOM9MUwrnocn2oAVxtY0qdKFTC/N1pp60GgpPNfG/wCxZ/ylv/bY/wC5F/8ATNNX2OOlea/DD9lnw/8ACf8AaK+KPxN0281mbXvi1/ZP9sQXMsbWdt/Z1s1tB9nVY1ddyOS+93y2MbRxVRejMatNylBro7/g1+p6Y0aom6mNKXFPC7xyaaSIvu5P0qTYSIf5NSEgJSSbR93mmqcigB3l/hTSuGpxX3phXBzmgzEdjuoH3M0OO/b1pVB8vODQA0XDKjcdqWCQyRsx65ApY5vLRvlPI9KWNt8bfLjkcUAOQZr45/YoP/G2/wDba/7kX/0zTV9jKwXrx9a+Nf2Ljj/grj+2v/3Iv/pmmqo7P+uqOet/Ep+v/tsj5R/4LT/sa/Cfw1+2L+xz4V0T4c+DfDOg+PPGU2leILXQdKh0j+1bZ73R4jHI9ssbnCTShWBDL5jFSCc18c/tUf8ABO/4xf8ABND9sOz8CfBLxh8SvG3irVvBqa9dX3gfSr3TdQispL2WB4njtJpZDCJLaFixYKWeMEAhSf0U/wCC34H/AA8E/YJ/7KG//py0OvYB/wArBH/dvf8A7sldEajUUeXXwcKlaa2fNFJrpdI+E/8AgjT/AMF2/Gk3xp0/4c/HTxdZ6x4Y1i3S1sPFHiHU7PS08MJaWd1ITPMYVa7e5ZbePfcTB94B3OzkH9g/hH+0L8Pf2hP7QXwL468GeNTpJiN4dB1q21L7CZN/l+Z5Lts3bH27sZ2NjODjyf8A4KE/8Exfhv8A8FJ/D3hmz8fT+JtNuPCNxPPp1/ol6lvcRpOqLNCwljliZHMULElN4MK7WUFw35Lftwf8EO/iv+wD8XtJ+JXwLGseNtD0fxHpr+GLaytJdc8UWN3HCLn7Vc28VkLcwpdW7gH5gQ8KspLNWcowqeTOqlUxWDtzL2kU9+tvx2Pev+DiW9msvih4ZlimlRrXUNMt2dWIO0pdSEE+nzZwfrX7ffsB/C2L4at4r8lHj+2/Y92Y2TOzz/Un+9X8rPxo/bY+L3xX8f6l4L/aIsdZbxY1xDKq32gLo+rWd08EaWyTQKsKLD5Um/8A1O9t6nLKQK/sb8JeDofCxuPJO77Rtz827GM4/nSoU3CdmcefZhSxVp07rdWejWxuo3AqxVdeMVYrv6nytMKKKKDQK/Ev4mkH/guBDj/n+1zP/fWqV+2lfiV8SUJ/4Lfwkf8AP/rn/oWqVniv92n8v1PrOD/98l/h/VH23/y6yf8AAv5mmNtHLfeqTb/okn/Av5mocrJ83YcZxXl0fhPoKm4CVC2P6Ur7V+7364puIyevP+7S7Ng5GPwrQzBV3UFWz/rFHtu6UmcdM0eWrH73PpigmQbW/wCei/8AfVG3B9fek2Jn/WfpShT+HrQSOQ7qA2WK+lHmLnj+VMddp68saAHs2wcU2gQtjmgDNABSIPLT6Uo+Y0SncCR0+lZybuaU99Roj+fPvUw6U0sAv/1qFcEVpUVkVG3NqeE/8FHjGP2OPGPmeZs/0LOwkN/x/W/pzXyT+0t8ZvFf7POpeH/FHgrxBp/h/UJIrrS5RcwwTXE0Uhglbak6ONgaBMsMEEqO5r60/wCCk4H/AAxn4y3MYx/oXzAZx/p1vXmHwi+HWg/Fv9ojS9M8SaDo+t2cPhzVLpItSso7yNJBc6aoYK6kBgHYZ64YjvXk1pJSPt8si1h3Pddj5euP2lf2ntZuI5bP9sr9mHRbCQ7RZXuraLDdJ2bcv9nkgN1GT0PGK+Zv+Ce/7Y/7THxJvfFn2P8Aag8H+DVs4rUSJ8UPENtK99vMuPsX22G4I27T5vl7M+ZDu3fLt/Y61/4J3/BabT5jcfCv4XzXkqkLJJ4RsWZTyB8xj+nfivE/2Kf+CFvw9/ZXufESeJrrwl8YG8QC2FrJq3gmBDovkmXf5fmyz/63zVJ27P8AULndxt9jCTcad7nwWZU3Oq5p2V9jwC2/ai/aK8DyWN5qX7UX7PvjOG+uUs/s3hy70a8nhLHPnOq2KbYlClS2eCy8c12H/DWHxshnkZPjX8M1aPJVwdM4I75+zV9haD+wN8H9DsrWa1+G/wAM7WSZ/KXy/DFjEQSx6EJycjoK2ZP2I/h2ifN4F8E+W4ILDw7akgYzkjbnt3rjk8VW5kpOx9Zl+YZdGly1aa5vRf5Hwp4q/aG+L/xL8N3Wl618bPhrd2OoW8tpcRC4sI/OikUo65jtweV4zkEdq2v2iPHfjr4X/EPw3rngH4ieD/hvqj6df2NzN4jubaNr2FpbR9sQnilBCtGCSACMr619CftRfsqeAvBfwS8V3mneD/CNvPbaHfzwXEGhW8EkTpbsysrBchgeQRyCK5H4Y/BHw58X/wBqTS9L8VaXo3iaxtfCupXUKatp0d7HDJ9r09cqkgYBsE/MOxIr7DgWhyYn947tf5M+X4wqUKuCXJp/w6Pl+b9rX9oqayUR/tIfBSNVb7zTaQqd+B/of+ea5/XP22v2jLzxdpugx/tK/Be2kvfOI1OWXR0sbUIu4I832PKE7SAAOS6jvX6GXn7FHwntNIRrj4Z/DuFWk+6fDVmwU4PHEfoM1V1H/gn18IdR/wBFX4a/DhmkJkeUeFLJhbk/wk7Mfw46jNfrGJzTAvSNNc3p/wAA/JqdNpe8fAvxG+Pv7TWmeBNZm/4bJ/ZruNtjOTBpuu6St1IBGxwmyxU5OMDBBzj61J4d+O37UFx4U0eaP9sr9mWyWS3hby9U17SGmQGP7snmWDHzBn5sknhsk85+6vG//BNr4P8AiXwlqVlH8OfhzoU2oWstpb3R8H2ccgldGVQgKKS2TkAHkrTvDP8AwTR+EeieGtLtbr4e/DnWHtLeKF55vCVkWnZVC+ZgqxJY+5PzHk818rL2sqnNG9r6nRHltofnF+zt+178Vv22/Hui6b49+KXhXxDpfhfXtN1i20+5SytJ5Z1kdQYPKgRnk2l1C7urr3wR6r+0DJGv/BSv4KyXEd27fbdEPlqWLEf2tJxgHGT/AFFe1fttfsteAfgdpvwv1Lwj4J8H+E769+IukWU9zo2iW1jM8TCdiGeJVLKGRTtJwSAe1eJftI2bW/8AwUz+Cqx3UkgW80PL4K5P9rSe9fd0JL6roclO3NqfqHA4aMK00Dt6w8R/htGPy70rrj7u001UjWMLFGqqOyjFOEAfrJs9sV+eVb88rnc9VoeVa/8AsKfBLxbrt9qusfB34Vanq2qXEl5eXl34UsJri7mkYu8sjtEWd2YlizEkkkk15r8Tfgr+xx8DfEcOleNvC/7MPg/U7i3F3FZa3puh6fcSwszIsqxzKrFCyOoYDBKMOoNfUHk4QsTwpxuP6Z9P/r1wPxO/Za+GXxx8Qw6v41+G/gPxhqVvbi0ivtb0C01CeOFWZxCsksbMFDO7BQcAuxxya5pU1b3Urko+fZD+wCXj8sfsgqi/68MfDuXPbb6c56Ypu39ghhiR/wBjtmzwUHhxQB37Dvj8jXsEf/BO/wCAa+av/Cj/AIPv55BDHwbpw8nHPH7nnPTj0qa6/wCCf37P8zq3/Cifg7FgEYHg3Tec4Of9T2x+tZezn2iVc/DH/gvGPhCv7Xnhz/hS3/Ct/wDhFv8AhD7b7V/whP2L+z/tv22+37/sn7vzvL8nOfm2+XnjFfbH/BI5P2Q3/wCCenw+/wCFof8ADN//AAnX/Ex/tP8A4Sk6KNW/5CV35XnfaP3v+p8rbu/g2Y4xXyZ/wcafBzwf8EP23PC2k+CfCvhvwhpVx4HtLuWz0TTIdPt5Zmv9QQytHEqqXKoiliMkIozgCvvv/gij+x58H/il/wAEyPhnr3ir4V/DfxJr2of2p9p1HVPDNleXdzs1W8jTfLJEzttRVUZJwqgDgCvNw8ZfWpqy/ToU/hPSg37AIT/mz/8ALw7Xovgb9jv9mL4q+D7TX/Cnwt+AviLRL8v9m1LTfDOk3lnchHaN9kscTI211ZTg8FSOoNbJ/wCCefwB2A/8KP8Ag/8AN3PgzTh/7Rr0j4f/AA68PfCjwna6D4X0HRvD+h2G/wCzaZpdlHZ2dtvdpG2RRqEXczsxwBkuT3zXqQpu/vJfIi5wXh/9hf4J+Etds9V0n4P/AAm0vUtLljvLG7tfCWnw3NlcRkOk6SLCGQq4DKwPHBGMCvWCv7iLasitt+Ziflc8cr2x9MdRSll8lV8lSyncW4y4/uH27enFMVGG4mQlWOVQniIf3R+nT0raMUtkIMNj5m/WlOMfKwzQF3dSBTQi7uG/DFUA4jcP3bc9+e9CsiphuZP600r5f3W+vGKR1XIOfmxnGKAJFdR/rf1pG3EnJ+XGFyNwz9MHPGex9e2Q0R+aPm4/WjazAruKDsw/hP8AnI/GqjvqBIJIV27h8q/6zB25/Mjbzjrj09qjJjdf3f3fZSvNOCx4xhZB/Fkff+v86Y0YhTarF+c5xitNAJVTA7VDNc28ZVZd6sR1Ziq9Tz1xj9OtOSZVHOfyokWOfZ5kaSKox8wzxk8VEqnJqlcOZrY+Yf8Agsn4jXwv/wAEzfiadQ1C2tLffpj5aBm+U6pZhT8qEnnjjNeN/Cr9uP4S/GvQLjVtB8eeH5LOG6a1c30/9mSeYFVziO5EblcOvzBdpOQDkED0f/gvjIsv/BJb4p5gjZlTR1EhI3J/xOLHgd//ANdfN3/Btv8AAnwL8Tv2GvFWoeKPBPhLxJfw+Oru3judU0i3vJo4hp+nMIw8iMQoZmOM4yxPc101sVQxGJhha0Vyct2+t9flbRdCYRcVzJanuX/DQvw//wCh68G/+D61/wDjlL/w0F8Pj18ceDT/ANx21/8AjlfS0f7H3whIyfhR8Nsep8N2X/xqhv2Q/hEp4+E/w3I9f+Ebsv8A41TqZTk/N7vN96/yBVqjd2fNB/aC+HoH/I8eDf8Awe2v/wAcoX9of4f5/wCR68G/+D61/wDjlfSrfsi/CM8f8Kn+G/P/AFLdl/8AGqav7H/wiX/mlHw3/wDCasv/AI1TjlOUJXvL71/kNYiq90fNj/tD/D/P/I9eDf8AwfWv/wAcrymL4i3ng74r3HiDwn8Vvh1parLNNZSS6tbzNF5qMDuDI4Od7ZznrX3S37H/AMImP/JKPhv/AOE1Zf8Axqksv2Q/hPHKqt8MPh4yrkAnw5Z8jnHHl/Ssa2R5RWtdy081/ketlefYjAyfJFO/dP8AzPlOL9tL4lWfnLJ8dvhM8kiAI63GlfL19bcH8garj9tL4of9F8+FLf8AbbTv/kavra2/ZA+Es0UjTfCv4cq3RSfDdkx/9F0D9kD4Spj/AItj8O/r/wAI1Z//ABuuepw/lXM0pTt6r/I92pxjXv8Aw4fc/wDM+Sx+2n8UD0+PPwq+pl03/wCRqD+2f8UCc/8AC+fhT/3903/5Gr61P7InwmkXavwx+HYx3/4Ryz/+N1Gf2PvhSr/8kz+HfP8A1Ltn/wDG6mtw3lHJFqU7+q/yKXGGIWsacPuf+Z8eeMf2p/iD488NXOkat8cfhfeafd7fNhiubGNn2sHGGjtwwwyg8Ht6ZrY+DMLD/goH4dZGaT95EfOViYn/ANAHI7EH6d69c/bZ/ZV+Hfhv9lzxNqGj+BPBOk6lB9l8m6s9CtYZos3cKttdUDDKkg4PIJFeO/AkNb/t5eF/3zMsbQDyuikDTxx6V4HFnD2DwWHp1sK3eXe3a/RI97hfiLE4yvUhUSSt0v39T9FlLHo3AOSoOOP5fjRtIZNxXC/6z90eefXHy8Y649fcoWy3m42j7mzse9LtwRmZv9pcH959f5fhXy0dhVr87uCjy/8AXHce3GP8KRvKlPOOOOaCMkbmLe5pkqbm+XkY9MVRkSK6scL1pxQqu5vu00oqdPvY6YpQzP8AKRx9aAFBDodtNiGx808KIx+tMPzn5aAHSSbifvURjcP8aTG1cHr6UK2KDQG+8frSU4Ayk7fn552/Nj64pqndJs53DrkYoAVe/wBKRP8AWfhSk+WG3cdqYJlDZ+bHspNACJ96n01VwadQFxuP9r9aCMjk8d+aAmR/9ahU3f8A6qDMcqNKOPu0/wAwRReX/EabIzFQsQ3EdedtIowvz8Sdh1/WgApVbaaTFBHNAA8fmGuO8F/ADwj8PPi5428daPpP2PxX8RfsP/CRX32qaT+0PsUJgtf3bOY49kbFf3aruzltx5rtUdQOajx8zenagOVXu1sfmr/wW8/5SC/sF/8AZQ2/9OWh199SfADwiP2gv+Fqf2T/AMV5/wAI9/win9qfapv+QZ9p+1eR5O/yf9d82/Zv7btvFfFf/BYX4L+MPiZ+3J+xTq/hvwn4l8QaT4V8dNea3e6Zpk93b6PB/aGjP5tzJGpWFNsUrbnIGI3OcKcfoGyvM+USRlxjIU4z9aqpNRirnLh4c2Iqq3VfkhCS9NmKWwhlk4WGZZif7oXPNTLbtuVdrbm6YHX8azfG8p03wjq00jLGtraSyyMzhQgCMScmueVSLVkezhacvapWPzl/a9+Hnw8+LX/BRb4hWWqeGfCuqeJNc0W2m066vNLgkuXuPs1pbwssxUuHVl2qQcjbxjFf0ARDGa/mp+P3xHiT/gst8MPs1158evX3h+w/cTFhIZNQRNrbc5zt6HHav6UoZdud4K+me9dWEjK92fL8Wcqr+7/WxMOoqxVfzkUKd3HWrFeh1PkYbBRRRQWFfiZ8Smx/wW7h/wCv/XP/AELVK/bOvxK+I67v+C4luhON19rp/wDHtVrPFf7tP5fqfW8Hf74/8P6o+2YlJtWPu38zTXn8s7ccdaat9yIfL/1n8Wem7n+tOjTYVY/xDdXl0fhPoa0hDPhc4pDe716VJJPgbdtN8ryzgLu3DNaGF0NS6z2qVJIz/CeaYhIPMYH40xIdrlsN83ONvT+p/AH8KBSHx7VmGQetG3zXPoWI/WmuN/Xav1BP6gY/XPt0yGXau30GMj+dBIPcfOUx92kiTJk/2RT0Tj+H603fgt0+agqIWp/ee1OXoajBwe351IDgf/XH+fzx7ZoKGw/famy3RMXFOQbT659jx+nP4ZHv0y/AWPG0Vm/iJ6gk/mMq4pkjbXP1pWfnO2mFFlYktt9sVVTYqPxHg/8AwUq4/Yy8ZN6fYf8A0ut65L9l6f8A4ym0/j/mVdV/9K9LrtP+CkUQb9jTxiueD9i5x/0/W9cX+ypdi5/aisW2bSvhbVARkd7vTMfyNeXVqSjPQ+4y2KeEkrn1JbKt3c28RXc0jhQScAZOK8Z/bN/a8g/Zc+GkOrPpNzq1xeSvHBEkywqGSJ3BZirYGcDhT1Ppg+zgfaI1CtIvHzBFLjOTwduTjGOx6njivDf219Jk+NXww0zRNJttas92rxS3hn8PamVNv5UyP8sVs+4jePlbaDzyK+wyVQqpe0ifn+YU+STd+p7r4j1K60Gx1xYo4rifTbCW5isnk8uDeqbh++Cs/JPJ2HG48HAz8n/ss/t+678av2stc+E3iLwtZ2snhs3lubm31g3EPn2k6wkqPs0TFfvEFiM8ZAzx2vxO+JHi/wAQaj430zS9Jv7a0vtDnttGvntddjure8eBFSQwJprGHa5Yh1cngEYLYGX+xf4fvvAtroOh6z8PfC+gX2maFFp9z4ks7fUEvNTnjjjUvL9o0y22l3XzTvmLb1UYJ+YfXYzL8DSw8pJJNrucdGXNWS9DuP21Y3t/gL41iO3y4/DupbADnGbVia8y/ZtbH7Xln/2J+o/+lun16Z+1/bTTfs++MlUTXMa+HtS3XO1n4Ns3Lbd2Me57V5V+zPcvd/tbWbLH+8/4RHUQE+YkgXmnZPT3FeHwvGMMwkktH/kzv4njy5fHlX9XR9Hh5bhfJt5Ps8wO8yY3ZXptwfzzXB/tAfErWfh14BTVNB0nT9Smt/3MKXmotZiAB4l4KwTbsq56jjaOucj0HR91vcGbZ9pt2UqEYER7sjnkH5u3Tp37V5P+1V4I1L4qfDC+8I2eieJrp9SEbPqGmJYTKhSaOTlJ7yBiW8s/g2eoxX32XwhTxqnPZbn5dU55I4n/AIJdfFXxd8ZPgBrnijxhqkN9qa65PopeKGNfMtPs1tL5RCJGoyzv8wBYZ69hwvgj4ifETT/2u9N0zVPiHN4i0261y/tbvQZPD1nZW1iqW91IDFeR7ppvKeJAu6OPzAMsU5U6118B/GWn+CdB0XQ7b4neF5NL8V2/iK6lsf7HtzqlvHHseydV1hCY5PlJJ3L8oG0445P9kP8AYJ8Rfs+fHTw/4muh4/Z7VZYdSudQ03S7WLUxJC6EzyxatPIR5pSXmN8tGp64YfUSqYCHPJyXvbI540Zo9I/4Kbf8ib8J/wDspuj/APoFzXyn+0d/ykv+DP8A1+aJ/wCnWSvqb/gpneb/AAf8I8KrL/wtHRQ+GwVUpdZYbsZI9O/tXyz+0oR/w80+DflLM0K3mh4kdQuf+JpJk4BP+RWdK3sNAjufp9bP5Cbuu7inFN7Fv71EK/ZWIdlf0KhmH8s/pj9MjDLbuzdtyjH5kD8v8M/BYneXqdtMalpHdXsLHPnsCYz2UZbOfx3du9OmXfdFW/1qoHY9im4YH13YNMmRpGyJtkbclMnDe5H5flS7SBtVl29QM8A+v5cVzDHO3FN24jalRNvVhSsd42jbz70Afg5/wdAnP7fXhD/sn9l/6cdSr9H/APggqm//AIJO/Cn/ALi//p4vq/N//g6AVk/b78I7v+hAs/8A046lX6Sf8EDyx/4JO/Cn5Rj/AIm+Dnr/AMTi+rycP/vs/T/I0l8J9fWeWlkEfyyBULk9CCPl/If5NCf6/wB8Nj/vog/+PZP405BtGGBZewboPU/j1puQr7t3bGB+n6cfhXrGZJSOgYc/w80E4Xd/DTXO5cjoKAD5ZxjGNvFKt8JD5e0+mc0qKJ1+Xgr1pDeIRt8vDdMigBp6070prEL944zzTWIY53BfT3oAkfpTF/ip4k+n50hbKEfKue+aAF/5Z1Ek3lDB5p6fL3U/jSgEj5QrN+P9AaAGGXNOEiqMke9Sh1QfN/h+pwD+BNIHVWyR3zigD48/4L2xqf8Agk58Vm7/APEo/wDTxY15B/wa8oD+wJ4wP/VQLwf+U7Ta9d/4L3J/xqg+K7dP+QRx/wBxixrx7/g2BjMn7Ani75tv/FwL3/03abXny/3xf4f1ZX2T9JHg+0jHSmCLyHK9cUrfNFtzjpzTVyq7euO/rXoEjj900Lx1pCuTn07UrwSbf4f++qAEf26U/ZTYFLJlvl59aco2ruY4PpVRdgArSs2IulKsu5G+Vh9BTDMuMfN+IxVcwCeYpTkHrTS0e77rU5ZlH8KmnlFduwwAelBPc8p/breP/hkPxXtVs5tP/S2Cvlb4IN/xnt4b/wB+H/0gFfVH7d8e79kLxbt+8DZgf+BkFfKvwPQf8N7eG8tj54eP+4eK83i7/cKXr+h9rwP/AB6novzP0XT5ouf71LL8rUQnbHn0POaVopJ9zLG20cEkEY+vHH44/Lmvg47Hv1/jY1juxTx90UIuzIfKt6EU0q2446djVGI5Yt6bvWl8vaKR5NlN3eZ90mgdmOzzTgu3mo9jBxu/OpM5O39aA5WNY5NFDnY+3r+FJ5ij72R+FStx7IUSfZOIfk3fM3fJqWzs7qd/s9vJGr92bjPf0PvXG/Ez4zeF/hG1n/wketWmjnUd5tluj5bShNu4qO6/OOa477RfftNabfS6R4hs/DtjblPIk0vV49Qvky2GW5hhdRbuDGV2iR85fkbTnSIvapHsz6e0E2JkjZ0+8yueT69KaJGM4jT93kZz1r5z8N/B7V/h14yv9Rm+Mt1rDaLDJdy6fqN29taqAAQsz+fIYlGVUsYmAz0xzXRaZ+2J4b8JJH/wleveB44ZpCqz2HimG+RDtJAbzFiI+6w4B6r6nEmftEeyUUW/+kIHV4pIy4TdE4fBJA/TIp0kLRzldrbQT83/ANagsQS/aWJ6Y4pJrho7hUX7vAqSSVSflHy+vrTo51ji2eWG/wBv0oAhfn7tKrbYz/epI5RBIfvNn2pxZZZA+SuP4cdaABGZzgmlaLYuaaW3nb096AhDfeJ4oNBKduwlJ8o/i/SmPG0uO239aUtjOpFNajeprif2h4li8E2soX959tRM57eXIa7tVI/hH51wH7R8Tf8ACB2rbiv+noMD/rnJXPX1Vj2MslOnU5qZ8faZ4GS90S2vLi7ZvMiSXaIem4D/AGh60+7+Fum61prwTM7W95+5mXaRlWBU9H9M9CK6bwrP/wAUdZRqNrLawpuH+6P8KvrJJHZsrTSeXPG8JOT+63fx474x0469RW+HwiceY8HOOKsdCrKk9tO3+R8reOP2X/Cvgj9uD9mzVNMs/wDSn+LnhW2kZ5ZhmI3u4jBkYZyo7fjX9Hr6VDaD92mzd15JzX4o/s+/DOT4tf8ABR34c+H7O8N5J4Tj07xfM0kW7MFvqyIz7S3ykF8bsnGK/bO1tuG3ZHTtXscqhCyPh8ZiqmJnzzHQMqxYwelXKhSBUTHX8KmrOOxzxulZhRRRVFBX4l/EYbv+C5Vr/wBfuu/+harX7aV+JvxECp/wXItc9WvtdPX/AGtVrPFf7tP5fqfW8Hf74/8AD+qPstGxexD/AHP5Cre7csf+4KqrGPt0X/AO/sKsMRsj2/3BXl0fhPdqvUbL98VMz7XX34qE805Tu6846VoYjrh1jIoMkkZ3/uy0f3F3D588ctnC/j1oYbuvP1qEy/My44zzxQC1Hbtw8sKWRvmLZwcjnG3r2HPQZ9qaV/vfL/SnPLsOQOcdcUMd34gUFco1Z2B+78vY0bQf4qJOHqYRx/7P50AlYh2+9PKhznJBflgFztxwMeufUdKf5cf+z+dRg4/CgocJm/ur8nyr84+Yep9Og4PPPsaV/u0zH68n3qQciolo7k2dyPOOvShYxJ3qG5l8pCzMFAPU9Kspe24bascjkIhJTlSSoPrTlqgp6zseFf8ABSeRbX9jLxkxwcfYeCwX/l+t+9eS/Dbx7B8F/jtp+salZai1nLoN/Z74raa4VXe4sXUHyo2wSI36jtUP7duu+OviH8Ub74cR6lbxaBf6FFqE1tc2qJC+y+YKxkEZfOUTvg49zmTSrO6YqmpXlrdn52Rlb7v3OM4FccaNSpK8Uj6CtmVLL6fLU1urnu2n/tt+A9NL/v8AxFHKGAlVvDGqyBccjlbYDoc1IP26/A94jLcX2sr3iCeFNW+Z+wP7g8GvDRbsJJGbDKx7dzjnP4Y/Kk+yJkfuxwcjjoa9Si8RTXuux8rU4iwVRuMqb+89tg/bj8EXOoveSTeILe8nXY//ABS+qyRjoBjFv7D+L1qO8/bU8BampaW58QfvHD/L4b1NMEketsfpj3rxdotq8K34VH9nUj/V+h6VvWrYytHlczT+2ctg7xpO/qdt+0B+1roPin4O+KfDfh9NYur7W9GvdPgjm8P6ijSSywMiKpaFF5Z8ZJwOM4rgvhr8Z9J+CH7Q+n+JNattbh05/Dt/poltdJvNTXzZLmxkVT9mhcqSsLn5hg4PPrOYAZVfyzvjOVbHKn1BpHtlkXa0e5c5wVr1Mkrywlf21TX/AIY83PM8WLw6o0o2t/mj1GL9vjwJY6Usf/FYNiTnPgjXEOce9pT9O/bz+HkcnmCTxqrYHy/8IHr0g79xZ4ry825uR8248/xE05LVoxhSyj2Y19e+IMLzc3I7vfVHxXsZ3u2eh3P7dnw71KVbqSTxsJo/lVV8C66FIHPJ+x+p9at3/wC334G1OyaOVvFxjxuITwNrin/vo2pH44ry82/lR7cHHXFNjjZjt+bGMYqZZ5g5ayhLTzRLpzOe/bJ+Nuh/tB6b8OdN8K2Pi66uNH8eaXq959o8L6naJDbxCZWcvPbxrgGRcnJx1xjmvC/2h9SB/wCCkvwYj2qoa70QfNIFbnVZP4TzX0weWEiSxqq8NhscH/8AVXg37Q37Oni74g/H7w1428MX+h258Ow2rwzXO6SaGaC5kmDD904OCykAnr2xXvZbxBRrQ9naxh7GSZ+kscsiNuaPay8BXby8g9fvdOg475z2pr26SfK0jqi8qwiZtxPXgdMYHPfPtXiP/BOr4veJfj7+xl4N8W+L9TXW/EGrfbftd4IIoRN5d9cRJ8kaqgxGirwo6ZOSSa9wWViPl3fhXkYum1OSXc3hdfENaNZP4hSrCF6sKci4QfKo4/u0hKjn72OcDvXEMbIQo+8KbGfm45PpTWRmZg21jKcxFRxCO4f3I45zzVhjGWDQwzQ44IkHLHsRyeBg5+ooA/B3/g6GBH7ffg/P/RPrI/8AlR1Kv0g/4IJhh/wSa+E+Fzn+1/8A0831fm//AMHQzM37fnhDd/0T+y/9OOpV+j//AAQSYf8ADpv4U5bH/IX43f8AUYvq8nD/AO+z9P8AI0l8J9hNLv7YpnkruyWpzmiPAb5v1r1jMASflP8Aq/71AXqF5XuaJBu/3fSkCs6lVYK3qTgfjQAkcnlORH8xzz7UNAqfNu59KcGUAoq7JGAUSEfKGH3mJ9D0H49KRrdov3p+512k5PPtQA3y/N+98o7UjRbz14Xge9TKPNXP6GmFAW+nvVONgGqoU/epSFf+IUQIplb/ABp0dsJZmwpYZHyr1bjoP5/QGs1LWwDPKH94U+NpIf8AUqsrehYLx9aHsyu4bljz03H/AFf+96en1IpBE1uMYZc885qgFk2T4WV/LEfClRuLfUDlfoaDzy3ynrj0p6BTztXc3JOOtMxul+8u3I+Qn5mHoB+lAHx9/wAF7XVv+CTnxWwf+gR/6eLGvHv+DXz/AJME8X/9lAvP/Tdptewf8F77fb/wSf8AiswaNQo0gbT1k/4nFj8y+qn1ryD/AINe1z+wJ4v/AOygXv8A6btNrz5f74v8P6sr7J+j9OCZXNIDjrTlO7vgfWvQJGONoP0p4nyD92kdcnb1zxRsUdqACZ44Ij+8XhSeaa6MW5XvTZEU/eVW+ozTwWbu350AKZY4vl3ct0rx340ftWD4R/tZfBf4XnQft/8Awt7+3P8AiZ/bvJ/sn+zbNLr/AFXlt53m79v302Yz83Su+0v4n6Zqvxg1zwWtvdDVvD+j6drc8zov2dob2e+hiVG3bi4bT5iwKgANHgsSwX5g/bTIb/grF+xhj/qeP/TPDWNWbUbx7pfikxn184jX7r7m9KkVvmP+6K5q/wDiho+jfFvQ/Bd1b3z6p4g0fUdbt5YwogSKxmsYZVdtwYOW1CEqApBCyZKkKG6K9ljt4X2pJI1wNsGz5jHhQBu/E+9deHg6lRQInor9zy79umTH7Ini313WnH/b5b18qfBCNv8Ahvfw2SON8P8A6bxVz9r7xt8XviT8ZPGngHRNcjt/CNvPaW8lrc2Me1ZBaWt2f3ohaQfM6n73XjGKq+I/h54n8B+Np/GGk6hp9ve6PbiWO5XMhQx24RiAyFT0Yc8VxcaU1DDUqKfn+Fj67gutGGIkp6XsvxP0UUedbssfzHPI9qtm9ZIbhFZXE2c/uz8/ygcHPy9Mc59ehrlPhbqGqX+hTSale2t1N57IphVVIXav91R3z+ddIDivzunK6Prsdh/Z1LXC4Zp5NzctjHC7aevyotIH9aaRuPetDj5SNgzuePl9afGqp0b5qUjDe3pQgAbtQUOxvTceNvFIRtXdQ7c7aVV29elADAyt8xbFDosg+VqVwrHhRj6UBdvQUcruZy2PL/jX+yP4d/bJ8ew2PiTWtU0NPCOl28lq1giubj7TJOr79ytjb9mTGMfeNeE/8EwfGo1bUfF1nY2d/Ym607QtSlXUbSaF5rm7tZbq4EAkSPzIVmkk2Om9Wi8tg7hg7ewftLfE3xD8IfGFjqGg6f4kvv7YsVtpzo9j9qKeQ7svmDov+vbHc/NnoK8//Y08IeJvEHjuPWtQ0u80PT/Dem6fZPv086aupbbE2wMHloqzRKYwV3EBEZNoGdtXKLjFS7nLLmexyvwu8Uax8XP+Cgnxg+FXiRrOLS30G6YXmn2EsNwqSPZtEnzySLuCyqhbGGYbtqg7Bm/Hb/gnV4I1fx74T8AaT4i16TxBql22oalBLPbtNY6Utrd4uhH5anabuOCHcSRmXGM8jt/BX7P3ivwt+3v8UviJZq8Nvr2gS2mnyN5zyNMosymAyFD80BPykkgdDkin6r4f8TfDv4rap8YPFC317rcPhlPC9lHbxuL2ZWv459kVuVSJ8AzMWA37Vf8AhXiYr3bsmndnsH7K3xXuvip8N77Ury1t7MWuptCBGThsJE3f/er024ufOj8xNrbgD1riP2fPhQvwl8EXWlSRQql1fm5ZVkeRQNkak5fkfc7ccV2t4qxRsLcDaOAF+bvSlpG61O2KGFlT5c9KDIsfyk0Mods7f0oESlfmUE+9AhywpJzupDtRtobJpB8tAUFufzoDRbgn+s/CnO+xqbIu1cr1rzX9rXxHfeF/2evEWoWF5cafdWotilxDIYpI911CpwwwRkMR16E1nOfLG6OrBU1iKypRe/U9KKeZ0p4zj+dfnh4U8Y+P/Fs80sfjbxN5agNj+3LtR83I+62O1bE1n8Qknbb448TfMc8eIr//AOKrnVactont4nJ8LRtGpWSbPvfDelcF+0fn/hX9rn/oIJ/6Lkr5H+x/ETb/AMjx4m/8KG//APiqq6h4c8davCFvvFniK9hVshJddvpFDeuC2M4J5681jJ1pO3KPkweHi6ntl6HReE/+RZtP+uEX/oNaci77NV/vAj8araXpf9k6RHD3VEQDcWxgY71ZRW2w7um8HFe5hYzVOzPyrNsVGrXco6o3f+CWNv8A2l/wWg1azbKrZ/BaaVSOpk/t22IU/g1fsKhU/dbdX5Gf8Ekbf7Z/wWL8cXyqNtt8MJLEPj7rG/06XaD/AMCzjrzX65wRgbvlxXVLVWPK9BcZqSjGKKFoAUUUUAFfiV8SCo/4Lj2zMfu32ujk9Pm1Wv21r8R/idtP/BbuLK/8v+ud/wDb1Ss8V/u0/l+p9dwb/vkv8P6o+0k8w3UbeW21duWxwMYzVjZmNNo/hGfrViLZ/ZzcN0b+tVw+BhWZfbANeXR+E9qr8Q0qR2p0Y4NOVGk/iz9RiiVGgHzMAG7KOv51oZhuFVy7LK37vv6VNHH5p+X/AMepGBViD1zzigqIyWU4/wBX+lOzlR9BRTgm4UFEcg3Occ04ld3+r/WgnyjxRuBXdls9aBN2Dg/8s2/M0Hg0eftH3m/Kld488+YW9eKBcwhO3rxTweKikmQD95vI7YApx61ppy6k83vEbwGc7fK87J+4VJz+VOuM2ipsj2ZGDtX0A45B6dKsaeGN2u12jbnDAA4/Oq99fLB/rPMkzJIM8DkMQe3euWN5KyNozjCd2fHP7TfiGw0n9snzNS1a1s408LfZUnu7lUjlxfSED5iFJOCce2e1ZK/ErwfIw/4qrwyG55+3wgL09HHX+lfTPxS/Yv8Ah/8AGjxRHq3iLQftt8kIgjcahcxKqBncZVHXJy7d+/tXKTf8Ey/g1aQlW8IsWJBDLq97054wZax/fw0ge5Wo4DEctXEatLax538Efgx4q+NPwt0vxJ/wk2j6bJqDzK9n/YMsvklJGQfMLpT8wUHBFdXH+yJ4pkz/AMVrovHU/wDCOTf/ACbXuPw/8CaT8N/Clvpei27Wthbb5FjLs7KzMzE7mYnn36VtPb7Cq4jXfx8oOD9ck/pitOTEy6mU6mVw91YePrY+ev8AhjvxQOnjjQ93cf8ACNTcf+TtJ/wx/wCKv+h50L/wmpf/AJNr6EgjMg8xT94cluWx+GB+lNDxk42tjvz2qfY4hfbZEamWW/gL7j59T9j/AMUPn/iutB4/6lqX/wCTacv7HnihunjrQT9PDUv/AMm19CRwROD5YZSPv5PX0ojt1/5Z5X1zVRpYj+d/eTKtli/5cL7j57H7Hnig/wDM9aH+HhuUf+3tL/wx34o/6HrRf/Ccm/8Ak2voMxrGe/vSce9J0sR/O/vCNTLHr9Xj9x89SfsfeJ0bnxxopX38OTf/ACbTbv8AZB8T28DMvjbRBjv/AMI5N/8AJtfQzxo8fzbqa9r9oj8uQ/u2GCB1xS9liP5395tGplV7PDx+4/Nn9mj9pCb4tvrcPiCbw7pd1bLCthBH+5e9d/MBAV3O8gqgwB/H7iu/1/4leGvCd9a2PiDxNo/h28njDi2uNQhs2ljLsokCOQSCQVz0O0jtXQ/tafsafD39nLSvBeteE/DsOj6lc+KbO0lmF9d3W6EiRyu2WUqDuRDn296+T/2s/Cel/Ef9vf4UaRq1ut3p+rf2VYXcfzxtLDJqcyOoZZAVyrEZHIzX3XBOD9tVaqPZN/kfK8ZZfQspYSKjttofZH/BIUsP+CdXw7WTbG3/ABMuAu3/AJid32r6Xx5SjDda5r4UfBjw/wDAr4caZ4U8M2P9m6JpPm/ZrYTyT+X5kryv88jM5y7seScZwOMCulkiDBa+qzKunVlTifAU5NU+Wrqxm5jgbuvQYoyEf5l9/SnckM3y/Jx0+b8Ocd+4Pf2wCPzl3f3jt56+v0x+Gc98cV5traCGsdsihQuJDk7c/wDj3P8ALH9KmV/P+be6svTeQev0A/zjp3asCxijYAe9AHwf/wAFRv8AgiT/AMPJPj7pPjr/AIWd/wAIb/ZPh+HQvsX/AAjv9o+b5dzcz+b5n2qLGftG3btONmcnOB5j4E/4IIfF74U+FLXQPC/7ZnxI8OaFYb/s2naVp17Z2lvvdpH2RR6oEXc7MxwBlmJPJNfp6/3aZWMsDRlLna1fm/8AMrmZ+b4/4Ip/H0tj/huz4wbu48vUf/lrUi/8ETPj8xx/w3Z8YM+nlaj/APLWv0cWPzJ22/eUKx7dRkeufyGPfrUkMnz7uQSCOB6Ej+YP/wBboE8DSS2f3v8AzDmZ+bj/APBFD4/q23/hur4wn28vUf8A5a0o/wCCJvx//wCj6vjDz28rUf8A5a1+kGSLjdubr6CgyMZcq3r1FR9Tpdn97/zDmZ+bv/DlP4/M+1v26/jB1KnMeo9B0/5itE3/AARV/aASHc37dXxixxwY9S/+WtfpH5atyc7qSQtIu12yvtR9Tpdn97/zDmZ+b0f/AARS+Phjyf27fjAvt5eo/wDy1pB/wRS+PhVt37d3xeU9gY9R+b/yq1+kART97PHTFBhjYjcGyPu+wqvqdHz+9/5hzM/N/wD4cofH5Vz/AMN2fGBfby9R/wDlrTk/4IqftAQqJF/bs+MSNngiPUhjr/1Ff85r9IJCo+9z9KYhaZtrEbe2O1T9Spdn97/zDmZ+cB/4Ip/H6YOW/bs+MLbuuY9RO7n/ALCv40H/AIIrftASnn9uz4xM3p5epE4/8GtfpF/qTtFJOVtB5n7zP3flIB/UH09PTp3PqdLs/vf+YczPzeT/AIIqfH5/+b7PjBx/0z1H/wCWtPj/AOCJfx8kVZP+G7fi+G6j91qOR/5Va/R+RI7fBbzBv5/dkD88g/0qRVXb/u5H5cUfU6XZ/e/8w5mfmL8Qv+CBXxc+KvhK40HxT+2l8R/E2h3yxi407VdOvby0nCOsiB4pNUZG2uqsMjhlBHIFZ/ws/wCDe74ofBHw9NpXgv8AbA8e+D9LuLg3ctlomkXen28szKqGVo4dTVS5VEUsRkhFGcAV+oUp5qVPuL9KX1Gje9vxf+YczPze/wCHJ3x+I/5Ps+MH/fvUf/lrRF/wRO+Psjsv/DdnxgG3/pnqP/y1r9IqCvlDcMfPT+p0uz+9/wCYczPzdb/gid8f0lAX9uv4wn1Ii1Hj/wAqtNP/AARS+PzD5f27PjA+OuI9R4/8qtfpF5jAMd7fQAU57ZrVlUMq+Zx8gwD9c59exFH1Ol2f3v8AzDmZ+bcn/BFH4/KP+T6/jA2RwPL1Hn/yq04/8EUPj8p+X9uz4wH6R6j/APLWv0jaMxhi2xvL/wBk59eOf555/KomZ4u68UfU6XZ/e/8AMlyaPyi0D/gkT8br/wDab8YeHU/bM+Klvquk+F9D1K41lY7/AO0ahDc3esRxWr/8TMNsga0mdcuwzeSYVTuL8F8ff+CX/wAXvBH7bf7Pvg/Uv2r/AIka9rnjv/hI/wCyPElyl79r8K/ZLCOabyN2oM/+kowifZJH8qjO8fLX6deC1Lft8fE0t0X4feEsj1H9o+Jq8e/bOZT/AMFXf2Lfl+X/AIrfjP8A1B4a554WmoXXddX/ADW7j53c+ZtY/wCCQHxsj/ag8I+Gpf2zvinPqeqeFtc1O21p478z2ENtd6PHLap/xM92ydruF2w6jNnHlWO0p3Df8EVfj8lzt/4bq+MHlx8+Z5eo7V5IP/MV7Yr7A8dXP2f9vb4YtGGX/i3/AItHB/6iPhn1Br2i0sjfWNwy7Gjii3SLJnLFtzHBB4zn0PPtwO3CYGk6j5729X2XmRKo7H4n+Nv2AvHXgr44+MtB179tjxZpupaXqEEb31/eXEE+rB9PtJVuCH1IMQBJ5AO5v+PfGRjav3B468XaGng/WNPm1zS4p5LCYLFLdx+ZJuiJXjIJ3ggjHXcMZzXS/t9fsW/DPxD8NPFHxDv/AAzLL4ymW02Xq6tcrGiiaG3wYg2wnywRnA6g9RmvFvAXw+0n4qftg6D4b1q187T9SW2jmWOV42KrYowAIORjaKw4qwuHhhYyw6d9d23082z7LgvArGYiTlpy2f4n3x8GZi+iXCGMlvPZt/PTanFdlnFU9E02w0aBl0+1+yxsxLAyNJk8dyfYflVzy99fneGjNR98+rxlTnqABuNOztHFDLtFNroOQcp3LlqaeW4oC7qVlEQ3CgBVUYy33h0FN3l+MUgfzTn04pynBoATbtFAbc+0fexnHfFEpkltJPK8syKwC+ZnA6en4/nVe+W6t4I57dbXzsCNzJu9ycY7Z6cZ969DL8P9brqlDc58S+SPMZ3iTxFBZ+Vt0+PVGy0bKm1vJK465VsE59vu1nan4H1TwbZsmh+ILi1s7F2VrS6tluoUBbCoGJEoVMkANI2AFAwBivyb+L3/AAWE+IvwzfTLXw3rV9quvPEw8TDXNOsVsob1cB/sBt4kkMBfzcefl9oj6HdX2V+0b8cfi7oX7cHgfwJ/wlukaN4U8cXGru8Wl6RHLdCO2tFuITLLcBwzlmViI1jClnXMgCmvvsRwLVj8VtNdzyY5i07H0pDovi6a8BuPEGmeTNEjLLYaM0NwNwUhVaSaWPcB8pPlnJBOBUkPw5tZvEUN5r2pavrV0sZigs9Tli8mPqfNEKxqu7Bdd4XdhiN2PlrQitdQb4YWlvDrDRat/Z4jh1N7JJDFOISFuGh3BHIYBigKqT6D5a+Rf2j/AIh/FTwf8Y9B8J6P8Vr7UPHfiC0B02S58M6fZ6HbxKLiV2mULNcPJst5lAR1XLxkj5W3eRgeG6lbmk1om1v2Or6wtz7cYfaI5R80fAHueuaZASbuO3VPKjZfmlPOCAf54H507Y39/wDSjY39/wDSvlsRBYfFOn0OqjeWwxI8D+KkdmV8bfl9cVJsb+/+lI0bFT8/6VxS3OjlGhVNNkIVeBub0zSFtg4pFPz7vT0pWvoOyW4RlnPKMteW/tvWrXP7LPiqJAZJJBaAIBlj/pkB4A57V6r9o46t+QrM8WeDdP8AiD4dutM1SP7RY3AUyxksu7a6sMFWUj5gO/rWdWLjC6N8LVcaqaVkfn38F/F3h/So7y1v9e0ewmjSJWSe8SN1ZdwZSGYHIJ5Hau4l+JXhC3udreLvDpaQhVB1OLLHpx89e3Xf/BOn4N3uo3F23hKaa7uJGkmd9WvEDMxJYgCTufyqGT/gml8FrrUoVPhO4aaN12OdXvMRsccgCXnnsfSuejiJpe7FHbjspy3GNSxFR3+f6HjEnxS8Kxsq/wDCVeHcucKP7Ri+Y+3z1qz3zWmVeQLHnqTgbvT616pe/wDBMv4O36z2qeGZra+t1wk6apdstu7DKuqtL82ODhuCRjpXzvpfj0apda9oOor52reGdZuNKuZ4ovLivGgIjeYHedu5iTs24A/i7V0UcZUvaR4uNyWhKlz4KTlbe9/1O6uLd7RY2nDQrKu6MuNocccjPXqOnqKj85RJD8y+W8gRTngk9h79a4/9pb47ab+zx8Pf+El8VNq2paLayLbRx2NtE91aB2UKqBnjVxwoJY5wuRySK8L8Mf8ABTrw/wDFfx14N8K+BfCerapqnizxHYeHtPOv3SaVb293dymKCaR4PtLbEkzuAQnac4YjbXsQjUceZvQ+ClZXSR+j/wDwRy+Gtv8A8NO/Fjxc0ExvIJjoomKfIsX2LRp9memdxJx71+lEIIznNfnF/wAEnvHGsfBn9p34l/Bbxxpunw/EbWJh46+06NqD6ho0GmG00jTlgEskNtM05lhaQ5h2hWwGJ4r9FNN1JrzfuTbtx/Fn+goMy5RSK26loAKKKKACvxJ+J6b/APgt/Cv3f9O1zp0+9qlfttX4j/E3j/guJCv96+1w/wDj2qVniv8Adp/L9T63g7/fJf4f1R9wK6x2Tr87YDDIHXrVd0VV+9lv7oPzflVxG8i0ZT/Du/mapHlSq7t7HcCfu4ry6Pwnt1PiBTx954/YjrSqzzKfMWZfQuu38utOtx5YZW5LcAr0FNW2ktPvtG27psOa0FyoEHlH5Wb8RSBzI/3WLN0GOX+gpcZoWFfJljZsQzYMrZ+5g5HPQc+tA7DvLbG7GV6bh93Ppn1/xpuSKLoLPP5jNtnCFAmeqnOTjr0J/KkQbUUegxQAudx5o6duKKKCZBhf7tEyosnzblYdR/d9M+maKmWVsxqq5EYIjOPvAkFvrggdPWi5JA9p5w+ZXXPK8feHqPb/ABFL95v60TafHtbbJnzG3yc/cbnA9up6+lOaXavl9+lG6sCjrcbukjP7tlV+gY9BTpkWWNI2W3cJlt/RmZuWyOe+cc9Kb5O6Pb/eGKQWO0fe/WpjHl2FOLlqPklklLfvCq7do2Hkc5z/AEp3nM8x+bcmB9885qNosDrzQkdUaxlLuCReWFwfu9v4Tz3Helji8tW5m+YdXk3EfQ4GD+dLswQf7vNNuJvtKbVo97ox3vuOM++Rtq7cjnA2oB7Dmm+TGoPzPnp0qTfthVfQ1H1NGvVkc1tEECmEttbdu67u30pyu0H3cNn1pAdtBO40+ZkvUQtk80oX5c/oaciYG4/Sk2/aJN/YUtSlawxR5nPzKvv1pfMZ/lwFHr3p80nmSjHTFJJ92gaT5kfPH/BQySR/AHgLzJGk/wCK603q38Pl3OR+PH5V8OftKRFv+CnnwN8v91D9r0LcgP3v+JxLn2r7g/4KEw7PAfgP/seNO/8ARdxXxJ+0Y+P+CmvwO/6/ND/9O8tfYcHXVeVnbR/mjDimbhhozW9/8z9RbOOVYArSeYV/icnJqaNGRMMVJ+tAK7N2fvUMVAHPWvexOlRs/MoJp33GLDllbc2V4xu+U/Ud/rkdvTlQ+6TOQOOg4X8B6+/px700Srt6/rTfKGc7v1rE1JJJWYcU23DvKAzRqPUnFFGWH3V3N2GKAHSuEl8skb2+6P7w9R6j3pJh5G3cy/N79Pb+X5ilSBlsZY15jlbfI39x+OM9ug4PrRYQsgbb82AFHuuSc/mWH4VXOwARmVQysqr14O1iPQ/ToB2FO2HbkY25/H/Pf6kmmtbGW4aQfdJzS3EnRR2o5mA1+B/FmkClRwGZj0C8k09PuVFPGs6MkjbY2+82cY5/xqQHZ4yZNqjhiTwh9D6GnK6uwU53E4wPvA/T+dOiaSN4WRd0kKBIhj764wD78Z5FNgna2VVUAxKNobHUdBzQBJDbq7SBpFXy/eiO3807lWRlzgOq5VcHHzHt/hTYBHFMzMxzKcgAj/Peql/pmmX140lw16t5GcQohQK3dcg8nknpQA+BjfSOCyxhTwWOA30qZnyi7F/eBSVXHzPyBgDuec/QGsa+8e6KZh/amrabZzR5UBrlIxnjcPmOcggfrWlZaoNcX93NazRyOJo3hfcHdAycHnKgO+cc52+9EtFoBOwdY1YxSNMxwIVXMmMZ3bfTtn1qRtsTDc0cnHHy+Yv5ZHP8ufXiNYLe1EqzO22YYkZSMLyDjJ6HIHXtT3Mhb94u1sdMYrNSYDYpvLztCt/11TzPy5GKUAxrtU7gB1bkn6/402TrRGcpWgAY80eai/eZUHQFjgH/AD/WnU+PUJrVyYY/MZlCsNpOAM4PHrk/lQAw/KPm+X68fj/L8xTD+9PD5HYDv64/z3FJbxYb92d2DuH1wQB+RY/hTpbb7a7CT5duA3bGMkfnub8qAAJkdMKOCzdM+n174oib7OrbWaTcP+Wx8wj/AHTxt/Xt6U10VCqKdzqnlgeqEkk/mSM0ix+TQAkkX2h1ZpJk28YEmFP+8MfN+nGB709mJHIX6Ux4vP5/CkVGDeZj3oArW2hWEGtXmrR2NjFql5bRWlzeCFVubiCFpXiiZ8bmRGnmKqThTNIQAWbNTWvh/oPibxLoevah4c0m+1zw0J/7I1G5sY5LzSxOgjmNvKyl4hKgCtsI3gYOQK1fssk86TqP9SQx49Oae22fPPyly5PoxxuH4YHHvRYXKVJNC0641211abTLJ9Ssreaztr6W2Vp4YZWiaaJHPzKjtBCXUHBMMZIJUYuC5ZCvlb1VjiTDYVhn0/i6ngkcYHvROnnIVX7527h6BRhfzBzThcBbUR91BFaQutRK2p5Z+3X5bfsieLGBcMDaAELwP9Mg6c8fTJ9e+K+UPgVvH7ffhdlZlKtB/Fnpp4r6q/bmmx+yB4sT1Np/6WQV8r/Ar/k/jwz/AL0X/pvFcvFVTlwFO3Vv8j7jgi/t6ii7aL8z9FYbZIV2x7mXOcsec+mP/r1MhyvFMi/1Zp0P3K/Oqasj3qvxDQHf7qs/soyaQuqn5mWP/eOM+v5U2eKOdNkzeXHnOc45/H6mrNreSWY/0ePzMqqn5S2ABhTx6jmrMyHfsbHRu4PanZ3jnbiohFnG3lVACn1A4Bp3l4WgnmHgKg/Wm5zTRHlTSLDg0C5mPRZo28yOMSRrw4OeT7DHPauT+KXjPSfD1nCuoeJrLQpJHDYluETrv+XY0ieh5z26enWCNRHIu2TcWznHy9qdLqNxHYxwxxeZsP8ACpY9T/jXoZXilhayqroc9eHOrM+EPC/7EPwN8Q6rdX3xA8WfDrUrg20Fvajw7aafYLlDK0ks5nknMkrl1yw2fc5ByMelXXg/wHr37Yth8WNY+KHhvUIdDVl0nQ5Ly3khtBJYizlJZpiCXwsh2KnzDnd1r6pDHc0jqytKd5GOmaaLfym8znmvsMVx17R3qJ/f/wAA876rFbI+e/HPxWufEs3jC0034sfDHR9F1nTJbLR0SIm80mZwiibzVvlU7f3hASNCNyjPBJ8S+DPwSuvh78dLLxx4g+Pnw58bXVlYyWEUOtWRvPs6tuxJEz6iTHINzLkfwSSDHzE193Mct91vypM/7LflRh+NKNOg6dKO/n/wDaOHTINK1OLWLaSSGZiIzggkZP0wanO5V3FpB+FFnaW+mwssLSOWOeSD/KrE8Xn2+GO3gV8PXxEa9R1Ed9GLitCuvzf8tGoZiDje2abLw1Oi4XNc5uCrgfN+lAClsCnNL/st+VMabP8ACfxFADnCov3aY3zRtyyA8fKeaeP9Wc0nl5X8aN1Zk8zQsO6JP3aRyMcZMh/+tTzt/fMqfvGHDbtu046jiiNgoqMNtdqUVGK0QuZ3ux0E5tHklyZZrjHmFunHA29+nrmvjX9uH9mXXvAGsL46+HqxXU2sXH2XUNJOmSXAknlaaeW8xAynJKxplgTzyxyK+yMU6DVZNIm8wKu1l25YcZ6/0rCrTXxI9LL6io3g1oz5xP8Awby+Bv2rvgVuuv2gPjFqjeKLCz1O3ml1G3udLtS7RzlltiHyGX5UAmG0H7z458x8Mf8ABLvR/gHr+ufB3T9AtL3xd8ARB8V/h740XQ0h1P4iXOnI11Jpl7KqGR4xd6nZwKLdpGCQLna4RT9Vf8EifGV5pPxN+JHw51S0Njb+Hlt7PR5ZImjl1C1tJJ4Wl3McSYzBlkQLmUcDcore/wCCvOs618JPFX7OPj7RbFL608N/Emx0rWZJoZJYNO0i6dLm7vZChURiH7An712EaB23A5BX1MLWbp8rZ8Bm2E+rVpQWz1PnXwt8SviR4Yu/DP7UcnhjStL+Img6hD8PPir4ZeC68nR9ASZtXuNVQ4SaOZbM2IBu9sQDZLBChr9ZtKvYpmkEUkMjKu4hAAcfma/NHV/F1j8aP+CgnxK0WHVNHXwB+0f8Jbm0tfECXK/Z59VuJodDFlbXILQtL5dkXEQEsm4OeQNiw/8ABvn+13r/AMePEHxU0zxXosWg6ha2+mXOnQizktWu4910sx2ySMz7GaAZUYHmDP3lroPHP1ESb5FOG+bsO31qaqsE2Bn/AJaMq7h6HFWqACiiigAr8S/iW5T/AILfw4/5/tc/9C1Sv20r8Svib/ynAh/6/tc/9C1Ss8V/u0/l+p9Xwh/vj9P1R9vIga1bP+1/M1DGP3JXnbnOCePyqeP/AI9G/wCBfzNVc8V5dH4T6Ca1uOzsJC/KD1xxmmxRou75UXjsAP8APGf1oAyak8sNIA3C9fryP5fe/wCA/jWhAiSRibJZRHt5JbjPbn86SRiX6nK/dPdfoe1SMiCZVW6WNdpJl3dDx8uc9+vX+GocbeMbcdvSgAj/AHIwuVXOcZ4z64pXOWz680lNLYNAAWOasbYwinjlDnnvjioSM04QJC0cmAw3DI9zRy3JlG42FWa9RWB8th6cE89/yo1jUrWwtLKS4nt4XjLnUDI6r5XIKeZn7vyBiM4yATXO/GzxrL4I8CajqFq227gWL7LGHAYkyqrlQQc/KwzweBXkfwS+Ivh+38XTWeuXlj4oeO0Z9O8eXGogadrT749yWcGWt4/LLLHIIHO97cFxu6Hs2YSlyntniD4zeB9QsY7XQvF/hm+1a2YLdW9rrENxNbgDDBkDkoA2AeBg4FXPOkMy7eYNgO4LkZ2+v1ryDTf23dFTxfqmk67qfh/TdJ02SSGHU7zUreK0Do+xItrKE3yLvZcsWCwvjILEcB8ZPiNqfwu1jVb3RvhJrenzafeKttq1qZ4YJ7hpVTKqsPl7ppW27Rnc0uPmJwajGwo1j6csJjNqVxGzZWMNgemGAq2yKD/9eq+l3U13pcM0jPNazRK9vKP9W+QCGUjggrnGOMHNTqBiqsbwqIa3FOiUfxUGNcc4poPnjB+6OamQ5SuG0SSHuFxjmnSHimkeV8o6UdTUk3BTvbaeg5o6GnMNnemgZNADWJZ/pUoAFIBtFfnv/wAHI/xn8Y/Av9hzwrq/gnxZ4m8HarceOrSzlvdD1OfT7iWFtP1F2iaSFlYoWRGKk4JRTjIFVGN3YxxFZUqbqPofoN1avG/+CdnP/BPv4E/9k90D/wBNtvXsUvJ/Cvzt/aq+IniH4T/8G3nhnxB4V1zWfDOvaf8AD3wX9l1LSr2Szu7bfJpcb7JYyrruR2U4IyrEHgmiKvoZ1qipvnfRN/kfooDjilQfNTEG07qkVfm3fjUnoU1qj55/4KJR+X4B8A4z/wAjzp3/AKLuK+H/ANolv+NmfwO/6/ND/wDTvLX3H/wUWZm+H/gHP/Q86d2/6Z3FfDX7RSA/8FM/gd/1+aH/AOneWvsODv48vR/mjn4ujbCR9f8AM/Uq1ZppmWT/AFaj5eMUT8SFV+6OlRLI0v7vny4+VqQv5fyjoK97FfGz81URpRfMxgYHAp6Kpdd33cjNMXhqeOvXb7+lYgSiNVLBuGY/ugf4h3x60+58kYaFkbscHdz2/r+VQxojRzFoxG642g8G69x6469+tEx2DP2r7UQOG3Z2cjjqevX/AIDQAogR5Fkb/WL0YnlfYeg9qS5QSkZ+b/P+fyojPmD5v1psshiOF6e1ADhIzYyaVvlT8aRlxQjNniTy/ek9gAspjUbh5gOWGeQvqR6YxzSQ+ashYh1XOYzjGRzyD+X508RbUWT7TiTdzHnmL/ppjP45/wBrrUYldJHPlsvzY8zH+vHPze/QHv1qLgOnHGAAQ3LDGQx9T6mpHVPlbClmddxIycEjdn8M81BLMycr1bk06dEjtZJOjIhdeerAZA/E4GO+cc07gLcx/aLv90N8MXG5OinJzyPbFePaNe+HfFup+LI/F2tJ9p/tm6srCxudZe3hu7VQsap9nEixzoZBKh3I24qyHOMDv/is/mfBbxZef2f9okh0G5kdlXm3IgkOcgfKevIx09q+HZvBPjvX/Bfxb/4Q2+uNC0e8gtnexi8PRaidWnk8MaW8sqSuu/Ls5jIXPzxsfvEiolID72bWrHwNtjnurPRbGUbdOVpFtYXhXoIhwCiqU+7wAV9RXn/7SXhz+xPAepeIvD9m8Xi6YxQ2t5Zxk3l1mSMPHlfmlHlIx2HcAIw2AUBHh37aHjDwr+zH8J9O8c+E/hzH4u17xlqkRktDfyX0l9BLDNPJeRiVJx5av5QLRoFzcx5YZUGC3/ZY0Hwt4Y8QfDDxhe2vi7QfCunrHa3V/EYY7ZLm7truQIDIxj3SiLOH5MY7HFZqdwPo79n/AMZX3jL4brIdQlvtUs4Y7OfypMzW98iwmaFgvKzKpfchwwGcgCu6uJIZ2BhaNl6EoQRn8K8G/Zg0e08GeNY9P0+O2sNF0rQFhsLCCNYo2iSSKOO5BHL5TCbzuJGPmNe9XCRxEeX/AOhFq0iBEFx60L5jXCna3kqRvOPlA75NNild87t340O7C6Rfs5ZOMz44h9TnHGOvUVsAF2y0f/LUn5Vx8xHsPzqaM2/myed5Pl7vk34x74z+H6Uw5+zNxu54tf8Anr74/Xp/DU9vBHLI++8WBVwFctjf146jp/7NQBDGGeX99u2/7Xp/hnb+OKJRh8R8Iv3dpx168/56U2Niz7WXyVz34x1+b8On/AvzJNqyMNwceuetADmX9339eT1Pr9feiNcmmgR9eN3bmmu++gCRlX/Jp0VsvkhiG3Y9T/KmRxrt+Yj8TViKAvENznkUAQBGY87tvfrj8akSRjJjc23pwccdhmnJGyIw3naetRocvt/hoAdK3O3J2Dkc9D/9f9ageQ428Yye1SuNj4HSoX6n6mtY7E9Tyv8AbmOP2RfFf1tP/SyCvln4Ff8AJ/Hhn/ei/wDTeK+pv25/+TRvFf1tP/SyCvln4Ff8n8eGf96L/wBN4rg4t/3Cl6/ofacES/2ip6L8z9F1J8vj1prs0Z+XOPpTkYrHx60ksjh+pr8/jsfRVPiZJC7R87mU+oODUcqh25VX7/Mob69acpMq/N2PGaa3yHiqMyTIMe4n5z15pg+Z/m6UoiVo95+9Qqhm2n7tBmNYBZVVfunrUjooPy/zpjjyp1VfusMnFPKqj7lX5qABCY/ulg3sadHKwdmbnJ/iGf501jk7u9IGL9amMbahzdBNq56L+VIEANL0orbmnYNAz7L+VGfZfyoopxrJxtyljomYjkt+BxSOdvT9eaWT5qEOK5owTdy+YaBigjn3ooY8VoY3ElaQActRFuYfNu/E0jMpXn+dSRIrwn/GgBCuWGKlU+XHxxzULSGA4XvRky896ACZFc8/zpY08w8jhelJ0okZiV2kgHrik9iZRuE5ZW+X+WaNVufsVqrL5ZLMMiRQ69DzhsjPvTZYzH91j+FTWNh9on8ll8z5fM5XPtTrR9w3qzu0kcyusyeGv2ofhHfLcfZVbVtR0u4uHbCm0k0m8mMTsf4WntbVuerRJX1H8XPDmm/GP9mnxloV5bw65pPijQb/AEq7tozvW/gmglikh+Tk7lJXjnn1r4t/bc8P33jb9mbW4NPNzFqiC2ltJbaIvNG/2mEMUC4OTGXBx2Jr0n/gjF401ab4OX3g3WL64mvfCHlvKbpts6rcXF1Kd6H5kyCuCScgAjArLBVPf5SOI8OquH9vH7KS/F/5nznrP7OXhf4f/wDBP3xt4as/Dy6Za/s9fEs+KvCOn7pV/wCERlt/D1vqSXgUtkIl1e3E2ZdyZnOeMAfUP7b/AIg074C/tV/s565oEmj+G5vEHiGTwbdXMccMcd5b395pjvafMNvmSG0UqQPMAifYQC+eJ+NHgfTdN/4LH+IrXWrhB4G+MPwfHhq9srmQxWGpald6ilpncW2zXDWsCxiJcOyLweK+Av8Agn94w8Qftb/skftEa18SrjU9W1j4H2en/E/wgupszS2upaZZaw8c8A+XDKzx5Yh1BZcqcivZPzuR+/EZjE67mUfN+7y2N3+Par1eM/sL/Ea5+Kn7FPwf8Uai32zUPEXhDStSu5XcOyzy2kUkuSABkOzA4A5B4HQezUGcZXCiiigoK/En4m5/4fhQ/wDX9rn/AKFqlfttX4m/Ek5/4LeR8r/x/wCud/8Aa1Ss8V/u0/l+p9Zwf/vj9P1R9tI5+yt/wLt7mq6fc/Gno0n2duvVv5mkYHb+NeXR+E+iqDc4p0vzDmm05zmtDEarbD8vH0ooziigmQU4IrDpTRzS7VHXrQSKsYAoVClwrZ4ALkZ64/8A10hZW60k0h8n5t0caowJcbQw2k5HqOBz7j1rSM7aB0PKPj7qP2P4x+ANTm3Np+nLqHnwKB+9LxKq/J91sHB+bp1HNfJH7Kvh1PD/AOzp+zR40lkuZpPFniW58LXdm91LLpyzXOrMIHhsHb7JbqEtJN7wRo7M+SHLua+5viX4Ctvil8MNU0mRLW489o/KeSTaqkSI7DevI4UdPb1rxn4LfAb4efCvwdpujfEDwzqVlPovmPFJLfXB0m0meVpVmg2TeRDKqnO9QkgJkKk/vDU8zb5Ejjnq7Ff4weEdB/a7+KbfDm60/wA3SPCbX1zqFpOxtbee8gmht4ZYzC24hFkugAdoxL0z07j9qr4WaZF8GPFHxKihkj1jQ7Ya3DcC7mEiXdmyyJJ5e7y2xLCrbWG1hwwIJFZXhf4V/AjwFresatouuWukza/P591JYeOLy0lvCWdw0hF0u8guxyc4Ln1NZ/xB+Hmh+Ov7U0nwpZ+NBca1cNe2LNf6nDoq3Msn2n7QyvILcoJWMp2qwcglA5ZQxKnUl7qGkoo9X+Aun6tD8DvB91eXcc+nyaFYtaxZy0WYIyuQR2TI6nr+NdV5meoH5CobOyutJSO1W5sTptqoitLSN0LWiqMINuMrtUbfbOO9WP3h7j9KKlGcp3UjrpNNAIw/XkehpY+uO3XFeH/t8ft++Df+CdHwe03xt4203xNqul6prMWhxRaHbwT3CzyQTzBmWaaJdm23cEhicleMZI+RF/4Om/2fVb/kT/jJ/wCCnTf/AJPp8spu6OSeMo058tSVmfpUx2tj+lOWLIr81R/wdOfs95OfBvxk9v8AiU6b/wDJ9NP/AAdN/s/Z/wCRP+Mn/gq03/5Pp+yn2F/aOG/nR+lRfdxRmvzWb/g6b/Z7I48G/GTP/YJ03/5PpP8AiKa/Z9/6E/4yf+CnTf8A5Po9lPsH9oYb+dH6VHmvzV/4Omzn/gn34P8A+yhWX/pt1Oj/AIimv2ff+hP+Mn/gp03/AOT6+RP+C0H/AAWg+F3/AAUX/Zc0HwT4J0Hx9peq6X4pt9cll1yxtILdoI7S8hZVaG5lbfuuEIBUDAbnOAap05KSbRx47HUJ0JRjJXsfvMJI7ZfMuFZoSdoCHDbuvt2r81P26lab/g2L0Ro8KkXw98EeaD1bM+k4x/kUyf8A4Om/gEI/3PhH4xJJnknSdN6f+B1fJH7R3/BaH4WfGL/gjnY/s92GgeP4fG1n4W8OaGL65srRdLE2ny2LzsJFuWl2MLZ9hMWSSuQuTghTknt1KxWOw8oSUZL4ZL5ux+8yRNu/eFW9h0pC+0/7OcYr81pv+Dpv9nvP7rwb8ZFX/sFab/8AJ9IP+Dpz9nsD/kTvjJ/4KdN/+T6n2U+x3xzLCp/Gj6j/AOCh0jN4C8A5Zj/xXOndT/0zuK+H/wBo8f8AGzT4H/8AX3of/p3lqT4sf8F6fhB+2V4m+G/gnwv4b+JNjq15430tkl1TT7KK3G53hGTHdyN96ZT93oD3wC39pBT/AMPNfgfwf+PvQ/8A07y19XwjFxryv2f6GHEmMo4jBp0Zc1mv1P1Et2LW6rS+XTIY5FTH3fYnkVMpkP3cn6V9HifjZ8FEfHZvKvnZXyYfklX+Jm6gj8CvcdD+KsucOnyxsdig/eD/AHifptBH1/Om79qMoVhNn5X7J0yCPrnsev5NjjYJlvnkyQWXuuOBj64OcdB17VndCHMiRknauSck4606RzMMsSxXoT2qNG2HD8+1O2MWX5SB3yKTasA3GTzUicDgfpTWX5S393gn0oVGYfKrEewrIBq/uRvmy0cnyoAeQV4bP1PT29KmitTL907dvXkjOfmH/jpA+oP1qGRFVgy/u/mOXP3WGeAPoOD/AF60XR4/dtt6fNuwvTkZ9zk/Q9ugAHiHE+3upznPeho9j+7dT61EN3l/eG7+9nj86cRuT72W9c0ABO3NNUF9+35fkYnHHG05/MUoGBzT2ibK+Wu2TcpVmX7pyMEf7Q6jHOcY5xRa+wFa806z8Saa1vJbRTQxwlLhZkDb0YYIHXqAfTtXjngr4JeFNU1rxToufFlmmo61LBdWtj4n1KysJxNFFtDQQ3CxkeU8aN8nIXHIAz7xBeWVlpuoNd291PJHEZHuBL8ls2G3SSlnGF4yd2cbWyB385u73wd8U9ZXZffD3xF5Mn9nXKSx2eoXIcN81uGKuyMAwATcpBbIA3ZPRTy+pUV4pv5MnmgupLN+yX8LdOv7HWrGz8cabqU1tJHPLZeNNZtQvmGJ2SJI7xViiLID5aBUG1AFwq45T9qz4LeB/Fnw9X7dpmqahbhvstgb3VLq4mMTvHJPHcO8xadTJBEyrKZApijK7dq46bw74x+Dq6lcaPH41lvdZ08GO7tYPiBcNJatGdkgaL7YGjw+BgqMEYwOlaMXg7wl8N0k1i8dobi1XMmo6vqc10bRWIT5ZLiRigbcqnZgH5Qei0f2fiYu3I/uZMpxtoc/+y78Krb4R+Do7i1t7WOzaFTahWaaaBGSILGGflYwo/1YbYDyBnmvRtKsmtAyyMGY85yT/Oua8OfF7wt491VodC8XeG9UmsyySW1rqMV1KjLwx2IWK43AHIBGcHGa6eZV4FvHKnqrSCRvrwzcVLoVaetWNmVF3RHcStvPzN1PentNCjLGyMbiYDyWH3UzwMjP97J6GpoY1deRzjmoVEn2lW8xVt9wLxkfM47447jjqP61jruwjuPhHmQG4OfsEZ2yRZ+Zj2x+Y79qRtyMRnleOKjlWTY3lttmz8kuflQehHX17HrTifmP8vSgoO2O1EDbJH3fMOwxnFKUYHGDn6U2dZCFCA5XrjtQAkn7xzwPypyEJnj9KaiS7MYbOMnjpUiIqnLY/OgAtoVcZZVbnuKHHy013808fKOnPy05zgUAN3YFNMnGPm2+lOByaCNn92gBsZIc88UknT86eWwM9vWmsC6/Lz9KpbEnln7chx+x94sP+1af+lkFfK3wKbd+3z4Z/wB+L/03ivqr9uP5f2P/ABZu/vWn/pZBXyr8DD/xn14a/wB+L/03ivP4u/3Cl6/ofZ8Er/aKnovzP0Yxsj/H1pynIpig+X689qcn3K+DjsfR1PiYpO4c80hfZ0x+VI7NxtNJuZfvfrVGYsabj5h707crS7ce/SkWNw+5gRH7inFgT8v50GYrALKsajHmDNDOoPlBcMeM4/r1oK4+b+JehHak2qfnG0ydRg80AKY/KXB5Yd85/Wmx/MTnn60KzO3z5z705wAKCxrdaKByKCdvWgY4rt/Ko3y3A60/PmD2oC+X83andgIOKDzQVIOMc+lGecd/SkA5xio2bZ83ZeSKdmnqUjdfM9sr6/hQZiblMYbB5pqXCj+9xTndd+QuF7DAppKsfu4XvxQA5/3wyvb1qIEiQL+PFPwVGY/xxRvL/wCs+6OaDQkiUSjHpUcsnlybF45weOtLLPHIoWINuXrgUr/uIo9o+Zh83FDE9h2wWx6flU1puF3+7ZlkKZ3AkHGemev4VWjbC/vfm/WmPM1pFuTduLfwjJxWu8bCn3G3EHG1SVKLhSCRt5HT04yKxv2PrSTwh+3l4oCNsTxdoa3VyI2J+0NaPYwoZM91W4cLjPDN0rZljaKKRtys2QRtbJ61yOu/E2H4S/H/AOFeq3Ek1qutaifCwlSMM0kl5dWbpGc/wsLZsnqNoxXB8M+Y7ZR9phpQND/guB8P/wC2fDfwB8UW628Ungn4y+HdalkLMszQ2qXszImBhySchXIUnrXTePP2eNG+H37YfhPR4dJ0iHTfGnw08YaPd2sKHyrppL3w6ieapHKhXlGRkgOcDk16h/wUH0oeL/8Agnh8Zkgtvtd4ngbXZbD93ukiuxp1yInTuGBIwR0r5L/4KTftiWvirxV+zJr3hTXZpPsnxz8M+H9UuLbZujs7555JI3weIX+xAuT/AM81r3qUuanc/MK1JxqO59Z/8E09Jj0D9lSPRVjjSPSPFvivSEWP7iQ23iTU7eKNT12JHGqKOyqBxX0bXw3/AME4fi7N4g/bb/ak8AtqErWXgfXtM1S1s22iGEawb7US8WOW87zBIc8Zbjg19yUlGxz03dBRRRTNAr8R/iV/ynCh/wCv/Xf/AELVK/bivxI+JaEf8Fv4W7C/1z/0LVKzxX+7T+X6n1nB/wDvj9P1R9up/wAerf8AAv5mo3BP8QHtUqD/AERj/vfzNQuPmz7V5dH4T6KoJ9zr830pc7xwrLj170IcGnbxitDG5G6ZpVDHAp3+s6frxTiVQdefpQTIZ/qTSM27kd6Rm87gfSkXcnG3pQSIq/8APT5abqM0xg3eXJeKkbJHbOBD5+4AAKwycdOcdOaluE83pinSTMVt5PLkYWS8og3ySZAHyqPp+o6nitsKouvBT2uiZ35XY+ev2n/2y9a/ZX1XSbFPhjDr0OtQyTWVhB4k8u9v5UYCZY4vIdmEaNE5OQMZ44NXvj98UdasvgVa6p4q+FNjK98tzPrllc+MorO08NpCrqkj3W1TM8kJaRY40J2rJnlBuyv2kPgf4j/aV/bG+HNxZ6Tqml+HfAOm3lze6pcWjlbiS+jmiWGJDgFozaoXyw4uExnGDQ/4KT+K9f8AEfgu4+Hui/D/AMfa5H4qn+zajq9loV1Nb6LA1q8JlwsZEzYuSwQMgPkuC6nFfrGFy/LajptUo+bu/wDM8GtWqKZj/svaL8Pf2pNM1Q3fwn8VeB7PQ1tjbarqM90+m68swkxJZTb18+IiMOJAuCkiHjcAez+NP7UWt/szx6xHb/B3VLzwt4TsFMPie+8RWun6d5aW6lCAWklJVsRoNjGZ1QDhwa1Phlrcvwb/AGbPA3h2fwn8SdUXSNH0/T1ks/C8v2iTyLUR72iZgIwcZILkqSB83JHi/wC3P8c/HXx0tvFXwbtvgb8VYfDN9Ja6Y/ja10W4vbUJA8LyTx26xjzE3RMq/vVBGGJUZxnRyHCvMJzt7llbXToUq85K0j7H8P3sPiPwvpusf2XqelzatbRXTC+VY3zIgcoVDkhxnkYGNpq0r7fl/u1LJcyS6Hp9m1vNGtiEAkaNlEm2Mp3G0Zznhj079ahxk9f0r82zinL6w1RVkexhb21PiD/g4l+HukeL/wDglZ431LUrX7VeeFNR0rVdKk810+y3L30Nm0mFIDZt7u4Ta4K/vM43KpG1/wAOAf2R/wDokv8A5dGs/wDyXR/wX+Vv+HR/xZyMf8gfv/1GbGvsfHFcEZNQSWm/6HP7GnPES54p6R3XnI+OP+HAP7I//RJf/Lo1n/5LpZP+CAH7I6r/AMkl/wDLo1n/AOS6+xhyKdJ8y0e0l3NvqdD+Rfcj43P/AAb/AP7I5X/kkv8A5dGs/wDyXQP+CAP7I+f+SS/+XRrP/wAl19kBtoFIwwfxo9pLuH1Oh/IvuR8cf8OAf2Rf+iT49P8AiqNZ5/8AJuvh7/gvn/wS/wDgb+xR+x34b8VfDTwP/wAIzr+oeMrXSp7r+2dQvfMtnsr6Vo9lxPIgy8MR3BQ3y4zgkH9pZBh1+vHvX5s/8HT5Lf8ABPzwdkbf+LhWXfP/ADDdTrSnOTkrs48fhaMcPKUYJO3ZHsDf8EA/2RRJj/hU+OM4/wCEn1n/AOS6+If2rv8AgmB8C/hr/wAEJ9M+Mui+B/sPxJuPBvhXVZNX/tnUJN1zezactzJ5DzmAbxPKNoj2ru+ULgY/aSSHdMDu/hx+tfmv+3V8v/BsXou7gt8PPA+B6/v9Jopzlda9ScZhqMYytBfDLovI9jP/AAQC/ZGSTa3wl2tjO3/hKNZ5/wDJumj/AIIBfsks+F+EueeB/wAJRrPP/k3X2RcxmS4Eh+Uhcbeufx6U5VMTB/vYOcCs/aS7noRwdC/wR+5H5zftG/8ABIT9nn9mOb4d+KvBfgBdF1618b6YsV1/bupXOzb5so+Sa4dD88SHlf4cdCQfNv2kD/xs3+B53D/j70P/ANO8tfbv/BQ6HHgPwD8y/wDI86d3/wCmdxXxD+0dED/wUz+B/wA6/wDH3of/AKd5a+s4Rk3Xlfs/0MuJsPSpYSKpRUbvoku/Y/UQnzJGZeSetTQHYvy9e9Q2/wAo9c+napIh5Zb+Ld+lfSYn42fn0WKFyWLfeycj3pI5GQkj0pxYFmPcknHpTVO0f7Pc56VzXYCKPMbceo5pZbhpYyse7d24zQQU28H9593PG76ev4UyKURN5iFZNvBw3r9M0XYDyGMW7kRrw6gZVm9Wb+E9OPp60ZuPKXyAQvJ+UBuPx7Zzz6kjtT03f2bNGq/LM/mMScMp4OAO/TrkfSn2V6bWNVWNn2rt5O3uT/7N+nvgICFgqx5b5oSPl3fKB64PfJ6jseKhmj8y3H/PPd+vb9MfUYPepJis9lHDn/V7yGAzncc9OOn6+3SjpZ+X/tBt30UL/TP6e9J7AN/dm2CZ7UABUAU88U1IMnrUnkbOdwqAFZDtB3KKm+1ERsQqsyozJltoRwCVY/7rYbGDnGMHOKgk+YADmneQzoVT5mZSoGD3HsDW1Fe9qKXmeR/tifHy0+B/wZ1y0m1q40nXvFWiagLK4GnGe3kmEBCl3KlIlV5AS0gVcNk8KcfE37Mtl48XxGni3T/F2n6F4Z0XWLPUvEkUVlHqf9pSC1tLu5uY5I43C+bDIp8tWXY2QAMZP1v+378D7f8AaC8J2umPqmq6PcWekXdnH5Hhy91RZnlQLybdG24Kjg8nPA4581/Z1+AFj8HvgNr3hPUtW8VXF5rybRNa+A9ZaOADTrayXO6BSSfs+8jAAL7QWA3N+pcN4jC08LyVUr+j7+h51aDvofPdh4K1TUNR8P6ppMWl+FfF/jLSpta1HxNHfjWF1/m2ad2tIlkW1MktwkoUIqryoxjFfV3/AAUr+LkNz+zbr+jeEfE2kx+LNRv7HTooI5reWSFmb7XsmWQ7Yd0NrK6tJgN5eAcsAeC+FH7NEnhDUfDa6pqmsRw+FtAk0SKW28G65L9tLG0/ekNaL5fFrnb833+oxzU+LP7LMnxN8WeK9St9T1u0TXNW0vVLGGbwZrXmgWlhdWkiS7bUqmTc71Ks+QmCFydvdjsVRqThKKWj10YRi0jkf+Cey3Gn/teeH7CG3sbBLfwY2reJYbbUotS/ti7ZhDLMZITJHbM0zxOYfMQqI8bAHG79FrmFzNi1imt5NvIEZZsd+GxweOe2B618ZfsLfsmt8CPjRrHiLUtY1q61DWtPn0qCyi8Havb26RtNDcCZ7m4gjQN+5ZdgBzkEMelfbNxrEkepLcNDHuERjCCYMME5zuAPp0/yfieKsTF1Yumlt0R1UrlLDSfcaSMj73lJ5ufrnGKjnbL/ACsoXHAznA7c9/rU1ldfYi+1VbfjO8lcfkDVZovlVVPCqFyR1xxXzNepGdnE2cR0pbd95aJ2WB/vD5hmkliLN2plxCbmTKFTtGDk4rEksszyXMfI70uXhmYho23Y3Atj6fyOPXJ9Ka3yyoFIY88CiSLcz7jt37enOMZ/+KP5DrngKiOSfbuVmj3PyNrbiF6Yx6Z/i9eKaEGfvCoxbbLpZNw+WPy1H94bic+x5xj9e1LllP3TQUPuYlBPzDpTXO+idi+cL29aNu0f/WoAaBtp3l+bTdrM4+U+59Kk+42OvvQBHMn7oL71Jb/Ij/Qfyps3MYxyc9KWFsK2eOMVS2BdTyj9udt37Ini5f8AatP/AEst6+V/gYn/ABnx4a/34v8A03ivqr9uVc/si+LvdrT/ANLLevlj4Gcft8eGv9+L/wBN4rz+Lv8AcKXr+h9twPb29T0X5n6JxD922W28HrT49v2T/WL0NMcZgbLbc8D601IQltt8xd2D2NfBx2Pcr/Gx0OCnDq3J/pTntZLjB3KuBgVHaW21PvL1q0hYL8qhgOM7gP51RiBkYwgP/qhxn3qNtrH93z606X97beWPu5+92pkMX2f+LdmgB6NsQqeppscflPuo25kB7VJIMocc0AMdtzZpKFQ7elDfL1oNB27aKay+caAc05cKTzQAhHlQUinzYW7c05uY/SmoP3ZxzzQZjpH3Xa/MOn+NQorG76jqacIiblW4xj1pyRmO53Njbk96ACQrDIQ33u9KyB5lZztbjApbiBriXfwueME0SoXmV+y4oAZN96lGDHz04psrBm4pwXMR+lADgrCM7GXb3GeTTHUyREKMNnJJ6Y9PzxSJ7c1IG2wt7nFBpcWz8mHd8rM/GcCmM7N1Zfp6UkLrEzNnO70pG55z97sO1BMnoGT6inIygfMajIx/+qnBBtzu/Si4PWOokmyIZ614x+1xZ3F74g+Ct1bqrLpvxQ0O4l3EjagaUluh4GOa9laMS/xfoa87/aH0WS70zwtcRyQ/8SnxLZ6kyMSplEQkOwHHU56ngVjWjodmDk7Nep9k+JNDl+Lf7M/iLR4AskniLS77TQV3MoEsUkWcgDue2DX4l/AbxQ37XvwK1TWNL8y3h+EfxJ8I+MdQMqdLa2t9cd2HC9AvfI5r9vP2T/EjeIfgPo98bZoftEk6+WHDlMTOvXp2z+Nfhj/wRXka9/Yc/bMvNRhm0qHRvDNlqBLKJvOEen66WUBCSOO+K9XD39mj87zBv280u59w/wDBOvWP+EJ/4KV/HzxTeXcZsPixp/w4m0lsoPPCaEqt39ZlHHrX6i1+TP7N+nf2X8VPgrr6t51j4w0PwNLbkLtMSppWnDJB553g4wOlfrNWvNdHm01a4UUUUGgV+JnxO4/4LcR/9f8Arn/oWqV+2dfib8R0Mv8AwXEgj/ha+1zPr97VKzxX+7T+X6n1nB/++P0/VH21H/yD2+jfzNQN2+lIlxIGWH5Nr4ye/wA3X+dSMm2NS33iAeK8uj8J9BWI6B98f3e9OUZai4PkbdvRuua0OcGZf4ajMnmDC/eHX60B9/3eKFiCtu70AEKNC2W7c1JuGcn1z+FNY7xg1IiJtH3ulBXKyPY27P8AD2rI8Z2eta54W1K30HVV8N6w0W2z1AwR3flNuBDeXIQp6AYbjmtvYvq/04p1zdtdeWrfdgBCjHbjr+Q/KtqNRwlzJJ27kvRHiNn8H/j5Oktx/wANANZlcLII/Amn3PmDnb91jjBJ6etE3wc+PN3GjS/tFfaHuHAdP+EB05GAHH973r2aaMXZ2yfMn93oP8fT8qesk37zDKPMQofbPpXv4Xi2rRXIqaOOWF55XPFLj4VfHi6tzC37Rn9nx2bCNGk8AaeQw5GBlh/d96m/4VJ8dhYrbr+0R9nZgFZT4D08kA/ePLdwSfxr2SKJootoI7ZPriolhC3G5VXcBsDEnOMY+nStK/FtVxuopehX1BXKHhLSte0rw5Y2+teLLjxFeW9rHFOx0IWa3EwVQ0u5RtXJ3HAOOcDtWtGixoN33jTidkSqP4en8qjJya+cxGKqTXOdnKoKyPjn/gv9J5v/AASP+LXoP7H/APTzYV9j/wAH418b/wDBf/n/AIJIfFn/ALg//p5sa+x88VnyvkTf9bHJT1ry9I/nIEGUpdhpGGGSNfvOcLnpmo7W8jvEkZQ4WEbnz1I9vyqTr5WShcfepXPmdPrS3C/ZZfLPMin5v7uPalk2RL8u705oBaEZKoPn/Cvh/wD4L6fsgfEb9tb9jvw34V+Gfh3/AISbXtP8ZWuqz2v2+1s/Ltksr6JpN9xJGhw80Y2hi3zZxgEj7gYgj5Rkt13dvpR80A7Nn1qoys7ozrU41abpy2Y1naOT7vbI+lfAvxt+Avi79qP/AIN6/BvgPwNo51zxVrnw88HfYLL7TDa+eITpk8n7yZ0jXEcTt8zDO3AySAfvmSZ4z/DzzXkH/BOdmP8AwT7+Bf3f+Se6B/6bbeiLtqY1qaqS5Hs01+R7D5jMcNw3binhWT733ad5SlctuJzTmjXZ1Y1J2Qjqj51/4KIRsPAPgH/sedO/9F3FfD37RsT/APDzP4H/APX3of8A6d5a+4/+Ch2G8A+Aslv+R4070/553FfDv7R2B/wU0+B4+bH2vQ//AE7y19hwd/Hl6P8AQ5+Lf90j6/5n6j2QCp83WnnduNNgfYnH607Zu5r6PEytUZ+aREMbBqXGB8wyvcetSQBXU7t2QSOKb5C7W3bj8px71x8xZHuaZg3mCQQ/cIA/0Yeh9cjjn0pwt44mGy2a3TqysxO7sDz6Zxx/eqQLvijZ2bdCuI8YwuRj/Oaq2sQjVlVVQHBIBPJH1+po5gLLyMqfKp24pkMhkztFN2vn7w+lDxu5+9t+lMBAQtKzqRimmTY6qw/1jbVx65xzUywKp7+n9KAI19qcwbHNG0GTbQUVTzuoARPvVIryRndG/luP4tu7A78fSkCqP71DFXXaN2acdwtcgmEsk29Lj7Q3VhsCbT6U9XmY7jtLdxuHHtTuVj2n5qagJHsOOe1dsMfUo6QmyfYjXnupT8qjj/aWnSTXUce5VzIOFwwJ568VIhJ+7+tOjk+wXMc8RbzkJIY9uCP1z+laRzLFr3lK5MqWgo1h/tUKzDa0cQc9znp0A9zUDDyzht//AAJCp/I066nkvZmkmYyMTnkAY/LFJJIzcsd3auLEYqrVfvhGNhu4UvanBMio49zHt1rJW6GtwVs06eMRFdjfeGTTCzFv4ac3zHoPl4oEOMXkOrsaSbccN/C3SpC6kdMsPXpSMSOf0HQUAMUFdpf8KM5pdrM25v4eRimyOaAHS/L09KXduH3aRDuHNL998E9+1ABvbOAPvcU6ThNv8VEn7voTz60zP/66AGjcvBHPWkXo2fWnLIyt2/GmS7nk/h5qlsT3PMP25Mf8Mh+K/raf+lkFfKvwN/5P48Nf78P/AKQCvqj9umLyf2Q/Fbe9p/6WQV8r/As5/b38Nf78X/pAK8/i7/cKXr+h9pwP/Hqei/M/RdYxLFycYOaWG3Vl+8OtECLIrBt3HIx606GKNl+fcDn+Gvg47H0Ff42Ag2H5enemyiQn9390dfrTtqk4XdihZDFwtUYgDtjxTfvGkUYH40oOKB8o9RgUtNMhNG+gfKxXPFMA8w80uzPzUFzjigoTGKKdsyP51G7EUANmkYLRDK1SiWNlUNu98UplhQfIJN3v0oMxssTo64pWiZhzTniYDdnp60RxGYfM2PpQAx5yaaZsjFKJDIO1L1FAAIwaQhnYItJ5dSRcnb+ORQAACBGVvvN0qMHja/fkU65fp+fNNiPmP6YFAB5cdPiMMYbPU9OtLJuA+VvzqNHyP3nLdsUAO3rD/rKbEN4/Hil6jpn60gUsPm/Sgz5tSR4VQgCuK+OcEZ8L2Bb/AKCEePc7XrsPLZRwfzrzL9py5e1sPBNv5joureLbGwfaAcJIJQTyOD6Hn6Gsqux6mDjvfsz7I/YtOz9mvQf4cTXOAf8ArvJX4of8EdJrfUP+CeX7d2HWUx/D9dqqckt/ZuuYHFft3+zVo8Hg34EaXCGmmiszcNlyCx/fSP2AHf2r8Nf+CK1vceAf2PP2sLW2W1lXxPpulaNN5pZtiTWWugsMYwR68/Q16uH/AIZ+e46yxM/Vn2X+zyfM0/8AZOQoykeGvBYdSOV/4lmlda/Vuvyz/Y88Nt43/aQ8PaTcTyRr8OdF8AtaiLAWQyaPZvhiVJYfuh/d6n8P1Mqonlxle4UUUVRQV+JPxGYf8PzbfO7/AI/tc6fXVa/bavxJ+JYCf8Fxbdv4vt2udf8Ae1Ws8V/u0/l+p9bwd/vj9P1R9mqy/b4vvdU/kKuogeBG5xtApq6cmPO53R9OePl4H8qdLKItqKPk2j615dH4T3qz1sNbaPWmSpkgdj1psjsW+X8c08v5nT73Y1oZcrCKIRj5f1oPWnQqw4JBpG4Yj+IHB9KASEpNgPrTihFJigoTyx705ePypMUA4qlKxMgT79CIx/i/SgHBoiDSn5W2j3qXGL1sF+w7a3979KVXECbQPmXjNI3yd2oaM5+Y/N7dKIpX12DmY0LzmihiF9fwpPMH90/nUq99diHdnxz/AMF/v+UR/wAWv+4P/wCnmxr7IZdtfG3/AAX9cH/gkh8WuD/zB+//AFGbGvspj61evLr3f6GFPSvL0j+chAzSHy/+eny4PRs8cntSDUvt6tL5kkn2f5ssgUr34APPTvinRqWfcu0NHzk9vp/9emQwxBWSOPy1kGGGSdw/ye1I6+YcEFkxtwNuwfdB3KM89evekS3Xd1b8aA3n3DFvmkxlmPcfhSjp8ufxoIYjxKh+TcPXNE4OBz+lNYtu+8ffOKWftzQA1o9zj5u3pWZ8NPh3pPwo+HuheFfD9r/Z+g+G9Ot9K0218x5fs1tBGsUUe9yzttRFGWJY4ySTzW1Hbeam7djtSN5kJ+Vl/EUDVtxzLtSmvjy+/SmtMfL+b72e1I0qmPHzZx60G0LXPnv/AIKGy/8AFBeAvl/5njTu/wD0zuK+Hf2j5P8AjZr8D/l/5e9D/wDTvLX3H/wUQiUeAfAX/Y86d/6LuK+Hv2jYlP8AwU0+B3/X3of/AKd5a+x4Pf7+Xo/0OXi7/dI+v+Z+pEA3xKelOztqOJzHCvTHanLnq34Yr3MZf2jPzSKJFiViC27d7VJLGFTPpyPrUYcCGSQhtkZAJDcjOCOMc8Edx349SS5zEjMMxvJ5Yxwd2M8j0x3znt71z8rKGl/MX5uvtTULbsetNJYz4yAuT0FKdzNxtU/SnygP2t/e/Sja3979KQK44LDJ9qd5bL95vyFUAkS5M27+6PMx/EMfrx6bfqetKp2t8v3cDH5DH6Y/+v1LHk/eNtyu/hsHqKBJh9vtQAB/33405iHb5v0pETdLSMu6TGcYzQAdDx92nIsaNuUNu96QrtHr702PmThm/HGKAHzZNEQZVwu3aTzmnKpuPRdvBoD+UGVQDjqW9aOWPYrmYF/IHy/jmmMm055y3WkV9/3qMsxPP6VPNUT0C/cKST7n40jEgdvypyqWj3NjbnGBVcze5ICIketCuxX5cUAu3Tb+IpVZYm2bdzKeufxpcqQDxMfu8ZHGabs2j5ep5bPrUf2yNZMbG3Z9asRBSpJz1/KmBCq+Qd/8VBcyuWY/QCmhjKjk/wAOOBQT8i/eB70APyZTyfu9KXYBSRACPdls/hzTxCzd1oAa1vvPFNZ98vHHNOFxzhf1oaERnuSKAGyEjikUYp7QSSDduj2r1GDzTYx5pwPvUAAOThetSLKy4HFBjFt8z/NnjgU2SRUKsy/K3PB6D+v6envVxWhPc8t/bxLN+yD4sbjGbT/0tgr5T+BX/J+3hn/fi/8ASAV9Wft3OJf2PPFjJ93NpjI5P+mwe/H618qfAoD/AIb28M9c7ov/AE3iuDi6L+oUvX9D7Tgf+PU9F+Z+i8SBwd2fl5GKBGt183zL24qOGQjOf0qSP5F+XNfAx2PoK/xsF+Q7V+tOA3UwLg5p4O0VRiNIwaKdt3LnvTSCGoKuFFLt3dKPLb2oHzCbT1pVbFOA+XFN2E0BzCd6cqZWmxfviwH8BwcnrTg/JUZyPegOYjdY8ldp54PNAiig+baxP1qTyh+PvQIgT83I9qCAV2WNstn8KbFukbAbr6iiH9+MdB7UuPs7cE/jQAm3yPlPNNHzndTmBnOelKqLGmOc0AJSO2xc0tATzTt9aAEgJmfk06T93LtHcc0pt/s5+U8k45pswZZAWbtjgUABTy/mVuW65FNfEZ3N8zP19qcqs38X5imsPMP+7QFrgnz9OKc8GBlmNCLtPFNu5/KQD5s59sUGWH/eVHBdB3zDof0rxn9rGzuNa8dfA+xhkjjZ/iVo80pYcNEshVlHud4wfY17QkfmTrGpPzA5J9q5mT4cWvxc/ag+HuiXUksf/CPvL4qjdDtDS2d1YKinrwftJyOOlYTkm7I9WjLkpyl2ufSfxz8UN8Gv2L/iPr0MfnHwt4R1jV407u8NtNKBz67e9fkT4q+DF1+xd8MfB2i2VzaX3/C3PjT4M8JXLEMwggmi1hHbnGD+8HI54Nfqn/wUR1mPQv2CPixo6B1vPEvg3WdItJgAyQSz2FyiM4J+6GGTjJx2rwf/AIKHfsW6X4t+KX7NfhjS7ySw/s74r6P49uXlcyLcRaTMImgHGQz/ANo8Hp8p5HGfYoxfIfmeKqXryfdnK/8ABM7wOt7/AMFR/wBra1uPKkh8KWvw7sLMDcMG30OSFiTnkMYQRntX6bV8a/8ABPT4Ew6J+0d+0V8WIbpj/wALC8T/ANlS2bDP2ZNBu9R0tCv++sW7JJyT26V9lU4nKo2YUUUVRQV+JfxPH/G7+3/6/dc/9D1Wv20r8TPiSiv/AMFvov8Ar/1zP/fWqVniv92n8v1PruDf98l/h/VH2uJs20n/AAL+ZqMrmQL6jNTIitat/wAC/majaMWkG0d2zXl0fhPaqfEJt8oj3p8kDRuqr1bPb0qJxviX60+VeRH/AH+/0rQAkEiHHOevQ00QFBubO7vkVJbxSQkhWHPNNA2St/ezQJuwGTNNppkZJM+9OLbjn15oFzBRRQ/7woOwoE3cKc67V2r+lKx8pPl6+9MMCwn5aBAn+j8tzn1oKOzb/m9akSJX+9UdA0rjsY+ZeSOcUedJ/d/SkRd7YokiCmgfKfHH/Bf+R2/4JHfFrcuB/wASft/1GbCvsnew6j9K+NP+C/szH/gkf8Wl7f8AEn/9PNhX2STsG38ar7K+f6HLHTES9I/nIJHY7dvy+uKVo94+Xt6Ux13qF7L0pFXy6k6CRZFf5VA3LycdcUmfM+79eKaZDIMenNC3DZ47UAKuH3f7NOgHmA0LI1wPm/hpt0/K0AOcMG+XdimsrN3NOSzW5G89vlpskZ8wbaAHJmKPceeaRuF3fjSyDb1602KY7/moNYbo+fv+CiP/ACIHgL/sedO/9F3FfD37Rn/KTP4Hf9feh/8Ap3lr7e/4KHu1z4B8Bhv+h407/wBF3FfD/wC0XCYv+CmvwN24/wCPzQz/AOVeWvsODv48vR/mjm4uf+yR9f8AM/UeBfk56e9StH5QG7o3TNJEGQmYfek4P4UrSuDnP3q97FfGz81UiOa4RLiH9395NwfPyx9eDx/UdR+I0izzMGwwCA7wflPI+X69+vQdO9NaZmfd/e5p0lw0wCf3iBWJQSRKo3bqkkiEbLtPOaEtVCbPUYoFgtnGzdaAEa3bcH+bj2psqNK3VuPSkM2aaXzQA4Oxk+739KkD7JPmHam4alCF+9CAQx+ZJuX17UM38PejYUNBLPxVSVgBTzz+tPhUSyBV6+1MUOp+8KcxJWs+YB1y3l/KvpzUKT/I3r3pqTldw96cgU53etUAkMOBnNJw7daH2g8Cm+akUMkj7tsQBbA5wSBx+JFNASrCpP3qVrYsNqltvWnQWBvfJZNv7/8A1e44/hLc+nAPrz+dRw7blPlyFB7+tVyoBwfbxRkr8uPm9xzTTvj6EU4Lsjx7UpIA85QOVXdTrXlW/wB41HEMGlYM7GpAjaTy7dz9KRBuhVv71SGJoe9OjOCWb6UAEMOE3/3eaN7TdAR9KRiJjluicj8KY80bD7rUAOkQKcLSrbND95m+XrkUxVjH8LU6WZclcGqiAfaXPyjo3BoWzO7cN35UuBCjY/ClVG8nfn5qfKgB91qokZPOH3drDj6/pTpZSiLIQGwNwjPSTjOPfrt/4DRHI0ce4/SmzyMy7vrTvYnueV/t2XDS/sd+KpPs4jVvshKheIv9NgGPbPX/AIFXyv8AAqPP7enhr/ei/wDTfX1J+3NcMf2PfFi+rWn/AKWQV8r/AAKT/jPfwz/vxf8ApvFefxdL/YKXq/yPtOB/49T0X5n6LW53fKPrUwZlWo4hhfxp1fAx2Poq0feYplMnUUH7opM8U1lyaox5SQLhN1NMm5sURplKd5dBILJ5Q+vNL9o+lJs2IW/iXpTSny7v4qAFZDJ838qRSyUeX5yfNSxW2Tt/hFACvLJNjy1xt4OATmnxyyRLgr83qRSNiNiv904pu+gBskm1i3qaFk81qX/WUY8oZoAdOv2Vc0xT54oUbRTg+BQAH9zxTWG5s0UUAFB/rRSOcLQAsi52/N3oZNh/vdsGiN+CKaEw2fbFADWZs/LH+lSR/OPu7cdaKKUtiZbAwwaAqyjB+9minIGC5j+WTOMn0olsOUeT347sr3ErBbzb96NwBj6msz9g6xk8Z/tt/FS7upJN3hXT9NsbYY3AJeRxyydfu/NapwMA984Fecft1Q3HiD9m/WND0t0ttQ164treOWb/AFaMkyzktwTgrCw4HUj8PdP+CQXwen+G37KdhcalcW95f3sU73TQ7gr+XeXWzGcfwtjgDn161nRjeornbmFSNDLZJ/E/8zzf/gtHLqHjr4jfsz+AdNuLm3R/jN4W1TUjalnknsTJeQyxSRqR+5O4bmbK5wCDXD+Av2+tR/aI+JHjH4j/AGPTpB8IPg94uuo44LxriAzTS6TcI0kn/LJh/ZzBSOSGcgjbXRfFXxbeeGv+Cn3x8+M0SR/2X8F/gPfaTb2G/wD0iW8tzba2sqEqV2bbnZh93zA5BXFfIfw/+A03/BMn9nvXvCX2i11hP2nPG/hz4VzyWpdFsob+21mJ5JPM3EqPMHEZV+DhhXtvSB+W1LufOz9TP+CXGoXmtfsOeB9WmjZT4un1LxRNlSRu1TU7rUGAJ+8oNyQrH7y4PevpqvOv2Y/hhF8Iv2aPAPhNXSaDwv4bsNLhZNwBWG2jjyMknnaOpJr0Ws4bFeYUUUVQBX4l/E2PP/Bb+Hd8v+na5+PzapX7aV+JPxMhY/8ABcGFsHb9v1z/ANC1Ss8V/u0/l+p9VwhK2Mfp+qPt+KKMWjfN3bsfU1FIysm3+LOfwqxHIv2Nun8Xb3NUgdyMn8ROQPavLo/CfQTV3cWThVUdc9KklVowGb5W7UxF8peeCaRY2Rvmz+JrQkUlph/rGBpHGF65bvTm+UU0HIoJkO83Ef3eaBGzDOOtNpjW8jtkK2PrQSPVdx4p8wUKqjvw/tSzfvIlVe3pTIxsjVW+8owaAEYfZ13RfM3+fWnMioPlbd+FGVpuKAEMSyfeOKUDIoxTvMyu3P4UFRGkrt+Y7V7mnLa+YgZfmU9DSW67Jl3fd75pZy2/5fu9sUFHxv8A8F/GZv8AgkZ8WuOB/Y+f/BzYV9kBFxlvu9M+9fG//Bf75v8Agkd8WiO39j5/8HNhX2NMPMbK8riq+yvn+hyf8xEv8MfzkGFc/wDTMfdPr60NHt+7zTZDt21JGN+cVJuNiYx7t/Axx9aFd4HYMvIyPxqSIi2bc/yr03Ht757fWms+6MKWO7jK5xt9eO2P0x2xQUkM85wNzDasn3D6+tKp+zn98duenekCsjswLMj/AHWJ3bvXmnKWU/N+ooDlFkOR8pwKakjRR8fM1BJJ5ooJe9h0JM8ZeTiQHAHtTdxc4b5V7mmtk0mwmguLd0j56/4KETTr4D8B+Yu1f+E407nI/wCedxXxF+0bcMf+CmfwPK8/6Xof/p3lr7j/AOCiDq/gDwFg5/4rjTv/AEXcV8M/tIfL/wAFN/gf/wBfeh/+neWvsODv48vR/mjDi1f7JH1/zP1MVJPsySc+c2d656enPSmhWlGZDtb0psKeZGG7n3pTHIOgNe9ivjZ+ZxFkd8j5e3rToZftCcUFWbT5dv8ArtwC7vuds5z8vr19vapZdsd23l7lTyuN+d27P+1zjH4Z96xNBXh2IuT80gynvVaGSS4DZJI6df8APpU7tCxj8sALj/SflxuPb6856ZqJEmKN5xLSZGz5geOc9P8AgNAB5ez71PSNXHHNCny1+amuDJytADgc/wAVKITJxupCQwprxtj5V3fhmgB3l7VHzdTtH1oVfNLKzY2cH2NCRMct5Ywy4DbPvN/dz39NvTjGOKbP+9RVVizJ95d3+rPpj+H6DHT2qnJsBWkYHarZFK1v5CeZzx71Gi4XFCwyRNu+bH1qFFXAdGcjJ+tRsdznPrxQ7zOeN35U5EZV+Yc+9bcqAcx8j7y4/Gn+WZF5kFvu+7Jt37D67e/GRg/3s9qYmG+9z9afu2vlvuik7LVACrEnWM3Cr/rMOY/tP/xHOG49Md6QxdvO8wddwTb+GKGHmHcvSnB99LnYDd8idOfxpFQg/jT6Z/y0P1pOTYCu6scLSsvlgDdg45pH4bilSQQ7txxuORmpAUphcs3y01UWRuvyjp70bsNu/hqNyXc46UAOlPO3+Ff1pyR/9Mx+dN2YXd6c013lYcbvyoAJJCH/ANWPzqb7LCIOT+8x6HrUMBkQ4bd17iplb935Z+/0xWlMCS3iigikErbZD9wYJyaaEAXdu+b0oEiqpDY9qburS4Duq+relM8i4uWZY4923kjI7/8A6qQLHIf3o3L2603eqz7doMLKI+Uz0LZHT0I/OqhTUppMipNQjzM+f/8AgoH8bvDPhj9nfxh4b1DUvs+tRGzLW/2aV8A3NvIPmVSv3Tnr+tfOvw08SWPgr9tfQ9U1Ob7NYWbQmaXYz7M2IXooJPJA4Fd1498LeH9R/a3+Jk2pabaXMi61arCZrbzAI/7E07gDBGNxY/Umm/EvSrRfh74i860g85dMusMYRuB8l9vOM8cY9K4uPKNOnhaMIev4H1/BuKhTrOUvtWX4o+6Le8inG1Wy3Xoal3CvNf2SIGT4bXxlyzf2nIMs2448qLvXp7qtfmlFvl1Ps8wpRhVtAhJ3/dpV4FPK4+7TcVsec5DlTcetI2FfaTz9KCS67F+96UpHlxYbhqCRywkJv/u1G/CmQ8Y5pYlVY2ZvXIye1Mtg/wBoDfNsHPPSgAiZrps/w9M06W4aH5E7VJcfvn+X9OKjJ2DafvDrQAvlsFG7qRnrSBs06PywORyOvFNm8xf9WcL7GgAY+XTlBcc9KbEu4gt17mnTONuFoAHIVaj3ZHFSSU+BV9qAIiMUZ5oJzQRxQAMdtKB69DxSoOKawBYjG7IOBjOWxx+uKGNDpbOTYsir8pJGc9wpY/oCajtn887V5brinfZpILRpWiRbhmEab0XB6EDB46jj3xjnFEdtd6mn2Vgq3kmRCCVhB6Hrwv3Vfqf5iuinh51Ic0EZTqcsuWxEb2NWdd3MbbW4PB5/wqcDaMn1I/EHBqLy7i+gks7MtPeWjqtwkbB9hG4HJ6de/wCVWJkWe6mnQ7rdpXWElvmKKxVcg89AOW5PXnrWf1eqotyX4MqU0NTEg+Wq2qXRs7MTRttbf5Zx9CadKxlPyfpWZ448e2Hw30GLUJtUtNJuZZxbebcSqispVm2/P8ucrn14PauetLkWp2YLDuo7C/DCzg+K37X/AIHs4EWe28LWer6vcRkYV7hY4rOMEHGflvJzn5gMdMlWHtX7d3xTf9nj9iT4iato0zaX4qXw5qcXh7yBtY6r9iuJLRFbaUQmRQd74RSPmNcD/wAEvP2d7P4W+C5vFN/oMmn+KPHOl6dfa/dTSO9xd3jRSSyl0LHy2MsjkqoUZOMcADF/btsvB/x7/ay+FnhXU7rT9U0r4R3U/wASNatHvjbxeHZ9Pl01ra+umDLt2Q3dyyxykq6PIdjBCV6cLSTXOfM8TY11MQ6cdkkfEPgz4w/FT4g/sSfs/wCh6tdXsnxF/aG+LVi/xMie5gaTUPD0093oc8U8oAjlja2sLRTHEyuQANuQzn6z+G/x28L/APBRX9sr4fxpb2l94b+HemX+vmKS3Plrra32k/2bIFaOM+Ysa34VwGVAzBsblzxnxH8Zafb/ABD/AGkvj14X1rTpJbbwje+AvAXiO0vo5Ip7r+yLHUIbCwTcUmmN8bh18tGYyCRAcgqPoT/gmd+wV4f/AGJbzxg3hnwXa+Ev+EmFkt00VyZzdCAz7RlpHK7fNbpjO7vgY73qrHzPNpY+rxbqYIZGhVTGPmAP3Mf/AKu1X6qRSRpI0ajv842k8nrz+Jq3QSFFFFABX4m/EmRv+H3sPTH2/XOv+9qlftlX4m/EZc/8FvYf+v8A1z/0LVKzxX+7T+X6n1XCKvjH6fqj7YV0+yP97+L+Zqug2/P/ABA4H0qyin7K3Hdv5moimI/xry6Pwn0dQEbzF+b8KRZHYHdt9j6UikANTUkDIynvj8K0Mh5BA+8rfQ0rx+XEG3KcjOAeabGFRf73PpQsKod7EfNzjFBMhwjym7K496RpW24U9uKDF5nOcLShtox6cUEjUOwf7Xelzu5b73el8ymk5NA0Lx704PmmUrcyBu47UFco7d+H1pBHu+ccDrg0THz1APy9/Wh3Zvl/rQLYEb95lgWXuB1oMo3HqF7A9RTon+yuG+8V4wKjuJPOkLfdJ5oDmZ8df8HAIz/wSP8AiyVOF/4k+Qe//E5sa+xclJPl5XH618cf8HAMW7/gkj8WG/u/2P8Aj/xObGvseOXY33f1qvsr5/ocsf8AeJekfzkExUSKNrNnoAOc0+TbAu5JI5B/EUbO360qyiOXaPm83ClP73t6d+9VUmM6MwuPtHljO7LfuvfkZ/L0qToJg3mD951HPlnrn/aHof602Pcv3grYH3j95vr657+uTR5SwTsg/dso/wBVj7v5cfl606gqILIzFtwRR/CiDCr9BSwO3PmYPpikooKAsS38qUrilSVUXBpqoxagnl1GkF+jKPqacCwP+FKSqHB5/CkwW6UGkI6nzv8A8FBkZPAngPJVv+K407of+mdxXxH+0hFv/wCCmvwP+6M3eh9f+wvLX2x/wUGjZPAngPH/AEPGnf8Aou4r4j/aPhaT/gpr8D+f+XvQ/wD07y19hwd/Hl6P9Dm4t/3SPr/mfqRFGyLsHzFf7vINSJI5+7hh6rzTbFFg4ZY5EUY+f7pJ/A89f1qWMLp3yzYmboTIOc9c9+cED6Ac9h72K+Nn5nEWN/KTBVpG6mMDcp+o/X8qhaVZ2+WTzB3ctuI9s+nT8TUgHnzspj87n7vHHfvx3z+PrUcEv2oFvO87b/Fz8vIHcZ7449frWJZIXZmUlI18rhdo4k/3vX/GgKIFOxpXzzmQ5I+n5nP0FNY7fu8/pTg2OfyoAAd/3gaM7fukY96PMzQI93/6qAGjDD5dxbqVHUemR705XwPmZ1HbacMf88j6ihD5jt8vmFQG2f3MjOeePm68fjg0yWcy4z8vtnrgkfpjH4emKAHyHK7hJMAeNu75V/2gOzd8+pNN3ZUYEaHu2MNJ7se5/wATQ3+pFNO3b838qAH7cD/WR5/3qSS4cpt3Rt2wDUYgV2zx+VTNAoT5cBuxxQAm+SGMcA8elIFlnG4jHtz0oW1aL5mf371KsTy/Nuxt6c9armAY8Zk+6pX/AHhinSdlZW9+OtOaF5urbe/XNNmVlwG59OaOYBm7bwv3aUFVHGabQvDfhUgOEmexob5W/wAKczDApoby/fvQAirzk7fp3o2i4Y5/hOBSmIH5t34YpFG/NACKCj4Ygr6Cg/MTt4we9Nij2S/NTmXe7c4UVUdwBA0jYyu0dacLjacbWVm4UEcsfak68L9CfSkWRraZF2eX5hxsz/rPbjjv39avlAlF5GjfN8xzxs53fSmKMS7mVt3sKY16UmU+YX3YOcn952/pjn09KeYpCfvfrSloARsu1t6tu7cdKbRsYfxfrRU8wD7WVoJS22OTjGHGRTZWW5jk3bo5G3bBHwoOSP6ClTrUY+8v1P8A6Ea68J79RQFyxn7kz438Wpt/ah+JqszSXEeuWqoWOUx/YunHnv3NL8T4MfD3xE2+Rn/sy5PzHj/UtVnWrOHUP2xfiVDcTNbwvrltukEfmFcaFpxHy5GeeOtdD8Tvhw9x4S1yxs7hr6a806YWTRxhY7tZYSYWBdlKh1ZD8wBXdggEGvG4yjKXJF9EenkKjGulJ2V1+aPb/wBlOExfDO8cvIzf2m64J4x5UVemKGkFcZ+y14Mvv+FYXnlrHKP7Uc5V8f8ALKLjnFehWvh+5eBWCrtbkHdX5/QTcT9GxtWCn8RRiVkzuxSvLtPRj9K0LfwzdX2pGyjjP2xYvPaMlQvl52ghs+uRj6de0yeD9SimaFbdWdBuYeYoxkkevqprblaPP9vTb0Zlv8ke5fv1GRuG6T8qsIsKXi2KtI2pNyIgg28jf9/P93n68VatPB2oahcErEu5PlZS44OM/wAiKHFkqvTfUy0jNxKCciNTg1NcyKy7Ie/HP/1quf2bcS3MlmFHmpuVl3f3QSfbsarLpUtvcyQ/LujXLHP3Rxz+opcrKVWD2ZAm6FMdX9qAPN5x83ersWhTu8f3D5wLJz94DI/mD19KuWvgnUdQlWOGFWkZDIF8wD5QdufTr+NPlYe2h3MhnYfKqK7DqFGSPr/ntSRx+aOfM+b7uP4/XHrirsuiXFq6LNZrLvjWVAGU/K2cNz64+vHPaqdnLZ6491Bb3jfbrTb58BiI83dyuG6HAGecY7Zos3oEqsYrmbBx5aMPm3dMHtUcKkyZar0VjZtaRpDfCbUNziS08ll8kKGJJc/KcBegz1om0a4/sw3e0eQJPK3bh97GcY60OLW44VqctmVJDuXikQstXtO8O3WqxSPAiusbKrfMBgscDr6mkutAurO2mmkVVjt32Odw4OQP60crH7Sn3KQGBT1OYd3TA6Gr6eEL69bzI1VkZQyneBkZI7+4NV59AvLm7t2ijDJcYMfzgB/mK/hyD1o5WT7aHcqnplWDewNORZGU+Wv71gQm4fxdv1rUh8K329VWFdzAkAOOQMZ/mPzqhNHHpFxPcX0PnrasITblQ5eSQ7IwM/LneVIJIAODkdRpRi+dXJqVocraZ83f8FF/jTrnwq+Gmg6bpWoyWfiDWNZVP3VxJHNHELO8lgcbWVxH9rggEpwR5HnY+faR8sN+1j8YNJ8L+G7fUvE2ltrV1fapNBeW+o3v2aAxxaesS3btJuWEpLebQOs3lYwN+fvb41fDq6+It3pt1H8N/DOqx6TPDcQ3OuXEEciTbmjCAJFOVXEv3wScsw2gZasa1+BHiO48V6VrCfCH4Ttc6a0qwBdY+ZWeMqSrnTgVO0uOOoyM84P61kOIy+GBcKnLzXfX0PFqVJSlzKRU8c/tIWv7Pf7LvgHxhr8sk154gsrGK/m0dgzXN1LaeczhndS0ZKSHLMW+ZeuSa4b9gT4weMPiH4l8daD4gaa4s/DNro91FeymZw897by3F2gkdiDHFNujQAAoiKrbiM16Bonwo12fxbqTXHwi+FGseY8jS2l1rHyQvv8AvZOnMCwywyB3PrXbfBv4b+IPh74Y0/R5vCPhXwrptpIQttoWo+bFqYaVnkV4/s8Kqcsfvbgxkc5A5Pn5hiMGsNOOl76G9C/tVzyOkaP7JaLI+ImwTJG/yyQgf3x/Dkcj2rwnxB8LLr/goD8dNQ8A29zqel+D/C9pJdXOp2EhhmOrW9wYHt/OCyx7PKn3bCokyAeBwe0+O3xttPgBf+HfD97b3mq6/wCOpZbDw7a25CrNdgxoqSSMQsIaSeIbxuAGSemK+tP2UfgvZfsz/ALw94WuLmykudLs7a3vru3tPLF7dR20UUkrAZLM5jyWJJPGTX5RUg6tSx7uJzBYGhzxfvS2PPP+Ckf7UN1+wj+xT4g8deGNIj1XXtMksLLTdLt7Uzy6k8lzFGyQwxyRvK6Q+dLhWBEcUrYKqa/Oaz+Lvi/xx8C9W+LesaN4gs/GX7cmt6d8MrXSjaTR3nhi0WG/0m4nihZjLaxM0dnLI4e4UsYWMediD6D+L/8AwU98M+K/igfjdqnhDXI/h3+zW97bIrSQXE3iu91eWLT7K6toSw8gpbR3zl5trqk7RgZlcDgm/bXm8ZeIPEn7Rvla3pmifHmy/wCFVfBPR5L0teWmuX0Yt3cuhKabGb7SEZpIyxbzI5Dgx4r16cOSPKfntWs6snIx/An7I+uf8LC+Av7JdjqWrb/hbqFl8YvFl/PcSeVqIj1m6gewu5Fj/eSPa3VsfJmgTdCIyZAm0H9jrSxhDExSP74Ir5h/4JZ/BHxr8IP2eLzWPijHDL8SfGWs3GparMb/APtO5gRY4LOFZL1gGn/c2cTDptBVAPkyfqKwn87d8+7GPXitDEc0LRj92se7uWHWpqKKACiiigAr8TfiTx/wW/h/6/tc/wDQtUr9sq/E34lf8pv4f+v7XP8A0LVKzxX+7T+X6n1nB/8Avkv8P6o+2UP+it/wL+Zqu02w8/zqdP8Aj1b/AIF/M1XcqG+avJp/CfQVNxyzK3ZaVAHbavHHQd6YrRmnZGPk61qtjMU/uH9Mj6UkmJGPAxmlA+T9560mQenTtVsmQE5XHb0oBwKKKkkN1CrtJz/F0z2op2/jDf8AAaCogg8nlvm+tN2mMYb5m9T1oKM33vu0S7kmCv8AfoKFVvL/ANZ8wPTd2pcFPl/i6Z70XIESKZfunpinN5mfmH7z696iUW9hXWxT1K4ks7OR41ZpFwBtOG60T2j6ikMyzNCzxJuUc4O0Zzz1zmrJkkj52BmHbdjmp9Njku7mfzIzKqhNq5C7Mjnnv+PpVwpvqYVE46nxj/wcAGQf8Ej/AIuO0Lqs02kFCRwFOs2JGPavsyOGMqshuFXkrjPXp71+R/8AwcE/HfxneaF49+H9r4gi0/wavgjTNZutI+xxSte48RwwoBMY/MQhhC3D4PkkYO459Y+I3xm/aK+HGkR3l98d11qOaZYViHgvTbfyyVc7shDn7uMVtKm2lb+tjy3mEI136L8G/wDM/RSdi9zKFXYrPnjow2qMfTIP5mhzskU+9eYfscfEvUvjB+zd4V8RatcfbNS1BLkSzFFjLql5cRqCqqqjAXsOe9enyZ3Lu9ay5WtGepTrKpG6I9qrKdqqv0FOoZlMhxRSNoprcAMkU66I+XbgfSm79oohiMx+lMoI0z94Z+ooefy3x2+tSLuH3eajkP70bl/Wny6XC3LJSJPM3nd0HSmrKrtjC0k0bO42/d70mrWwt9OkdfvAVnKqomlJ1KleLgtLo+ef+Cg6bfA/w/R5PJabx3pqDdxwY7jJ/Dj86+I/2mrBbH/gp58E1+1iVPtehkv2Qf2tL7/jXZfBP9o7xx+2E8lvrXiY3Gm+FdTsdTNqdOt0+0SDzgMOiIynaHHcfPk9BWh8dvgPqXjL40aL440fxNH4c1Lw3Fby2sUlgLplmgmeZJBklD8xX5WBHy88GvruDcQnUfMrXT/NHLxpUTpqmuln+Z+hDs277pg3csvTy8dAfr1/CkjtopCyteRwqnCyEjEvfjnt0714z/wT9+NuuftE/sieEPGXiS6+2a1q320XE3lpHv8ALvZ4lysaIowkajhecc89fZo7rymZsxfvP7zNjj0wpP5gfjX1WMpqjUlBas/Naclycw3aJB86gZ7EdKWUbkOOvtSFNwx6cc0sce0/7xxXCA6FPLt29dvWoIg0yOuW3YGD3FSMWSUKe5xUrJ5Lrt+83SgBiDbF5Z5YjGe9Ot4fIB8wbt3I3DpSNCxfd/F1pH3ufm7dKAIjLu6/zpxuVjXcyhu3JpMn0px5QZX9aAEW5AO4qNvp2pfNWZhtULz2pFWTuv7v607Dbfu7VHTmgBCWEy/McY6UwsRIdzFl54NSAZTdSsiiPc3pQAkaKIWLKrdSMjpTViLgNzjsPSnxj9yxbp2+lMEcrrlfu9qAHN8v3ufrR5gZe3y0DCfepC0c33M/L1zSewDS3zUu3zV2jgjnilS3y1PaIo+1OXxk/SoAav7ngjP1pPtIQ/d/WlJx9/rSFWb7q5HbmqiBG02T92lB28/3uakE7J/B+tR7vLZi4+8ciqAcn7ypII/Om2/3V546nNR7ln+WL73vUlvE7zbV++q/Pn68UAaHhjRYdX1maGa8i0+KGIyF3A2uQV+XkjrnP4Vc03wxBqPiLTdPt76Fv7RuUty0ahtm5lUHAPPXpxWXpfhPxL4u1Gay8M6fZ6lqHll5o7m9FqixcBmDbGydxUYwOpOeKTS/Dvi/wzr2nzRafp41j7Qj6ZEb4eXPOrAorv5Z2AtsG7a2AScHGD+V5hjuIVxFGlRo/wCza3lddnbp3se9Tp4P6m5Sl7/b7jp/GPww/wCEZ+Ktn4b/ALS82S7lgjMvk7WQyEAfJuOcAg9eadYfCBdR+LzeGF1NdyyyReaINxykbMfk3f7OMZ4rJ8RP8SLv4mR6lruk6PZ+M2ngls7KHVBPbs6hRCGn8hAoZlGT5R2g9G6VBZ3XxI8OfEqbWk0nRW8bLPNM9k2qhbVXcNvXz/s54EbMQfJ5IxgZyPuqmKlCPNNpK3U8VRu7JHY+AfgDH461K8ht9ZTbZpC5eO280EuZBjh+MbPxzXM+PPB0Xgrxa1h9sjuFj3I77AgQqzDkZOCcetHwju/jP4U+2jwzonh3VLqVo2vVn1tbVUQbvK2k2r7iT5ueBjA5OeMPxvD4qW91Cbxha2Gn6veTtNJFaXf2uNVL527/AC4+VfePujIwfYVh6jrLmpyTja+mpEk4O0lZnqkH7P8ApFt4e0vUNT8X6bpC6pbLPCt1CkYk3KrEKWlG7buHI9R0zWT4j+D/AIY0vTZ7m3+IWg3U0ETypbxtFunYZYIMTE5J46H6VD+0P+yxaftFfD/4cyX2gf21Hpejp5T/AG42/leZb2oPAkTOfLHXONvbPPi+ofsMeH/hXrWnX0nhf7BPHMJ7d/7Sllw0bBgceaw4yvB6+9dmWxqTrJqdg67HzN4r8Sjwh+118TL+O1GpG31y1xErbfM3aHpy9cHpnPTtVvXf2pPFHw88JajottpevT6Jp8U17GIr6WO1C/NciMIEKqFY7cjuM4HSuv8Ag38EoPjp/wAFBfHHhltQ/s06hrqKJfIMwTy/DtjL03rnO3HXv+Fc7+0h4ZXwZaePtHSb7QukxajZiXZs8wRrIm7GTjO3OMn61XFdZc8YrdRO7J6SnWtLv+qPS/hHrkniXw5qEuj6C1hb6R5mowrZplLi6jVCsa7UAEjAjBGWGBwa665+IF54e1GS3m8FXWsQ3TCRWdG22yEBDGMxNxlWftzIeO57P9k34dW8n7PGrax9sYCHWpoFTyeWYW0T9d3A/A10vh17XVvFemaS0ksUmpXMVuriPcqb3C5PI6Zr4WjKaWqPs8X9Wd3GWiPFx4p1zwnpUkOoeHdW8W3jyo8U9wsjywxkOGRdyOduQpOCBkj2ol+OOr+FtNhs5Ph/qWoSrI8vmMXDKkipKsePJPyx7zGOcfuzwOg9p16C2028RLeSWVWTcS8ew5z6bj7d6nNjYW3hq1v7qa4Vrm5mt9iQhseWkL5zvHUSjt2Na88npY4alGlFc99Dxef4j6vd2K2tv4L1Kx1JD5Emqxq4nuDHw0hYRBj5m3ccsfvdT1pl3rOteItPhs10TVLa/s086e/CyNNdneQEY7QchXXqx4jHGMY9e08C4v1S4ZkteclFDMOOOMjv71d8TaZBox08Wk0k32+0N2N8ezaBNJER94948/jS9pK17FOhSjL2berPN/Ceo3fiDww82sabcabfaJMqwXF4D5zR2+yRXVmAKqxDYwSAcnJqO8+JTaHHZ6OPA7XdjY3AM7BcRXUcmVwy+URtRpVfkkZiHQ8j23wP+zjdfFrSPOvpIbfS3lEcmSWYkBXUgKQeWK9xXJeH0j8Q6lZwbnWO6nSIsV5UFgpOM9vTNHNJa2BRpSbinseb3vxFhsri9tl8AxyW7yK1tKIxstU2JlE/dYClw7cEDdI3Gc5zdU+JWo+GNCe+tfA97qmoJdC1jjiVvONs8fnBgRET5aFhHjG3K9ug9y+IXhGDwHr1lbxXD3H2i188O0XlquXkTB+Zj/D2B6iub8feL/Dnw8XTbDVL2/m13VrUatFp9lZ+Yy2jPJEJTI7xp9+MjbndyDjGcPmlfYjlo236nJ6H8b5/C8N3b/8ACBzXUUN5LbwjJVRGm0K6jyj8rZ4xx8vU1n/EjxRquiand6ppGi6hcal4b2fZms94nvPPCq+xlUsu1Sc43ZGc4rv22pz/AHueKi+LPxX8E/Brx7e+G9RHiy9vtPWJpZLLTbdof3kSSrgyXaMflcA/KOQe2CVByk7o0rypU48k2eX6f8aPEWovcabceD9ahuXt4rg6jI8vmebO8RYcx53R+cxJ3Z/cn7vONrwTq2rR+NobO+tdRuY5IWk+2TlysR5wvzA+nr/FXtWveBrGH4RaD4usLu4ktPEHlNBBPbCKaIPG8nz4kdcjaQQCRnoSKp/D7wHN47v5I0uIrW3gjMks0gLBQCo+6OTkso/GnKUr8rQ6PsPZ+1T0R434++JOoaVqlquleD7wpcQyeb9kDKIWQFkZtsfUk4GccrxmqC/E3XvBUlrdjwzq2uXFzCt3gGTfbmQEGHPlsfl5Pbr0FdZpv7WPwl161abTb3xVqmjo4jutci0dI7TTGOM+ZHJcrO20EMfLifhhjJyB6bq/wymt/B1j4k069t9U8P6pZQaja3aq0LSwzYMZMbgMpKspweRnHarfPFbGUZUKsrXsz551D4+eItLfzbPwXrUkDsYRBDJKETaAxfiLHzeZt6f8s+p6C14n+JfiTwvrbWOieHdcj0m/WOV0sWljt4yyBWBVE2ngAnpkGvpD4K/B+H4oDUka8+yy6f5RbMO8MH34/iHTYfzFeL6z+2F8F9G1e6s5/EviIzWczwuV0Biu5WIOP33TIojzy1sY1JUISdNt3XkcjcfEPWLKS7LeEtSvI5ZIzZxEOVs0Ct5gj/dnAdihbGOVXOTitfVNa1jSdC0G++w6lfRTRXUlzp/z7ULj9yjjB/1ZYbcr1QYA7e1+M/CunaV4b0PVNM1CTUrbXPPMRa2MG0QuqNkFifvH9KzNO8OLL4b1rXL6RbHQ/DlpJqGo3ODK8UMaPIxWNeWO2NuBjnFRKUr8tjpp+xdP2l9DxnRvHutafeR6k3hvVGgffa/2ed4RXEbSCf7mMkqIx8ufmHPan6h8W9XkeW+bwXqSTCHakZL7gVdRwfKzyJW7dEPXPHaeCP2i/hn8QNYsNP0W68UahDqt7Dpsesf2VHFZ2lzM6xxxyI9yJuWeMbkiZR5g54bbP+3FYat+zj8FdU1zS9UhmuEji8mVIQDk3MKOu11I+7IDkj9ac606S5mgwsaFerGlCVr9zzxPj/4iltjJfeC9auIbciKGKeSVlAYHlcxYGAoHA71neJvjvcWOganrF3oc3hWHw7bSXsazXBgXUQiFyAxRQNuwAkbsb/z8q+Dfxu+LXxqvryA/EF9Bt7WJZotug2V2WBOAvKpjA75Oaj/ats/Cvhn9rLw3ovjr40eKpvEXhLXo47Y23w+tmtpJ/MtyQHW9U7crGCWQ98A98o1KtZXijtxWEweBrXq1VLTZXPsT/gmb8GPP8J6r4u17w7/Y+reJXt2S2v8ATdlzZtbyXESkO6hmJARh8q4yvXg1sf8ABQf4J61+3ZYWfw38F/FLVPhte6JdprdxquivJdSyCIT27WrxxTwlcmdHJLnBjUbeQRsftj/8FI/h5+w5408P+D/EUWsap408aSyWXhjR7O3I/t+9Ag8u1E5PlQF5LqCPzJmVFMmSQFJHy3+y7/wTB+E/7QGi+LPDuuaxb+Kvi03ia81v4geIrSC/trP+39sUepWscTSwqy/aZGkWWKJIyrAKigbR00KXLK8j5HMMV7afu7HVWvxx+GutftWeA/D8Wp+B9L8A/s06XrL63ImoWo0e1uY/seh2VtcpxDYyEXl0YQ5LYgmjQHLMvQfsnePbf9rr/gqN8Qtc0nybz4b/AAn0O1g8OXlpONR0S9m1AWFxM9nIoEELxzafKr+WWLOzklShB8N/Zx+Bvwl/bLuV/Z3+Gsc93ovw7lhtvjVqd8Lq1GvXmnwXFrZRQxNKXjaW++0XObaRERbRkZmEiK3294HtPhr/AMEzvhR4R+G+m6bqjwKLyW0srAPMwQXHnSyM9xNwqveKMbyx8zgYU7eiV2zklZaI+j4L3zpVZU3Rydwcj0/pU9rbtb7t0jSbvXtXF/Df41ab8StOsZNNtdQt11K1kuoI7pUVkVZmhIbazDJdCep4I+ldnZNC27yfbPWp2JJ6KKKACiiigAr8Sfifu/4fgw7Qu37drn/oWqV+21fiT8Tpcf8ABcKFe327XO/+1qlZ4r/dp/L9T6zg/wD3yX+H9UfbKr/or/N/e7e5pHB/iwDinLay/ZXPb5j09zTJ2LuuCvTpkV5NP4T3qu4oLAfLilJYsNwA9MUxSyineZvYVqtjEST7/wCFIetLJ978KXaWPAJ/CrZURtFLtOehpM81JQ4Oyn7opsaKhcg5aT7w9Kcsy9P4qTZtc853dR/d+tBMhYgYpNy/MfQ1EVXyMKx2+tSqwjOfvew5qEALb7d6s3sRxQSIVjjjGxmY98ipf9WPpUQgZE/vfSp/L81d38J5zVRGhvld9pb2BwTVzRrprPzNsPmbsf8ALTGOvHTt0/CqkkzQx7o0WVl/hLhAfxPFJunkRTCy2/dxlW5+p9DnpV+0MqkubQ/J3/g4P+BXjjRvD3jzx1L4X1GfwfceBNL0mXWY7ixS3trlvEkE4DRG5NwVK7QCsTcyLnADFfXvjr8Mvip8S/D0NnZfBnx1btDcRzNJc6n4eVCAso2gLqbHPzZ9K9C/4OBZpLr/AIJEfFYTXDXclv8A2NGspi8v92NZsQBj6nOevNfXuqafHJGFtz5vILZBXHX1+tP2rSX9djx5ZepV2vJP72/8jzj9jb4f6x8J/wBmXwr4b161ax1TTEujLAxjZkEl5cSKd0cjochh0PHevTKlvAPP2qm3ygIwQ24MPvcH6saixWTlfU9alRVOOgDk0b1Y4XJbtmhjsHShbVoH3Nxt65qNEbXb3BkYFd+F5+XHenXJ37fM+X0xTbidZWi5C88ZP3vpS3o3qv8ACM9TxTugGONzj2FNeMbqcGEkm1WG4DkZomAWVVLAFhwD3qnJtaBzJp3GyG3W4jDbmkVg4G/aDj32mvm2D9uLXtaxbWPgrR5vkbaZfEMsOV2nk4tGwenGK+lDCqaivmQqzBQSTJt2rnrj096/P/wr4u0PQmRrrVLGzuI4DG6SSgMj4wVIJ6g54x2rz6mrPey+KjRlOFPmfz/zOZ/Zd/Z01b4FXeqLq11Y3g1WW2eM2rMPKERk3Fty8/6wcD0NbPxo/ah8JfB34naf4Z1K4vJNW1WKGa1jit2ZX8yRo0BbgAl0P0GK7Gz+L3he7u41XVdIupp2Frbol+mXmkPyKMHlmKnA74r5n/an8IWfiz/gol8H7XULPEOoyaPBOhlYZRtVmQ8ggj5fTBr9F4Lw0HO8+l3v5o/N+Ka2I5ueUWr2W3kfZ3/BJfwZffD7/gn54A0fUYfJvLP+0fMTer7d2pXTjlSR0YdK+jk6Vk+C/BOj/Djw1baLoNr9j0qy3eRD5jybNzF2+ZyWOWZjye/pWsrYFfRZlKNSrKpT3PnaUV7Kw6myLvjZf7wxTs5Ge3rRjcvHNeettQI4h5S7V+bjHNCQ+Sfc9KkVVRN2RkDpmozKZR/d2+tADvm/2aPm/wBmmgyGgs4/yKACNmidvu9aJEMkO7/a7U1Qzs31qSP7m0+uaAGkgqo/ukU4OWb5eeOc1Go3Ow+uKdFJ5IbcDlhgUAOhZVLY+8TzUccaxTbt2W54p0EeGZmYYY5ApoDGb2yaAFdfMb60rRKrqSx3KOB60uAp+9SMDI4b+EUALcOLv/WfJ34pTLvjVG+VV702aPzP9X2PYU4qDHjjd35oAGO1ML8y+tRqMR/LgrnvT9yqm3IJ9qjMcka496AJ08z/AGahO5T/AA+tOVpAOv8AKjYxX5uPrRdIBv2RlPmU6V921pPlyPlxzkU4tIyYwdvrimzjzwoUf6sbfrQtdgHyP58O1fu8c0xVjVArFsj0pxxDFgctx0poTzOSMU7NAdB8Nfjb/wAKA1+bWo/DeteKmurdrL7JpsttFLGGZX8wm4liTaPLxgMWyw4xkjmfCvxCvrHXrPWLjw7qatolxHeJaie2Mt7sYP5aHzdoY7QAXZRlhyBkj0L9nzwdofjDxnc2uvNAtmlk0qebOYV8wPGByGXnBbjNYej3Oga54x0O1ighhtJ72KK6P2pmXYzqDk5G0Y3c5FeTX9n7V33LWxV8R/Hefxv8T18bt4T1zS/sdxBcLpNzPaNeTiAIdqtHM0ILlSF3SADIyVr4x+JX/BUF5/2+te0298O3mneHZLy4WWGS1ikv7ZzasSrSJdGMkS8EqpG0cE/er7y+IPhzw7pfx6s9FsVtv7HNzaxTMt0WQhyhclixI4b+9xjtXzM3/BPv4ZePv+Cm2oXmoWUh0C81K6aaIm8W1kK2bgt9qEoUbpF3cHAJ2+1c9bJcuzLDTw+NbUeV7Oz1Vuz7muHxVShUVSG50fwu/wCCrnhH9nHxJ4gN34d8Sa/a3FjaXONOSBZbby2utxcTSIpDDG3YScq+7Hy54P8AaV/bw0T4rLpsuh6bqWm+JfiG89xoVvqkSNBHDGY7pzP5UhwTFKwAVvvL6dfYfgp+wr8H/i58QvE02saRDDpf9m6faJBNqF3GshMl6ZdsnnISSrRggZK/KeN1eRftRfs1+BfCXxPt4dBsZLf/AIRBJbbQrmJrm5i0pWd4ZMsXZZPMhRExISV2hhy2T7/B3DOVZbQWX4PmlyQdrtu+73sr79jHMMbVxFV1Z21Z9VeN/Gvjax/Z9+Ea6Pf+F9Pum8NWjX/23SZ71JJDZ2p/dbLqEooJf724kFemDnz6fUvFniy7t28San4dvPsrZtxpmkTWW0E/Nu8y5m3Z2rjG3HPXPHV23xv+D3iL4UeBdN1T4yeDtI1Lw/oltZX1tcTxrKk6W8MbqymRSrK0bAr2Jx2rPn8c/BdYna2+N3gm6nRSYoY54i8zckKAJSck8DANGDp06VX3oSTV+jM4t31PHv2IEaL/AIKt+JFGN39vNjP/AGK9pWR+1F4o+FMPjj4jW+seGfjQ6i91NL65sZtG8kjfKJHiDzB9v3ioZd2MZGeKrfswfGfwX8Of+CmHizxJqnijSbPw3b66C2qXEoht8N4as4gST0/eHZ9a4z9qfXrHxZffEjVtLuor/S9SbVLq0uoTujuIX81kdT3VlIIPoa8nif3a6k1py9fmellEHOtyp21/VH2x+zjceHbn9knWD4atPE1jY/8ACQzCSPXGtmuDJ9jjyV+zsybNu0DJ3ZDdsVk+B8f8Lk8LbPmX+0rTk/8AXda439kj9o7wDJ+zrqHhkeMNBk1/UPEEj2thHdLJPOHtoo02qpPV/lHvXRaX4w0fwJ8RNB1DWNSs9Ps7G5gvJ555AqRQpLlnJ/ugKxJ9jXy3Mm1Y+glh6kKU1Z7m9qcyx3X+8o/mf8aj8QkN4A03/sK3v/oiyq1f/FT4E3Mwb/hdng2PC4wZV/8Ajla2h638IPiF4fWx0r4teFb4abdSXMskLq23zkiQAjzOP9Qe/Oe2ObjTkpXOXEYqm6Sjrf0Zy8N4JJFj3L9MHNdF4ms9N8O+H9I8V+JbyTTPCuj6MVvbyKMzSRs+oTRoBGoLHLyxjIGACfSsH4gQaf8ADXX9T+2X6x2OlztBJdSRlEBDbPf+Ljqap/FD4ueD/jb8A9N+H+gaxa6tql9Nt1lYN7fZLNJZbhdxwFz5y23yhg+JFP3c5iirRdzbGSlOrGVPql+JseEviHdfGL44eDdR0uOHT/Cumy2tlai6iMl3qsMcheK7RlcCFZAyHy3jLrtbOMjFH4eQ/wDE00hvvf6XHj/v4Kr/AAx1DRPgwug3Wsahb6To/h97ZJru4bbFFGhRAzEk4HTqTTfCfiGz0BbHUL26itNNsZluLm4kOEgiR9zufYKCT9KKlRNIrD0XTlJPsdJ+0p8VvB3wx8a6LceKrPxlsj0oSPeaXDaSWkKNcXCKreZMs28t/djZcMvP3sZfiPRm8Q6xY+Mo5Fk0nXdJtf7HwNrrZeUgj84H/ltmNi23CjIAzjc2f8btb8BftKXln/ZuoWHinS47NbOeW0uXCpIk0k3lkqQQQHRvow7VLo3xZ8E6P8K9M8K+IPFmi+Hde8MzvZ29pfXCwu+nK8jWzruKhlEckce7LEmNtx3bgHLWOm5jh4Sp1FOW17F3RvCl54m8z7Kit5GN+WAxnOOv0NaPxM1lPEHxI164i/1cN7JZ4I5zAxgY/iYyan+H37R3wn+GdtdW+ta1dXurSSBZ7ey0nULxrMoMEP8AZ43C5YuAWxnY2M4OOR0HUbzWtP8A7R1C3azv9Wll1G6t2YMbeWeRpnjJAAO1nK5AAOM4HSpceWCOynJ1sRKVtEj2P4lsU/Zr8I4H/L6n/oq4rz6KKPxl8NPFfhyF2XU7iyiuVXHy+Wt5a856ZyOma1PFXx+8E+MfhbofhHSfE2k6h4n0a6332mQzhrm0CJMjl16jazqp92HrXG+FPiDp/wAKvirHrXiJbqXwjqGntpd+be1muGsm3+ck2yBHlcGSKOPaoAHmbicAg1dcyOONOXsJO3V/mQ3WjJqOl3FmS4t7lGjkYEblDDBxXr1k8nwv/Y71Oa8Vfs9m9sLcj5meEtbIhbH8R79PoK87PxU+B6X8ckfxk8C/ZFIMsL6jDHcSYPRIWl82TPQbFOTwMnisz4q/tGSfF+5t/Bng2yurr4d3FpHBd6xJE9uhnhZpFKRzxrLIjCODDxsUO/gnDUU01dyKxEo1nGNFHtf7HPF34m/3LT+c9eKQM3lI3sDXa/A79o/wJ8DdS1iPxj4s0Pw5JqUdu9qt/crD54QzBiueuNy5+orhbK6S8sLeSGRXjmiV42H8akZBH1pS+BHRh6d8RVbXY7z4h28l58LvAQjUs2zUjgY6efH6kfzqT4YatFrHwk+JGm/YL7U30e2tZJLWzljgnnO6WTarynywfl7nHv3rl7743eE/HXg/wvpWg+J9LvdT0WK9N9BBIJJLVZZkZN6/w7gMjPUCsDRPizcfAvx5Jd3yu3gjxYjJ4ivlXI0uKOFkjnKKrSSLvlLt5e0IqksQoJD5kqhn9XnPCtRT0d/lcqRfEa20nMZ+F3xFDQ/6SQ2vaOeB3yH6cfWvNP2uvjVq3xt+Ec3w08I/DnxIPFGrK2oWVne6rp7G5jjntTM/m+akaKixqMMdzNIuAQGK+ueOfjV8E/GGjXh8M/GnwNY6pLbm2RL69is5VBODIqXUqFwu4EAD5ipAOc4g/ZR+FHg2/wDiJqHja++JGi/Ea48O2H2KNNMiURaak8g37pbaV0LSMsfyMNyiHIwGNZVY1J3jbQ7MBPBYeH1ipJ+0jsn/AJWX5niX/BLj9lPx1efFjxFa+KvC2peE1h0nm5uL2wuIXmEyAxqILiV/7xBKgYU85IB+VP22vjLJ+05/wUrXR/CPh3Wry98L+NUa+edrWC3WG8uIJLSUM024rJEm8gIXXOCob5a/afXvGvws/ZksbHxBrHiDRfBv/CUJmCfULxlF3wsjBRI3bcpOAMZFfEXwL/Zy/ZL+G/xi8beLdc+NngXxZ468Q3lpcpdi8ksZNKkt/MFqDAl0UcrG0SjKrv8AJyQS5rpw9PkjY+ZzTHSxVb2jPYv2uvihN8MP2qX/AOEd8Fa/458Yapd2g0yODVLPTtM0+8SG3Fv9teY+aYJHdNxt0kdVST5SSoOH/wAEWtO8C+Er34heHfAuvax4qk0HXtRsfFeqXtiLCCTxBCbOO8W0gJZ0tDhHjDu7AMQXYjNe0X9r8Nvjre+LPiN4Q1jSfHGs6FbJqNvHp963+izwwt5IYq+352g43Jj5Dwec8L+yd8LPh5/wTHebSvEnifTLPXfE9uda8Ta7du1svifXJ/KW71DyTJJHbG4e2aT7PERHHghVAHO2uxxHoHwA/ZduP2dPgxp6+BrpNR8SSWGntGuvS7LKYxRNG5zChdBsncjIJyEHAya2fGfxzvvgx4Sa4+JGk29vqmvyf2bbDw7cG8hunZX5VZhEUCqIwd7csxxgDI6zVfi34b+EHwy8O6p4p16w8P2UltDaxXF6/lrK7RBtq56nCE4HYE9q881K70X9r3xDfX7W/wDbXgfwfZS3WlX8Mjrb6teOIys0brsP7hobiMpl1YyZYAqoNeoXudf8DPEdt4t8QaXqFnDfQW9xoUuyO7REmXbeup3BHdeoJGGPGOhyB6zXivwA8R6A3xGXQdJuoPtei6LIlzZq7NJas1yJcNnnJWaNsHtIK9qqJbjCiiikAUUUUAFfiR8S4d3/AAW8jb/p/wBc/wDQtUr9t6/Er4msV/4LeQr/ANP+uf8AoWqVniv92n8v1PrOD/8AfJf4f1R9ui5P2J/o39ahkjVCox823IqdbdTYueejf1qGTDyrkfw9e9eXR+E9+ruRMrbuvHpTkPNEg2sMMcGnFdhrQy5WElJGXU8E0u5WPOaYhaSRgzYUHjb1oDYX95vzmlMig/dG7196Qlt23cdv604RMehGO3rQPmGkqRwvzdzSrLwfl5/j96XEg/u/XvTFLK7DP1x3oExyzqT8i/NUatGOka08jacr8pp6s3lkn9KCRolwOFFIzFDtU4j7D2oS5Zyfmbj6UibjHu/TtQApj3r/ALPenKFVcUId3r9O1HljNA+U+N/+C/rsP+CR3xaX+E/2P/6ebCvsiOvjn/g4C5/4JHfFr/uD/wDp5sa+xpf9GGW9unvn/A1X2V8/0MIaYiXpH85DmUsq+3WozLkcUrbmnWFjhydo29Mn1qKO9jnjeSJW2xDL7hzj2/KpOnmJYomR/wB5/H8qZ5Ct2OO/0NOdJW+Z2/dsflUgHaT0yepx79e/Wku99s7RyN5ki8kdU/z9eKhN1JMTu2t9RnP1Pf8AHr3olyq3tBOWg64dYHjjlkjVc4dvJByP9nj5fquD3rzX44ftgfDv9n3xRZaN4m1d9Kur61N7DBJBdXZZN+wvvWN+pGME8bSccmvTrWfzEa1+6bgeWgUbUBPHIHbnsK+d5v8Agnh4y0b44S3Vp441C20e60KOKS7j125XVHnS4crGT5Xl/ZwrscY37yecYr7Hh/KcDidMTc8zFYmUVod9pv7WPgOP43X/AIJvteWx1jS9NF7cwf2fPKV3NHtO8R4OVkTgMfpnOKX7RP7Yvw9/ZbvtD0/xt4iGit4oWeexLafc3cmyLYWw8UbkfeUYJXqeDzXmnwZ/4JQ6x4i+KWsah8ULzw/e+EmtvKsdJ0LUrxUW5AgxcOkkYAbb56fI23BT5dxZqo/tVfsnftCftAXvg+J9Z+FtxoI0CCTWdHub7VLW11PUHLNKzG3RZfJRkheILIjBlbcCDg+/iOGcBFv2DfzOKnjub3VHU+mdC8XW/iywk1KGRba0RjatuTzSzABiMkBsYPTpxWNL+zh4LvZWuLrwP4RmaYmTe+j2xLuecn5Opyetb3hb4VL8HtOk08ad4f09ppDc+XpNuIrc5AXcU2qC/wAmCcZwAM9q0DENjdW46Mcj8q/Oc2w1GlV5aR9FluOxNH4XofMP7bHwc8I+FPDHgefQPBvh3w7dN4xsN09lYwxuwCTEAlVB4PNfH/7R8LRf8FLfgusj+afteidtvH9qycV9vf8ABRK7N34E8A+YsZx4209RhAOsc+f5V8O/tESCD/gpb8EY1G1Xu9Ezx66vKK+n4Ko/vpej/NGPGWI58LF26r9T9Ry6oPuAUiTLIOVFOtFwNu5to6ZOTTlBZm+bA7Yr3cR7tZn5nS3Eg2v8u07nJKtu4Uem3oeh5Pr7Cnf6ncvVsElugI6Yx068569ulMkLo7Kp+XPcnn6joT9R/IUBWQZ4x6f/AFumffr26ViUNoKeYNopxXC5qNWYuo6fSgBrLIhxzTlheXvUwH+0aQqT/Ew+lVyi5hvnq/8ACFpVgaRvlP4UisS/3jtzx61Ig3z7QzKMZyOtHKHMMC7H2r/rPWiU+T8zLubpzSyjyXyud2cZPWlVWPzbmqQ5hiSCT+HFOaHYM5pHbBpqLluaAuhCu408RNx/d706MBc7vwxUltazXwZlZVRW24z1/wA5qfaR2Q7IhlP/ADzOPXFRq+8Fe/epA6x7N2V3Lzs9eKhimSdWZQwZeue9ab6grDlTa1SF96/jTC5dNvFMa7js4MyeYfmx8v8An2NUqdytCSpDHkZbp/SmPcQRBd3nfN6YqwLUm3d2b7ueB7URjG+1xSaI/Kk29Tt9KTzQP4aF1CFraT5rjMbbQOMY4qGS7RI1xvySew6cVTpyeySJ5hzTAHpT0bcuadbWMmoXDLCyjgsu/wBPfHfmnXem3WlFWnaBo5M7PLJ3cY65/Gs40ZX1YuZG18Pvggvx81mTR21bWNHFtCbzztOv7mzlbayptLwSxOV/eZwWIyAcZAIwG+FWhaFIlpa6pqLQ6mfJnmFzdLJbr03Ixk3qw3EgoVYEA5yARteAvC/ijx1qc1r4O8V6h4O1SGMyS3tqtuWlhBUNF++gmXBZkbhQfkHIGQcmD4V6lpGoWunyeINQurzWJBb2k8hhP2RyQoYYiA6up5Vh8vTsfnM6p43lksHbm6XOnDyo8y9psR6B8LtJutbtdBsdZ1q9i1e4S3N9c6heTXaNIRHlZpZTMCoxghxtwMEda2dI/ZzsdU+KDeA4tb1xds0sJv01G8S93IrSMfPEwmySpBPm5IyCSDg1b34MeJfh9r8OkN4g/wCJxIyPa6jEYzJaOxwjrmEJlGG4bo2GRyGHFXtJ+Cvj278TAaf44urXxFI7v/brfZ/thkIJkYj7MYPmG5f9VjDcAHkeJw/WzH6tCjmcoqtbW17dL/mjpxsaLm5YdPl8zDuP2IJfjp9osPCvxA8VeFU0yIO8thf30bSyT7lBYrdRk7PJyMkgbjjbk5+XPj5+yIPhn48l8O3vjH4heItQZD59y/i/WLfznSR1YlftjDJKFuvf2r6U8Q/DD4wWEs2n/DP4kzeHdWhg+0Xk94ts0d1v3LbKc2cnCNHMThVOJOrcBfFfiN4X8aeG/G9rD448QR+JPFBg867vkKrG7sXD7QkUQ2mRZGHyA4b8B9pLGYjArmjK11bTc8zlizxfxv8A8E7tD8LWdjqOsaD4gkOvL9qglfxffu1wCquXJF0Tk+YpO7BO72NZEP7GngC1mMjWev2d7GEeBU8TaplSFG07hcYzuB5Nfb37c91t+EPwVjkUSsfD6sA2SoxaWOe/vXzWk7QXcckbNCkbBmEYCk4Occde+M88mvMpZ9jY1LyqN+pvTpw5tSHwj+xxH4R+GF5r3/CKyXWg6hcfap9U1HV21Fi+UtxujnleRuY1UDGBwQOM0i6NaQaWunyQpcBIhA9mB5cMkYGGTaPkClMjAFfaFzdy6p/wSxhMc0q+YnVmyeNZbr19K+O7XwxN8QfEUfgHS7j7D4q169Gk2ty8cf2O2eaTYsnmFHlBVWByVbDDoV4rgzLGVMZJOq7mlKo6FXnh/Wp4n4k0O/0j9qf4f+Dfhfp0Om+P9W1HTprvy2jKabpMl2YXvgs37h3jmEXyqRMcYBC5NfUV1+1JofhTxbpvg7412mm+D/G0jx21xo1xZLrS3dvM5MbGW3haEK6uVKZ42kn7xr2D9lT9kj4Mf8EofHi6Zo+sfFfxVrPiQALfa4uk3k0Uc8kSiL7THbwTrGHtQ2wMVBZmA3EEfcHiPwnpeuw31tqen2d9aSRmC4hlhV0njZPmRlIwwIYgg8EV49bCO94H2VDixW5K9O68tz4J8M/AfwDqVg00Pg/wjMqyMmyTRLdyThTncyZ49P8Aa+tJ4l+CGn6P5DeGNN0Hwm0wb7ULTR7ZhdgY2MRgAYy/H+0a+kdd/wCCa/wvl1S3g8O2Op+AZJYnkf8A4RW7/suG5ClQfNiRfKZvnXDlN+Bjdjg5/hv9kgWtzqGk6L4j1zVl0ibyZZdfniaVM8qqPDCpdQM8yZbpyazVPEx1izatjcqqr3G15NHlGg2mpeI/B0Vv40u4fEGr3habUZZrSKOO7kaQvuMSfux2OBwCKm0LwHovha7luNK0fS7GefiSS2tY4Wk6DkgAn7q9f7o9K4Gw/ay8OzftIax8J2sdZHizQLm4tru4WCH+znMOdxjfzPMOeMbkGec4r6A0DwZp9p8M5/GGvyXjaJbnYYrBl+1FjKsY4cBcZbJ+bp+VTCUpy5ep1VsPChSVSUvd0tbfyOF17R7XxNpk1jqdna31ncKFlt7iJZYpQDkblIIPIB5Han3Ok2t/p8tnNb28tpcI0UkDxho5EbhlK9CCCcg9c12Xw5vfh/8AGe/l03w7H4sttQ82a3ibUPIWHzI4y5LFCx2kDsM59Kz/AAp4Ye88baVaXBjaG4vYYpApPKs6g9vernTcWkzlp4qhKLkr6DPhJ+zh9tsD/wAI7oem6Zp8k7F2tIYYFMgQZJUFckgKM+gHpWh43/ZN8DJqK3ni46HJqOxYDJd6Ct3Kg5YJv+Y46nritv4xfALVPif8RbXwra6xNbeDILRbe90k3kkMN3MC9yJCEXkhni5yP9WBjjmvbf8ABMf4cW9irW/hXwy2oBttzNPp9vIZWIyxLmEuxJwcsSTyTzXTGml3Z5Esc5u11Feh5rb+HPDtzdzahp9hpsseo4lF0tmsb3aElkZsjdzuJw3I3HvmtLzKmGpeHfBFxNZ65DqmImMVuumrHsUJwQQ+OPu4x71oeLPCjeHvFGpWKyK0dncPEhJyxUMQM8DnGK5ZKW57tOtBP2a3OP0z4daFpXiW41iz0TR7PU7rcbi8hso47icMQW3SABmyQCcnkite8t7e6s2hkijlVsZV03Kec9DxW94c0G2vtI1q7unuFh0vT5rrbCRuZlZVA5HTLc9OO9c1pN7Hr8TTWqsqIdh83hs8Htn1FEpJK7NKMXUbjBbbnJzfs4/D2bV4LlvAvg9riEAxyHRrfcmMkYOzsea6rTNOt9JSO3tYIbW3hGyOKJAiIoGAABwAAAMe1emWXgPwuvhhtWvJNe8tZ2gCwtFu4CdiP+mg79jTviF8NPDfgv4RXnjCOXWpLW1WFxEzRGQiV41HG0DjzB/F2796lCo1ocdPGUIy5Vv6Hj/iL4W+H/iTcRzatoWh61JarsQ3mnQzGEHnCl1OAfatqDR5be3UWccdvZ2qhPL2q2wL2UnkADoBwO1eCfCD41fEn9t7Q5vEXwRh8EaX4asZPss8fjWK5ivmm6kqtq0sezg9wfWvbfFn7P3gv4W6bprfFfXPiX4k8Vy6amoag2h621jpwHzAwxRQG2GwFGALJvIIy5PTCnGtV0R6uIlgcGlPEN69Ejy34y/Gf4e/sn6utxdaBo+n6lrB8pobe0Mckqoqnc0scTbtu5MA/wB/joa3fgl+z94+/bHv7PxLrl9ceH/hLqmJ4NBjaGY+IrNwwVPtMUkdzbKxRGZSAWWYowKhgfrP4F/DD4V/CD4f2/iDwT4J03w5Za0Wt3Nrp8MV3PskkwJXU7mAZXwC5wCOnQfLLf8ABTvxZ+1v+2lrnwU+DK2vhO18E+II9D8W6zrlkq6hBEzkNLpbI88LSBbe7x9qgK5aHK4L43jg5Xu2eRiuKqag6eEhZee57hpn7BXwB+CfgnVNc1r4Z+D7bT9Fim1K9utT07+2poreKPfJteUSyhQqMQidwSFyxz4D41+Lfhn9ojx7a/DL9leTQvA/h+O2XX/HfinRvD8VqbSL99FZ2bWlxDDJN5867xLC5MX2Yqw2ynPvnxV/Yl0zXdRsX+IHj74k/FC4uJI7XTNK8RXtoPD8VyGZ4LifT7S2t7a4aJwzKZ4pRnYSrGOPZ85/8FGfgdoP7MvwY0IatoPhvxZH4r11dH0DwRd6XbQ+BZ9R+zzXc1/qljaRWxuZFtLOVImkMypKtuwjUgyL3U4uK1PjcRWqV6vNI8Z8b/H74nfHz4g3Hwn8B6poP7SHi74cvdW99Y6x4X0rS18Nw2siWspDahCYp2klMa7kdnXyuCQ7Gq954CtJ/E958E/gx4C8G+LPiL4OkXRfid49vdG083VnqV2MpqK22oRMuEl+2ulvZzGONYkiUogiA+hP2TP2Mvif8TPh5Hd/EzxRpHgHwDNZWNz4U0L4LaneeETbxPE5jiu5beOCdo4IdkcUQneMb5C6uyxuv3d8Gfg54X+BvgXT/DPg3QdM8M+HdKTZaWGnW628MQZmcnaoALMzM7MclmdmYlmJNe0d9CZ8q0PmHwp/wT28Ufs26HaeH/gz4pl8I+G5iya5bT2UesXGowli6pJdX00k/Hm3ABDkqJABgKoH1H4o+C/hH4mqjeJvCfhrxA0OFifU9MgvG2jO0gyKSPvN/wB9H1NdPHYRxluGbd13uXx9Mk4/CpIYlgjVF4VRhQBwo9KpybAwvGHww8M/ETR7fT/EHh3Qtd0+zcSQWuoWEV1DAwUqGVHUhSFJGQOhIqz4X8C6H4K8PrpOi6PpWk6WgZVs7K0jt7dQxLMAiALyWYnjksT3rWxRipAx9G+HugeHdeutU0/Q9HsdUvhtuby3s44ri4GEXDuoDMMRoOT0RfQVsUUUAFFFFABRRRQAV+JHxRbH/Bb+H/r+1z/0LVK/bevxI+KIz/wXBh6/8f2uf+hapWeK1w016fqfV8ISSxjv2/VH3Csn+gP9G/rVdmwFb2xU0fNkw2t/F/M1AW+XaVavJoSTVkfR4iDhK0vMM+YM+nNLneaRWVR0akC/3fxzWxiO8nceDimggnaowy8E+tOQ465/ChhgZbgdiO9TKViZDUO99vr3qRRIvHy4HFRrL5524wp4z3ozIh2rllHAPrS5iRx8zd/DSSJg570oDE87s050WJNxk+buuw8VV2DTQ2JN3WmyzcbVGM0G7Uev4KaFXHLFC3YBh/jT1BajorXHOetNz/B+FOWbef3iYA6bZAP6Glxzlhn6CnyvsXGL6CLHsPWnUKPMk+649+v9KcyrGfm3f98mlZ9hu63R8a/8HAP/ACiN+LX/AHB//TzYV9hahcLaD98Nw4zxu65x0K+h/wDr54+PP+DgF1f/AIJH/FrY2R/xJ85U/wDQZsa+x4mFt/q/vc9fTj/Cqfwq/n+hyRu8RL/DH85CTxtC5lb70ZyTnJGADxwAfxH+JfcaWNP2x+XEv2g7cIzEN9c89+1M2LFs+YI6HK8E4/z71FFDHEjKFUK4wwUkbvzz+lRzG5Ksn26EXDbm8zjc3DHHHIHHbtSRwrnv0pr3bXM7NIoVj1csDn2wMf5FODR4+XO73kAH8qdSPtF6Fcul2RzbYp49rSxzMf3bJj5W7HkEdcdj9DVS+8L68bpZpviB4uWTZsDrbaWxxnOMfYwP61fRYWfcwVnQ5BV9/ln1+X+vpToYEWUtbq0xxglY2OK7MLjsRRXuTtYzdGjU3MMweILMusfj3xhvZtxQQaSiDgDOTYsc8Cm3nhLVrNLfzfHXjCRrWIQRKIdLVSF4wT9j7Z64OfQd+gknurW4MkE1xb3Dj55ljXcR/dw6kY4ByBnj61G0cS2ctusa+TJgCMSfcAOQATzx7kmun/WHHy911LfJf5Exy+nF3jEmfTdSsx5eraxfa1cHlZ7pYFdF7IPJhiXAOTypPJ5xgCF5to2/hRLfTzTK0kbt23b14/IU6WJYf+Wis7HAAGefwNeXiK7qP3tfM6I0bPsfPX/BQyHHgLwHz/zPGnf+i7ivh79pBdv/AAU2+B//AF96H/6d5a+4v+Cg11DN4C8B7pFVm8c6akaqwbe5juMLkdM4718R/tF2n/GzH4KicSQzLeaGERR5m7/ibSY5Ax1yK+v4LbVWTT6P9Dn4sp/7JG66/wCZ+oSErArL1Oc5qYHai/3u9Ni4t18hXZ2ydmwvtA9xgHtTZpoYXy7OAw44PXv2+le/iaNV1m1Fn5u+WNtUNLSMwPy5IpzFhH/DjNQ3F2sUqr5q7mGeRtxyfX6VVm8T6ekIaTUrG3QnBaSZABwT6imsHWe0WZ+1RcaQkYp0aAN/KsTU/in4N0C3V77xd4etA3V5b6JUU8A5O739a5+//am+GOmvH53xG8B26SEje/iKzPQdAvmZY/ToOelWsDib/Aw9omd/RXmd9+2V8KbP7vxG8Czqq7i41+1Tn027yT9enPtWXdft7/CG2cJ/wn3huSTGXFvdfaVX0G6MEdOevt2NdccqxMvsMnmR7Asa+Zs5+U4zRN/osvHLY6143J+3z8GIY/N/4ToOrZCeTo97N5hXggFISOvHH61g+If+Cm3wT8PSN9o8ZTRbWClrjRNQgUll3AAtbgZwemc8E+wznluIWjiHMj38N5x5+tK83ljFfJvi/wD4LHfCHRrGZdH8Q6LrF9GQEtpLuSzMmenMkOBklRg+tcN/w+y0uedlsfBNnqLJneIfE6nA9eLc9aqOVVWryaXqw5kfdqw+au7NRxtmTp618I3X/BZfXlPmW/wT1Sa2xuM8euNIgU/cPy2n8X1pH/4LN38ar/aHgCHQLfIWW8uLue4S2yQPmRYVLZOF4IxnPap+o007Sqw/8CQ7n3esnnswX5dvFRnXV0zzIvMmVs5+WNWB/M1+eXiD/gszfSXKrpOvfD2LdI8ZiudB1CR+o28/aU9SOnbtXFax/wAFgfj5Jq/l+HfD3gvWrOZisM9roV4qyHcQBhrljnG3v36Vosro/E6sP/Ag94/T6GdrkyfMzbThcgLgc/8A1qtCyCB/LUKvGcvk/wAq/Orwd+23+2V4uMe74MeMJ4pIBPE2keF5nyp28nMEvynIx0/Guqf4l/tXeN9KKW3w/wDjvoNwRuXzPAZuIpcNg5J0tduB0+YZz3xWcsRllP3Kk18tRpSex9yXVwmnx7n3fguf6ik0mOPxDYPMAPKjkCEOp64z0B/XP4HqPzj+JHwq/b18St/xTvhPxbf+ZCsoTVvCtrZHJY5yZFh6Ajjg5z6YHO+Hv+CdH7evxU1aS48W/BWz1QW8PlxStq+l6ayc5C7TeDcOWOcd+vGKf1/KErKo/uf+ZXs5n6kapapppVZgp3ZAwpbp/wACX+tcB8QP2mtF+Gd1qFjqFtq00lnG0khgijdSNu7gl1z+Qr4y8O/8ELPjprmnxyXnwpbS7zy0a4SPxXps6mQj5gP9JOADnuc56mvVNM/4N3vi5JpccemfEu68J27BlXT5/DVnqRtDkjPmi6TeDw344zXIsxy2D5lJv5MFTn1K99/wWe+E+ki6hk0D4gM8cpBK2Fpjg4/5+/aorD/gsz8M9fhZrHw543KwuUf7RaWyc8dNtyc/jiuz0/8A4NpPiJeLjU/2j9GvI5DulDfDhY2zjOMrqg6HnpXb+Ef+DYH4dTW8/wDwknjvW9QuN+UmsLZLNJP7zFGllIyeQMjHTnrRLiDL1tTb+bK9mzgvEn/BR5tG0r7TofhJrqVcRkXWqC1BU4weIZeeOmO/U14X8eP+C7GsfCG/tbXUfhlbXokzsaLxP04B6fYl/ma+3rD/AINhfgXpNz51v44+MVs5UqxTUtM2nOOz2Dfhz+dbGjf8G1vwD0ueSa61j4ma/JMPme91a1XHQcCC2iHQAf8A16mPE2CW9G/zHGnfc+P/ANhn/g4f8L2Pi6+1bxd4B1m30y4tZbWO20l0urhZvMhIZpJJYlKbQ/RAc7feuvvf+Csl3f8AjXw3rlnpMZ0HwzfJfa5Dc2Wbue2WSN2W2K3AUSFI5ADJkbinbNe5/H//AIIgfso/AfwJZ6xqHgdbu+kvUt1vNY8T6lD5r+XI6jEVzEm793nAHTPHptfs3/8ABPn9nN7LxFrF/wCA9J0ux0FIby4ux4h1NYraNRK7SSM90QqqqEknAABzX5fmXiNglnay2FKanLybjs3vt0PVp5TOWGeJTXKvPU+J/wBor/g4KufHH7cnhUeC/D2pWHgW6utLguotSW3F+oM4E5RV3qflPy5kHPp1rvtH/wCC39v8Kv20V/t5/GGpeEbCRluNKttM09WlL2ZAxJuD8SsH++OBjpxX6OfDbwR8F38JanrnhmTQbjwbo07ytqtrrUtxZxpHEkkztN5rLhCW3HOAF5712uk/HDwbaeFh4su9c8PWfhBJH8vW3v1WyMXmmKJ/OLbMM2wA5wSwx1qamW4qWYxxqqvlSa5bu2ri+9vs2+ZP1qKoex5Vfvp2a/U+B/hj/wAFO9H+EWual4m8daXrniDRvEUVvpulQWEMEdxaT2bTS3TyfOgKOl7ahMEnMUmQvGZde8J/Eb9tnxaPiJ8P9P8AA+k+A2UwuNe1W6XVlZy8yKIIbeSIqEnhBJnzkycYVS/3Fof7Yngix8LR3ni/xZ4S8PQ6hcy2tubrUY7dLgRpEZNpduSolTODwGX1rUsfiXpPxg+DmvahpOpadqmkWt+LS1ubGdZoZI1aJkYOCQcq6nOcEEHvX0GIxFWqlzNnnqKPJfi18Drrxp8Mvhrpt14P8O+KtW0DQobe7kufFd3osEL/AGa1VvK8qzuDIrMn8YQqFHXcQPNb79j66VWkb4X+E4YUBZxF8T75jjvgNo3P5ivrP4N/EHwt8Rr680/RNe0nWbzw9bwWuo29ndJNJp8oXYY5QpJRt0cgw2DlGHY13Os2qw6BeAfwwPj2+U1jp1RXLpdHzuv7PP8AwsX9jq18BwXF54JW8jOH0zUI9Sls9uoNP8k9xahX37cHdb8ByByA9eO2H/BP+y/ZM8Ja18Vta8Yar441z4c6dqevJJPYQ2QvpbOGeS3aSOIhTIpjiLFCiSOhPlxo/lL9OaZ8Z/Blz4vtfBv/AAlWgnxaqsDowvY/twO1p/8AVZ3f6rD9Pu89Ky/iZ4g8Y/Dr4l6hq11Yq/w5tyourmOESzwQyRKkkxCFpCsbuznEeAqHJC5YHKB+fP7OPjTxF/wVPivvG3wn+J/iW4uPCayW/wDZnxF8L6bZPcS2/lzZjvNMYrCGN1Eqs9pPs/euySgJHX3J+z18RPGnxx/YyufF2u6z/wAI74vSy1FZ305INQs0liMvlS7ZIITJhPKyg8sHaRkZLnxn4xfsqfsXfHDxHpvieL4i+C/DvijQGiax1vS/HkDXFn5LPLHtjuJpbclZH3gyRMCVAYMuVPU/Er42fErxV8Hda8N/DrwfN+0LoOsaRd2F/wCJLq/t9E/te5mSRGt1CJDFtWJoo/NiAUEMC29XwJStqPmXQ9u+BqfFnSvilcaf8StU8Aa3bDSmuNNvPDmnXWmyBzMiyxzQTzTggBY2WRZQSXcFBtVms33wm8ReGPE+r6pY+PNatf7eu5LhrVrGxmgtlDHYseYFcfKwB3u+cDGOc/FP/BKCbwj+w7deKI/Gnw31f9lnS9YRWtdM8YeL49SsdXmBXdPBdyQQkS7VCvD5j4WNGCJuLP0uma/8KfD3xg+IPiLT/j78OdJPjTWG1NrnQ9b03fcoS2yO5W6nuh5kWSA8SW6sH5jJXdRGIoyfU7mb/gnx4G8aXl18areHVPDPjDxU7apLc6bqJnwly3CFLiN4slGXcQgwwO3Arc8bfBrxj4/+FelfDfwp44j8P232Y6ve6rqOkxajd34F3KvkMi+TGi7jEwZAG/cgHO5ifO/j9+0PYyX+v+IdO+KnxW8L6XeXP+j6drPwwuZvBzxmQBZIdROmQOxlx56k6g6lnKAEbVVvwe/4KNfD+Twauj23xK+HOqfEjQN8EllqN2ujRarZNIJvMTz5kS3dTOBtaRy6wMQo8wFM/YpXcVqel/aleajCo7pW06aEfhP9lD4wfs3+NbPXtL8feHdYsNJuRfahBLYCz+3JnbcJt8uYqXiDAFZFwSMbcbj6t8RWk+H37Q+j2ljYp/Zv9u6bb72v/nQSGLJEZhOfnbp5g4yc/wANZfw+/wCCh+j+LLqTS/GEHgHQ7GZpbX7RpvxC03Wbq6i8siNoLO2Z55Glb5FjQO4LD72K53w9+2GNdbWvF3iDwX8WfC/iS+05zb6Q3w38Q3VvbXUTIbcG5WwCMH8lGOSAN5BIIrOVGTS5u50f2lTvpHdWdvzON/4KS/8ABSu4/ZG/aV/4Rez87S2utKt9RbUbPR01C8VnMiZQzXSQrlYghVoX4yQ24jb5r8Bf+C099e+LryNdb8YeLDJbPO9pruh6ZZ28Lb4wXje0ZZOPuqj7uGYliQtfWnwW/b8+G/ivw7DB4+8YaL4K8WebIl3YeIYpdCmYD5o5PLuxEVUxlQD0YqcEk4B8Zv2vf2Y/C1rDN4i+LngdEuJFZDY62l7IxIbB2QM7BcBvmIx0GeRmHRr891LTtY2o47ALDuE6V5d7nzH/AMFDP2r/AAV+z/8AHRvDerJ4wt7jy5b5G0i0tZ43R7iWMBjPIDuBhPQYwep7dh+05+2x4b+F3we+HfxM1Sw10W/xW0z+1orSygile0cR2xlVt8ijBe44wTwD06V1nws/4KR/s5eJNHvNW8RfFPwfaahrN2+oC1GoFjZJKquISyDDFGLDcQCcdBXrH7KHx88G/F7xP4o0/wAI61b674M0e4S50++hgmjjha7M80+6ZwFcNPvVemMY5qJ4abTXMbRzihBwmoarfz0ODu/E/wBt/Y58J+KvC9n52q/FJbe1tItRuPs0SRTbrthMyJLsLQ27IdisQz8HjdXE+Hfht8Yr9Gt9J0H4Z2SsxZjL4nvpOcDP/MP+lenX/wC1Z4e0D46+IrqWP4ma9Jpss9hZ6TpPw313ULJJoiLfzV1C1sZIpFZUck7yimQjOVFehfD/APae0jx1pt/qGuadqngbRdOTNzdeI7O60Zo/njVTsvYYW2M0qqHClS2VBJBAJYZtpdh4XiFUlN8msm9b7f8ADHGfFH4EeLPEOm+GvCuk+PZPCv8AaN9dS3d1a6TBeSSoFtiqr5wKoR5bjO1h+8zg7QK37jwDdS/sp+JvDeua5fa62m38Wnm+kihgmmWGS2AYrEioMspY4X+IjpjHG/FX9tHwzqmvXVz4T+O3wH0G6uNPitoLzWr221G3tJVeYs5gTUbaSQFZACPMA4BBGGBu/D/43eBfHvwm1DwXJ8fvhfrnjXxDdC7e+8O3NnAryqIpJvJtZLm5wp8qQhWkcqjYySu49iptHhSxUnrfzLfwr/Zt+G/7DfgO30jwH4bksdL1ieWeRJb64nYum0ZzJIxH3jwDjivnj4+fGHX/ANoH9ojxtofh/QTqj+G9ak8IRrqXiqLRbVJo1TagSPSbyVoW85XaVpQ+6SQBFVEzwn7S3wr+JnwC/aC1y18LfDjWPilJcWtnFe+MvFvjvRNGk1IojSJaw2scFnEFtxO2ZFVy5nALArivfLX4++Ev2g9GvNe0L9rXRPAui61v+0eFdOu/Du+0nZQLuA3F/BLK8hnMwEoVY9uzahALORio/CicTiqtd/vZN+p337I3wx+JXw88QyeBfij410XxdaXVhLqWl2mk6OLJNFaCZFlH2jduuBN9sRvmjTyzGQNwOT5b8Hf2Irr4SftweLvHHgbwb8P9B0nWPFsN34h8R3viHVtR8QavuuZAVjsdkdlbYeWeIEO/7t1c5dNrZf7HHgz4Ufsc2Gpa18CfCC+O/iL4iSO28Q2OmeLv7akis43kMc008Ae1TBMSqqJGzB2++Y3I9S1X9lG08SeIfDvxg+KPjDxFby+HNTTxRFoFybGx0jwnvuI5zHI6wC4kEQWIu8s+C8LNtRGMQvU542Z65+1J8HvHnxT/ALLPgnxXb+F7qzuYZRcTRRSrbFTJum8t4JPOwrjEW+IMQP3i4O7zS+/ZKvvjRqei+CfjV4gg+KV14Tu5fGGn6pFaf2B9lklgfT4ofJtmIkCxyXzFmYczRjB25Ff9oLxz+zX+014j0648UfFnwA0OirHc6dLB4rtbeWzvY2k8udcy7XKrK+EdHQ55Bxiu1/ZZ8WeA9O1H/hFvh346X4i2c8z6jf3MNzb3qaUBFs+ae2iWJS7CILG53kB2AIBKuzsHN2PVvDHw603wx4V03Q7G1EOn6TbRWsMJndgqRIET5jljhRjk855ya3NLcSR5Awowo98cH+VTR2EUM/mBTvwRnPXOCf5U6OHy/wCJm+tZ2Q1rrIkooooGFFFFABRRRQAUUUUAFFFFABX4k/E9sf8ABcGH/r+1z/0LVK/bav5sf2ydK+I3h/8Ab8+L2taRD4+juofHOunT7+D7bJJbwtfXChYJeTHEUYgJGQmGOBgnOOKlahL5fqfRcNSgsU+eXLp19UfrtFMRZt0/i/marNIzNX43D4vftABcf8JF8Ysen2zUv8arXnxt/aAs5Qv9ufGx8jOYjqso/NQRn2rxo1qkI39m/wCvkfpVXKcLUan9aj96/wDkj9mdzelOQsc1+L//AAvj9oD/AKDPxy/79ax/8TVjTvjb8fr+Rof7Z+OPmMPkLLq6KPqxAUfiaX16f8jM3lOFX/MRH71/mfs0ozUZcysVP3V4r8a7/wCIX7Rx2tH4g+La9jv1G9X9Gag/EP8AaIeFR/wkXxc345xqV+OfwaqjjJPeDMZ5dhI6/WI/ev8AM/ZQMIztXFTiRUXlgDjJya/ErxB8Rv2oNOtpJLPWvjFuVcqVur2TnP1Nc5b/ABF/az1aRWOr/GRjM2Dma7UnnHtiolip/wAjM/qeE/5/x+9f5n7rtKoG7cvPvVdrlpGxtXaT19a/Ee51P9rRV2pq/wAXfl7HVLnj83rPtPFP7aGlx3gk1L4qS27DbGrXLXBC84wCWI479aUcRVnootEvB4SS0xEfvX+Z+5UcKzHnP4U2MFmyYcfgf8a/Evwbqn7YniRo4Yo/i5fXDSOAsdrNIxAUHsp9Ca1b6x/bi0izh8vw78ZbpWfDAeHpb3jnt5T/AOeK2jKt2/M55xwVL4qqfo1/mftIqxyHB2j8aXzJR96Mr65U1+RPg7w5+19qtnu1D4d/GqRvLRsj4f3gyxHPK2tV7nw7+1omvxR3Hwr+Mklr5sSybvhddyKy/LnJ+xHNaRjXltp95z/X8Evhl+K/zP2BiMquD83/AHzUF3fssxVmVSOxr8uZ/hn8fNQlkhb4S/FZUkJ5/wCFZX0QGDn732MY6evtXN6P+z3+0Bqupagbj4O/FCaNJiIWk+HF3yNzdCbXJ6D1qvZYjv8AmZPPsDD4ot/d/mfUn/Bfp4v+HRfxa2yKzN/Y/AYf9Bmwr7Fe+tSm4Tw7s4/1gr8lvil+xL8VfiPpFlps3wS+JGpabLKv263bwJfeW4VHYbx9nGcSCM/UD0rnfiR/wTk+Omu2lt/ZPwn+LsBjc+Z5emajaZ49wuf1olQquKTff9DCnnmXOvKrKLs1FW06OTb3819x+wj67Yqhaa8tYz23Squf1rPXxzo6n59W0sDHe6Qf1r8ZYv8Agkp+05cabHLafDb4sxFiwcnUruEtjGMhph71Z0D/AII4ftZalO4s/APxKjkQAkt4naH9WugKx+q1f5kbS4gyr+V/+S/5n7Ev8UPDUMoEuvaDGuQMtfxj/wBmqEfGXwakzLJ4l8LovIJbVIh/7PX5Jf8ADnb9tqWaGLSfBfjBbrzBvMvjGyX5O/zSXmOuO+a7PRv+CUX/AAUDs4rFB4N1ZmVNrGXxPocmcRnqWujnkDk9a1jhatviQS4gy63u03+B+mFx8f8A4f6Nd7W8a+D7f7QQDv1m3GcemX96mu/2i/AejKv2P4geEfn+9/xObVv/AGavz78J/wDBL/8AbxjuLWPVPAcbwpKu7fqvh19ylvm3ETEtx659K98+G/8AwSU+L+tarcf8Jp8LdGmjSL/RwbnSdoOf+mUvXr1rWODqP7SOH+38CtVTf4HtuvftO+GYLhPs/jPwrdKyAlv7St2wckY+Vh6D868+8YftpRaG/wDoOpeEbzqebjf3x/DKO1R2v/BCbQddvriTWfgzo7S7hsxqMcY2hVxwk4HXNbXhv/g3C+Bl5cvLrPwaZXJ/5YeLNRjHfPEV6B1/zisZYKV/iOqnxNgltB/geZar/wAFEfEkFztt4PCMkfl7uElb5snv51cff/8ABUHxxZxySLpvg13jyVDW9xyfwnr6z8P/APBuH+ystluvvhFqUcizZyPGuvKQuB3W++telaV/wQN/ZP8AC99a32n/AA31ZZrdwyn/AITfxBMAP91r4g9uoNT9Sf8AMVU4woR+Ggn93+R+U/7Tv/BQDxJ8RfCOipJpvhJToOtQa5EtrHcHdLAku0vmdvkG85xjqOa8H1n9qHUvip+0F4R+IGrHQ9P1TwrdWbQG3DR20Yt7k3Cs4kdj95iT8wGAOnWv388A/wDBJ34C+Bri4eH4d2yNdKsZE2rX1yrjJ42vOw/Tmu0sf+Cd/wADbCzaEfCvwfNHISWFxpq3G/PBBL5JHseK+i4dxX9ntzXvHzuecRSzKHsXHltrv/Xc/H2f/gp5rk0u618beE9PQcCOBrVlA7/6wueSM9f04rzHxF+3/wDFLUJla2+KksUYJ+WHT9JZei92tmPb1r9wJ/8AgmF+zrcosMnwD+DdxDHyon8HadLg/wDAoiasWf8AwTL/AGcrUN/xj/8ABNGPXHgjTOf/ACDX2keOkpWlQX3/APAPk6OBVP3ubmP56fGn/BR/9oOzlkms/iBqV1HD8qt/YGlsrfMe62vvXIw/8FGv2gjdpFf6xcX1uuZHjn0C2RWGCCCY4VOOvQg89a/pY079gL4HaPHss/gv8KbWPJYLD4TsI1ye+BFXYaH8BPBnhm487TvB/hjT5MEF7bTIImIOM8qo9B+VZ1uNJT+Clb5/8A09ij+YXQP27/Fnje4ubPxZpPhlrFsqGnguLbsxPzLMvcL/AJNbl+ngv4mwpD9l0O0ks5BIstjqEzOoKsDkPM646Dp3r+oWCyjs4FiijWOOMBVRBtVQOgAHpTxFvfkZ7c14tfiLFzd1Jr5sPYo/lG8Y/s6zavBcSaHceJZJGGyCOyhin3qW6gGFiflOfoM1yml/sj/G0yTt4f8AC/xY1SzLACa38LfaFPA/iW0x1LD8K/ro8nK7dvy+lRyadHMfmhjb6qDUxz/GL/l5L72V7FH8r/wp/Z7/AGolsYI7z4B/FC4is3WVGm8C6qmdzF2yVjXjPpjAr6S8EfsB+OvjNocC+MPgH44t5Ci3Df8AEi1m2bzAoUDBb+6x49q/oU+zLgDYuF6e1BgXG3aPXFY1M8xcv+Xj+9i9mj8JfCn/AAbw+DfitNazax4T+K/hC5vGMk01kskTW5XOxQLqCVQMhD8wJJx64PtXw2/4NdfhDp06zN8RvjxYySQjzc3eijDY+6d2lnHOfev1wFuinIVQfanFPb86x/tTETVpTf3j9mfn78OP+CBnwv8ABFstrdeM/ixr1kx2Mmo3emovlquIxmCxiOM85zkkdSOK7e8/4Iafs66xYCHUvBmralDMUM0U2uXsYlOQckxyKRzz8pHT04r7KKKf4R+VJsVf4V/KvPqc8pc12Hsz4nX/AIN5P2P/ALR53/CqJPOVvMz/AMJTrPDden2v1rpvDX/BGz9nPwZHDHpvwzaGO1k3xf8AE+1V8EHIPNyc9BX1mNuf4eevHWl2gdAKPbVo6XZXszivh78F/DngBI49L0n7AkNstsg8+Z8Rjbhfnc9MDnrXW29rHawbEmZVXtkfX0qwqqeoHHA46U6JQo4GPpU7u7Hy2Kl1p1ve/M37yQKE4btnPamW8JDYMWMjpg9v/wBdaFGOaoZm29utpErrCEeYBn+91/P3qWa4kE2EkJ56AA49ulW/KXP3V/KndKAKa2aD70fHckmohbLGSI4crnAPzHP61oKip91Qv0FDIrdVB+ooAix5q7ZPlX8qfCoRdq/dHSn7RjpQBigDjfjR8CvC/wC0B4dtdH8Waa2qafaXaX0UQuZYNsyq6BsxspOFkYYJxz06VRsv2XvA+neD/EOgw6Oy6T4qs30/U4ftk5+0wOjxsu7fuXKyOMqQeeuQK784zSk4rjll2FlW+sSpx5+9lf7zRVqijyJu3Y8x+H37HPw6+FnwU1T4d6F4fay8H6xFcw3dib+5lMqXCFJh5jyGQblJHDDHbFRal+xZ8NdX+AS/DC48OtJ4IWKOAaf/AGhcghI5lmQeaJPN4kUHO7nGOnFep0V28zMzw34h/wDBN74N/FXQtO03XvCL31lpM1xcWsY1a9i8t51hWU5SUE7hBEMEkDbxjJz3Xws/Zw8G/BX4cN4S8N6S2neH3kWU2xu5pvmVY0B3yOz/AHYkHX+H3Oe4opczA8/+Df7L3gf4AeJfE+seE9FbS9Q8ZXX2zV5TeTz/AGqXfLJuxI7BPmmkOEAHzegGO9uIFu7eSKQbo5FKMM9QeDT6KAPKbX9iX4Z2X7QH/C0I/DrL44zn+0f7QuSP+Pb7L/qvM8r/AFPy/d9+vNekeJPDln4v8P3+lahD9osNTt5LW5i3lPMjdSrLlSCMqSMggirzdKau7NO7A+T9S/4Iv/s9Wdoy2fgi+ijfh4k1y/ZXBHOczFueBwRX0D8JfhL4d+CPgSz8O+GrX+w9JtGkeK0Fw82xndnY7pi7nLEnk49K7EqG6jODkUYxT5mKyR5H+1H+xr8Pf2x7HS9P+Ieiza9Z6HI1xZKl9PaeXI42ucwuhbhV4OcZ96+Sfjz/AMG+PwW8b65ZyeE9S+JHgCK3hKXNr4d1G2uo7lyciSQ6hbXbq3UAIyLj+HPNfogyK4wyqfqKPLXGNq4HTjpSTaHZH4cftDfti/tUeAri8+Cnib4D3Xjb4L+FZIrKy8TeIPButW02orCgaFpbyxltbZmD/IPLRAdoBBbJPU/si/AL9k34+aFcap8W7f4f/Bf4m3zyK/k+NLvS79YozGI9trqV7OmHiU8mI5Ckgggmv2bmt1lGGRWX0IrO1zw5Y65pr2V5Y2t5ZyEF4J4lkicg5GVIwcEA/hRdgfl3qn/BIr4QvqyeLvhv8dviJq15pMq3ekRaVqvh7UbdpUfzI0UDTnaQYK8biSuOTnJwfjl+3h+2x8I/Cd9/ZXwk8QfEL7PtRV1LwBqEgnDDcWP2EQHKn5RtwMdQTzX6G+MP2AvgZ8QtTku9e+C/wm1q8myHnv8Awlp9xM4LFjlniLH5ix+pJ6ms9v8Agmv8CbeyeDSPhvpPheRlKpN4ba40CeMHkhJrN4XQE8kKwBPJyaHJsNj8QviZ+0T+0R8fvE0niDx9+xnp/wDbNxGsMt23hTxjZlUThPlGohB6Z2859adpKweJtLhPi79mvwquoRDYYblfFFq8AHRNo1JTxk/eyfUmv2Z1b/gmV8O0Zha33xjt2wMJB8YfFsSg+yrqYA49BXJap/wTXtbe8k/szWvjtHb5+UJ8bPFijH46rT5nsB+Y3wZ+DPw98TpqK6l+zj4QsI7cxiArfeKI/NB3Z+/qhzjA6etfe/7XmseHf+Cdv7LGs6N+zVpehyeOdYS2X+w7e7uNdv3MN1CzBLZppJTtinuXPBIUFjwuR1Wtf8Eu7PxN5f8Aal58a9Q+z58r7R8Y/FEuzOM4zqZxnA+uBWp8K/8AgkD8Lfh5pi2+n2vxW0ONlAeKx+Lniq1Q43Y+WPUwONx/M+tJWA+DP2fP+Clf7dl948sPDrfs53/h/Q9QkdJ/EkHw7137RiVjI84eaV7YMzsW/wBVsGcBQMCvfvF3xG+LXxk0q+8C/E2PXdNs/FFukMuqXGipp99bxRSpdRrFuiEODJb4JeJyQzgEHaV+w9L/AOCb/wAH7W1SO+0XxV4kjMe2W28R+Mdc1+2uMjnzYry7mjk+rqaj1D/gmd+z3xMvwH+D00y/KJbrwfp0zqPQNJESB7D1PqafMHLofEOrf8E1/wBjP9nHwNq154g+MNp4+1oxNNptl4r8daZamZgNojRNPSzdwWIPBLZAAOOD8p+H/FerfDr9o60ufhb+zz4du/D9q9z9l8RafbeI9SjTKzIMSm/eBt8RTqpyJQRjKkfuv8NvgV4M+EPmL4U8H+GPC4nfzJRpOlQWXmNjGW8tVycEjJ7GuvSzjWTzBGok67sc/nRzMOVI+Jfhn8EvE3/BQGw1Dxt4z8beOvBv+mfZbHSNAsdMg05FSKJXmQ3llcXDM5UBszMgMY2qh3Z3vD3/AARD/Zy8NWkdvp/gS+s03mR2XXdQZpJGbLSnfMRuJOcDCjsoHFfXzWyOBujU46ZXpTwO3b0oA8V/Zh/Yu+Hf7J99qV54D8Lvot1q0KwXc7X13dGdFYsoxLIyjBPVQD616L8Qvh1o3xY8Iap4d16z/tDSPEVrJZ6jAJXiMkTLtZdyEMuQSMgg+9dMY1P8K/lTgMUrvcD5Xl/4Irfs1zFd/wAPJG2nI/4qDU//AJIr1X9m39i/4a/sirqi/D3w5/YC6zsN5nULq787Znb/AK6R9uMnpivU+tGMU+ZhZBQKKKkAooooAKKKKACiiigAooooAKKKKACiiigAooooAKKKKACiiigAooooAKKKKACiiigAooooAKKKKACiiigAooooAKKKKACiiigAooooAKKKKACiiigAooooAKKKKACiiigAooooAKKKKACiiigAooooAKKKKACiiigAooooAKKKKACiiigAooooAKKKKACiiigAooooAKKKKACiiigAooooAKKKKACiiigAooooAKKKKACiiigAooooAKKKKACiiigAooooAKKKKACiiigAooooAKKKKACiiigAooooAKKKKACiiigAooooAKKKKACiiigAooooAKKKKACiiigAooooAKKKKACiiigAooooAKKKKACiiigAooooAKKKKACiiigAooooAKKKKACiiigAooooAKKKKACiiigAooooAKKKKACiiigAooooAKKKKACiiigAooooAKKKKACiiigAooooAKKKKACiiigAooooAKKKKACiiigAooooAKKKKACiiigAooooAKKKKACiiigAooooAKKKKACiiigAooooAKKKKACiiigAooooAKKKKACiiigAooooAKKKKACiiigAooooAKKKKACiiigAooooAKKKKACiiigAooooAKKKKACiiigAooooAKKKKACiiigAooooAKKKKACiiigAooooAKKKKACiiigAooooAKKKKACiiigAooooAKKKKACiiigAooooAKKKKACiiigAooooAKKKKACiiigAooooAKKKKACiiigAooooAKKKKACiiigAooooAKKKKACiiigAooooAKKKKACiiigAooooAKKKKACiiigAooooA//Z;opacity=30;" vertex="1" parent="1">
          <mxGeometry x="260" y="1500" width="2436" height="1709.68" as="geometry" />
        </mxCell>
        <mxCell id="48ef80bc37b76060-301" value="" style="group;rotation=90;fillColor=none;" parent="1" vertex="1" connectable="0">
          <mxGeometry x="960" y="-299" width="1898" height="1908" as="geometry" />
        </mxCell>
        <mxCell id="48ef80bc37b76060-10" value="" style="verticalLabelPosition=bottom;html=1;verticalAlign=top;align=center;strokeWidth=1;shape=mxgraph.floorplan.office_chair;shadow=0;rounded=0;comic=0;fontFamily=Verdana;fontSize=12;" parent="48ef80bc37b76060-301" vertex="1">
          <mxGeometry x="406" y="836" width="40" height="43" as="geometry" />
        </mxCell>
        <mxCell id="48ef80bc37b76060-11" value="" style="verticalLabelPosition=bottom;html=1;verticalAlign=top;align=center;strokeWidth=1;shape=mxgraph.floorplan.office_chair;shadow=0;direction=west;rounded=0;comic=0;fontFamily=Verdana;fontSize=12;" parent="48ef80bc37b76060-301" vertex="1">
          <mxGeometry x="406" y="933" width="40" height="43" as="geometry" />
        </mxCell>
        <mxCell id="48ef80bc37b76060-12" value="" style="verticalLabelPosition=bottom;html=1;verticalAlign=top;align=center;strokeWidth=1;shape=mxgraph.floorplan.office_chair;shadow=0;direction=north;rounded=0;comic=0;fontFamily=Verdana;fontSize=12;" parent="48ef80bc37b76060-301" vertex="1">
          <mxGeometry x="356" y="886" width="43" height="40" as="geometry" />
        </mxCell>
        <mxCell id="48ef80bc37b76060-14" value="" style="verticalLabelPosition=bottom;html=1;verticalAlign=top;align=center;strokeWidth=1;shape=mxgraph.floorplan.office_chair;shadow=0;rounded=0;comic=0;fontFamily=Verdana;fontSize=12;" parent="48ef80bc37b76060-301" vertex="1">
          <mxGeometry x="466" y="836" width="40" height="43" as="geometry" />
        </mxCell>
        <mxCell id="48ef80bc37b76060-15" value="" style="verticalLabelPosition=bottom;html=1;verticalAlign=top;align=center;strokeWidth=1;shape=mxgraph.floorplan.office_chair;shadow=0;direction=west;rounded=0;comic=0;fontFamily=Verdana;fontSize=12;" parent="48ef80bc37b76060-301" vertex="1">
          <mxGeometry x="466" y="933" width="40" height="43" as="geometry" />
        </mxCell>
        <mxCell id="48ef80bc37b76060-16" value="" style="verticalLabelPosition=bottom;html=1;verticalAlign=top;align=center;strokeWidth=1;shape=mxgraph.floorplan.office_chair;shadow=0;rounded=0;comic=0;fontFamily=Verdana;fontSize=12;" parent="48ef80bc37b76060-301" vertex="1">
          <mxGeometry x="526" y="836" width="40" height="43" as="geometry" />
        </mxCell>
        <mxCell id="48ef80bc37b76060-17" value="" style="verticalLabelPosition=bottom;html=1;verticalAlign=top;align=center;strokeWidth=1;shape=mxgraph.floorplan.office_chair;shadow=0;direction=west;rounded=0;comic=0;fontFamily=Verdana;fontSize=12;" parent="48ef80bc37b76060-301" vertex="1">
          <mxGeometry x="526" y="933" width="40" height="43" as="geometry" />
        </mxCell>
        <mxCell id="48ef80bc37b76060-18" value="" style="verticalLabelPosition=bottom;html=1;verticalAlign=top;align=center;strokeWidth=1;shape=mxgraph.floorplan.office_chair;shadow=0;rounded=0;comic=0;fontFamily=Verdana;fontSize=12;" parent="48ef80bc37b76060-301" vertex="1">
          <mxGeometry x="584" y="836" width="42" height="43" as="geometry" />
        </mxCell>
        <mxCell id="48ef80bc37b76060-19" value="" style="verticalLabelPosition=bottom;html=1;verticalAlign=top;align=center;strokeWidth=1;shape=mxgraph.floorplan.office_chair;shadow=0;direction=west;rounded=0;comic=0;fontFamily=Verdana;fontSize=12;" parent="48ef80bc37b76060-301" vertex="1">
          <mxGeometry x="575" y="933" width="51" height="43" as="geometry" />
        </mxCell>
        <mxCell id="48ef80bc37b76060-20" value="" style="shape=ellipse;fillColor=#ffffff;strokeColor=#000000;shadow=0;rounded=0;comic=0;fontFamily=Verdana;fontSize=12;align=center;html=1;" parent="48ef80bc37b76060-301" vertex="1">
          <mxGeometry x="376" y="856" width="280" height="100" as="geometry" />
        </mxCell>
        <mxCell id="48ef80bc37b76060-344" value="" style="verticalLabelPosition=bottom;html=1;verticalAlign=top;align=center;strokeWidth=1;shape=mxgraph.floorplan.wall;fillColor=#000000;direction=south;rounded=0;shadow=0;comic=0;fontFamily=Verdana;fontSize=12;" parent="48ef80bc37b76060-301" vertex="1">
          <mxGeometry x="292" y="780" width="10" height="260" as="geometry" />
        </mxCell>
        <mxCell id="48ef80bc37b76060-379" value="" style="verticalLabelPosition=bottom;html=1;verticalAlign=top;align=center;strokeWidth=1;shape=mxgraph.floorplan.chair;shadow=0;rounded=0;comic=0;fontFamily=Verdana;fontSize=12;" parent="48ef80bc37b76060-301" vertex="1">
          <mxGeometry x="-90" y="1238" width="40" height="52" as="geometry" />
        </mxCell>
        <mxCell id="48ef80bc37b76060-380" value="" style="verticalLabelPosition=bottom;html=1;verticalAlign=top;align=center;strokeWidth=1;shape=mxgraph.floorplan.chair;shadow=0;direction=west;rounded=0;comic=0;fontFamily=Verdana;fontSize=12;" parent="48ef80bc37b76060-301" vertex="1">
          <mxGeometry x="-140" y="1338" width="40" height="52" as="geometry" />
        </mxCell>
        <mxCell id="48ef80bc37b76060-386" value="" style="verticalLabelPosition=bottom;html=1;verticalAlign=top;align=center;strokeWidth=1;shape=mxgraph.floorplan.refrigerator;rounded=0;shadow=0;comic=0;fontFamily=Verdana;fontSize=12;rotation=90;" parent="48ef80bc37b76060-301" vertex="1">
          <mxGeometry x="54" y="1228" width="60" height="62" as="geometry" />
        </mxCell>
        <mxCell id="48ef80bc37b76060-385" value="" style="verticalLabelPosition=bottom;html=1;verticalAlign=top;align=center;strokeWidth=1;shape=mxgraph.floorplan.refrigerator;rounded=0;shadow=0;comic=0;fontFamily=Verdana;fontSize=12;rotation=90;flipV=0;flipH=1;" parent="48ef80bc37b76060-301" vertex="1">
          <mxGeometry x="54" y="1287" width="60" height="62" as="geometry" />
        </mxCell>
        <mxCell id="48ef80bc37b76060-387" value="" style="verticalLabelPosition=bottom;html=1;verticalAlign=top;align=center;strokeWidth=1;shape=mxgraph.floorplan.range_2;rounded=0;shadow=0;comic=0;fontFamily=Verdana;fontSize=12;rotation=90;" parent="48ef80bc37b76060-301" vertex="1">
          <mxGeometry x="46.5" y="1438" width="75" height="62" as="geometry" />
        </mxCell>
        <mxCell id="48ef80bc37b76060-390" value="" style="verticalLabelPosition=bottom;html=1;verticalAlign=top;align=center;strokeWidth=1;shape=mxgraph.floorplan.dresser;rounded=0;shadow=0;comic=0;fontFamily=Verdana;fontSize=12;flipV=1;direction=south;" parent="48ef80bc37b76060-301" vertex="1">
          <mxGeometry x="49" y="1508" width="65" height="100" as="geometry" />
        </mxCell>
        <mxCell id="48ef80bc37b76060-388" value="" style="verticalLabelPosition=bottom;html=1;verticalAlign=top;align=center;strokeWidth=1;shape=mxgraph.floorplan.sink_double;rounded=0;shadow=0;comic=0;fontFamily=Verdana;fontSize=12;flipV=1;direction=south;" parent="48ef80bc37b76060-301" vertex="1">
          <mxGeometry x="66.5" y="1349" width="35" height="80" as="geometry" />
        </mxCell>
        <mxCell id="48ef80bc37b76060-393" value="" style="verticalLabelPosition=bottom;html=1;verticalAlign=top;align=center;strokeWidth=1;shape=mxgraph.floorplan.doorRight;rounded=0;shadow=0;comic=0;fontFamily=Verdana;fontSize=12;rotation=-90;direction=north;" parent="48ef80bc37b76060-301" vertex="1">
          <mxGeometry x="177" y="698" width="85" height="80" as="geometry" />
        </mxCell>
        <mxCell id="h5Ed9bphOVO61y2eIJjv-10" value="" style="verticalLabelPosition=bottom;html=1;verticalAlign=top;align=center;strokeWidth=1;shape=mxgraph.floorplan.wall;fillColor=#000000;rounded=0;shadow=0;comic=0;fontFamily=Verdana;fontSize=12;" vertex="1" parent="48ef80bc37b76060-301">
          <mxGeometry x="-593" y="1736" width="408" height="10" as="geometry" />
        </mxCell>
        <mxCell id="h5Ed9bphOVO61y2eIJjv-11" value="" style="verticalLabelPosition=bottom;html=1;verticalAlign=top;align=center;strokeWidth=1;shape=mxgraph.floorplan.wall;fillColor=#000000;rounded=0;shadow=0;comic=0;fontFamily=Verdana;fontSize=12;rotation=-4;direction=west;" vertex="1" parent="48ef80bc37b76060-301">
          <mxGeometry x="-186.13" y="1695.59" width="1147.5" height="10" as="geometry" />
        </mxCell>
        <mxCell id="48ef80bc37b76060-171" value="" style="verticalLabelPosition=bottom;html=1;verticalAlign=top;align=center;strokeWidth=1;shape=mxgraph.floorplan.wall;fillColor=#000000;rounded=0;shadow=0;comic=0;fontFamily=Verdana;fontSize=12;direction=south;" parent="48ef80bc37b76060-301" vertex="1">
          <mxGeometry x="681" y="780" width="10" height="260" as="geometry" />
        </mxCell>
        <mxCell id="48ef80bc37b76060-169" value="" style="verticalLabelPosition=bottom;html=1;verticalAlign=top;align=center;strokeWidth=1;shape=mxgraph.floorplan.wall;fillColor=#000000;direction=south;rounded=0;shadow=0;comic=0;fontFamily=Verdana;fontSize=12;" parent="48ef80bc37b76060-301" vertex="1">
          <mxGeometry x="125" y="1219" width="20" height="500" as="geometry" />
        </mxCell>
        <mxCell id="48ef80bc37b76060-228" value="" style="verticalLabelPosition=bottom;html=1;verticalAlign=top;align=center;strokeWidth=1;shape=mxgraph.floorplan.wall;fillColor=#000000;rounded=0;shadow=0;comic=0;fontFamily=Verdana;fontSize=12;direction=south;rotation=-75;" parent="48ef80bc37b76060-301" vertex="1">
          <mxGeometry x="1051" y="1585" width="10" height="204" as="geometry" />
        </mxCell>
        <mxCell id="h5Ed9bphOVO61y2eIJjv-12" value="" style="verticalLabelPosition=bottom;html=1;verticalAlign=top;align=center;strokeWidth=1;shape=mxgraph.floorplan.wall;fillColor=#000000;rounded=0;shadow=0;comic=0;fontFamily=Verdana;fontSize=12;direction=west;rotation=0;" vertex="1" parent="48ef80bc37b76060-301">
          <mxGeometry x="1151.02" y="1707" width="169" height="10" as="geometry" />
        </mxCell>
        <mxCell id="h5Ed9bphOVO61y2eIJjv-13" value="" style="verticalLabelPosition=bottom;html=1;verticalAlign=top;align=center;strokeWidth=1;shape=mxgraph.floorplan.wall;fillColor=#000000;rounded=0;shadow=0;comic=0;fontFamily=Verdana;fontSize=12;direction=west;rotation=-15;" vertex="1" parent="48ef80bc37b76060-301">
          <mxGeometry x="1311" y="1682" width="204" height="10" as="geometry" />
        </mxCell>
        <mxCell id="h5Ed9bphOVO61y2eIJjv-14" value="" style="shape=rect;shadow=0;rounded=0;comic=0;fontFamily=Verdana;fontSize=12;align=center;html=1;direction=north;rotation=0;" vertex="1" parent="48ef80bc37b76060-301">
          <mxGeometry x="142" y="1407.59" width="50" height="301" as="geometry" />
        </mxCell>
        <mxCell id="h5Ed9bphOVO61y2eIJjv-16" value="" style="verticalLabelPosition=bottom;html=1;verticalAlign=top;align=center;strokeWidth=1;shape=mxgraph.floorplan.wall;fillColor=#000000;rounded=0;shadow=0;comic=0;fontFamily=Verdana;fontSize=12;direction=west;rotation=-45;" vertex="1" parent="48ef80bc37b76060-301">
          <mxGeometry x="1470.75" y="1582.25" width="219" height="10" as="geometry" />
        </mxCell>
        <mxCell id="48ef80bc37b76060-309" value="" style="verticalLabelPosition=bottom;html=1;verticalAlign=top;align=center;strokeWidth=1;shape=mxgraph.floorplan.wall;fillColor=#000000;direction=south;rounded=0;shadow=0;comic=0;fontFamily=Verdana;fontSize=12;rotation=5;" parent="48ef80bc37b76060-301" vertex="1">
          <mxGeometry x="1683.01" y="499.09" width="10" height="530.97" as="geometry" />
        </mxCell>
        <mxCell id="h5Ed9bphOVO61y2eIJjv-17" value="" style="verticalLabelPosition=bottom;html=1;verticalAlign=top;align=center;strokeWidth=1;shape=mxgraph.floorplan.wall;fillColor=#000000;rounded=0;shadow=0;comic=0;fontFamily=Verdana;fontSize=12;direction=south;" vertex="1" parent="48ef80bc37b76060-301">
          <mxGeometry x="1471" y="510" width="10" height="277.25" as="geometry" />
        </mxCell>
        <mxCell id="h5Ed9bphOVO61y2eIJjv-18" value="" style="verticalLabelPosition=bottom;html=1;verticalAlign=top;align=center;strokeWidth=1;shape=mxgraph.floorplan.wall;fillColor=#000000;rounded=0;shadow=0;comic=0;fontFamily=Verdana;fontSize=12;direction=south;" vertex="1" parent="48ef80bc37b76060-301">
          <mxGeometry x="1091" y="510" width="10" height="277.25" as="geometry" />
        </mxCell>
        <mxCell id="48ef80bc37b76060-326" value="" style="verticalLabelPosition=bottom;html=1;verticalAlign=top;align=center;strokeWidth=1;shape=mxgraph.floorplan.wall;fillColor=#000000;rounded=0;shadow=0;comic=0;fontFamily=Verdana;fontSize=12;" parent="48ef80bc37b76060-301" vertex="1">
          <mxGeometry x="970" y="500" width="746" height="10" as="geometry" />
        </mxCell>
        <mxCell id="h5Ed9bphOVO61y2eIJjv-19" value="" style="verticalLabelPosition=bottom;html=1;verticalAlign=top;align=center;strokeWidth=1;shape=mxgraph.floorplan.wall;fillColor=#000000;rounded=0;shadow=0;comic=0;fontFamily=Verdana;fontSize=12;" vertex="1" parent="48ef80bc37b76060-301">
          <mxGeometry x="690" y="779.25" width="790" height="10" as="geometry" />
        </mxCell>
        <mxCell id="48ef80bc37b76060-307" value="" style="verticalLabelPosition=bottom;html=1;verticalAlign=top;align=center;strokeWidth=1;shape=mxgraph.floorplan.doorRight;rounded=0;shadow=0;comic=0;fillColor=#FFFFFF;fontFamily=Verdana;fontSize=12;flipV=1;" parent="48ef80bc37b76060-301" vertex="1">
          <mxGeometry x="801" y="955" width="80" height="85" as="geometry" />
        </mxCell>
        <mxCell id="h5Ed9bphOVO61y2eIJjv-20" value="" style="verticalLabelPosition=bottom;html=1;verticalAlign=top;align=center;strokeWidth=1;shape=mxgraph.floorplan.wall;fillColor=#000000;rounded=0;shadow=0;comic=0;fontFamily=Verdana;fontSize=12;direction=south;" vertex="1" parent="48ef80bc37b76060-301">
          <mxGeometry x="970" y="500" width="10" height="140" as="geometry" />
        </mxCell>
        <mxCell id="h5Ed9bphOVO61y2eIJjv-21" value="" style="verticalLabelPosition=bottom;html=1;verticalAlign=top;align=center;strokeWidth=1;shape=mxgraph.floorplan.wall;fillColor=#000000;rounded=0;shadow=0;comic=0;fontFamily=Verdana;fontSize=12;direction=south;" vertex="1" parent="48ef80bc37b76060-301">
          <mxGeometry x="831" y="638.25" width="10" height="140" as="geometry" />
        </mxCell>
        <mxCell id="h5Ed9bphOVO61y2eIJjv-22" value="" style="verticalLabelPosition=bottom;html=1;verticalAlign=top;align=center;strokeWidth=1;shape=mxgraph.floorplan.wall;fillColor=#000000;rounded=0;shadow=0;comic=0;fontFamily=Verdana;fontSize=12;direction=west;" vertex="1" parent="48ef80bc37b76060-301">
          <mxGeometry x="832" y="637.25" width="148" height="10" as="geometry" />
        </mxCell>
        <mxCell id="h5Ed9bphOVO61y2eIJjv-23" value="" style="verticalLabelPosition=bottom;html=1;verticalAlign=top;align=center;strokeWidth=1;shape=mxgraph.floorplan.wall;fillColor=#000000;rounded=0;shadow=0;comic=0;fontFamily=Verdana;fontSize=12;direction=west;rotation=30;" vertex="1" parent="48ef80bc37b76060-301">
          <mxGeometry x="1462.74" y="836" width="229" height="10" as="geometry" />
        </mxCell>
        <mxCell id="48ef80bc37b76060-308" value="" style="verticalLabelPosition=bottom;html=1;verticalAlign=top;align=center;strokeWidth=1;shape=mxgraph.floorplan.wall;fillColor=#000000;rounded=0;shadow=0;comic=0;fontFamily=Verdana;fontSize=12;" parent="48ef80bc37b76060-301" vertex="1">
          <mxGeometry x="692" y="901" width="268" height="10" as="geometry" />
        </mxCell>
        <mxCell id="h5Ed9bphOVO61y2eIJjv-24" value="" style="verticalLabelPosition=bottom;html=1;verticalAlign=top;align=center;strokeWidth=1;shape=mxgraph.floorplan.wall;fillColor=#000000;rounded=0;shadow=0;comic=0;fontFamily=Verdana;fontSize=12;direction=south;" vertex="1" parent="48ef80bc37b76060-301">
          <mxGeometry x="960" y="786" width="10" height="250" as="geometry" />
        </mxCell>
        <mxCell id="h5Ed9bphOVO61y2eIJjv-25" value="" style="verticalLabelPosition=bottom;html=1;verticalAlign=top;align=center;strokeWidth=1;shape=mxgraph.floorplan.wall;fillColor=#000000;rounded=0;shadow=0;comic=0;fontFamily=Verdana;fontSize=12;direction=west;rotation=-60;" vertex="1" parent="48ef80bc37b76060-301">
          <mxGeometry x="1625" y="1457.3" width="119" height="10" as="geometry" />
        </mxCell>
        <mxCell id="h5Ed9bphOVO61y2eIJjv-26" value="" style="verticalLabelPosition=bottom;html=1;verticalAlign=top;align=center;strokeWidth=1;shape=mxgraph.floorplan.wall;fillColor=#000000;rounded=0;shadow=0;comic=0;fontFamily=Verdana;fontSize=12;direction=west;rotation=-75;" vertex="1" parent="48ef80bc37b76060-301">
          <mxGeometry x="1693.24" y="1377.98" width="59" height="10" as="geometry" />
        </mxCell>
        <mxCell id="h5Ed9bphOVO61y2eIJjv-27" value="" style="verticalLabelPosition=bottom;html=1;verticalAlign=top;align=center;strokeWidth=1;shape=mxgraph.floorplan.wall;fillColor=#000000;rounded=0;shadow=0;comic=0;fontFamily=Verdana;fontSize=12;direction=west;rotation=-90;" vertex="1" parent="48ef80bc37b76060-301">
          <mxGeometry x="1671" y="1290" width="119" height="10" as="geometry" />
        </mxCell>
        <mxCell id="h5Ed9bphOVO61y2eIJjv-28" value="" style="verticalLabelPosition=bottom;html=1;verticalAlign=top;align=center;strokeWidth=1;shape=mxgraph.floorplan.wall;fillColor=#000000;rounded=0;shadow=0;comic=0;fontFamily=Verdana;fontSize=12;direction=west;rotation=-105;" vertex="1" parent="48ef80bc37b76060-301">
          <mxGeometry x="1665.83" y="1184.36" width="103.76" height="10" as="geometry" />
        </mxCell>
        <mxCell id="h5Ed9bphOVO61y2eIJjv-29" value="" style="verticalLabelPosition=bottom;html=1;verticalAlign=top;align=center;strokeWidth=1;shape=mxgraph.floorplan.wall;fillColor=#000000;rounded=0;shadow=0;comic=0;fontFamily=Verdana;fontSize=12;direction=west;rotation=-110;" vertex="1" parent="48ef80bc37b76060-301">
          <mxGeometry x="1620.4" y="1081.77" width="129.78" height="10" as="geometry" />
        </mxCell>
        <mxCell id="48ef80bc37b76060-317" value="" style="verticalLabelPosition=bottom;html=1;verticalAlign=top;align=center;strokeWidth=1;shape=mxgraph.floorplan.wall;fillColor=#000000;rounded=0;shadow=0;comic=0;fontFamily=Verdana;fontSize=12;" parent="48ef80bc37b76060-301" vertex="1">
          <mxGeometry x="-140" y="1030" width="280" height="10" as="geometry" />
        </mxCell>
        <mxCell id="48ef80bc37b76060-318" value="" style="verticalLabelPosition=bottom;html=1;verticalAlign=top;align=center;strokeWidth=1;shape=mxgraph.floorplan.wall;fillColor=#000000;direction=west;rounded=0;shadow=0;comic=0;fontFamily=Verdana;fontSize=12;" parent="48ef80bc37b76060-301" vertex="1">
          <mxGeometry x="-148" y="908" width="280" height="10" as="geometry" />
        </mxCell>
        <mxCell id="h5Ed9bphOVO61y2eIJjv-30" value="" style="verticalLabelPosition=bottom;html=1;verticalAlign=top;align=center;strokeWidth=1;shape=mxgraph.floorplan.wall;fillColor=#000000;direction=north;rounded=0;shadow=0;comic=0;fontFamily=Verdana;fontSize=12;" vertex="1" parent="48ef80bc37b76060-301">
          <mxGeometry x="-12.5" y="780.5" width="10" height="259.5" as="geometry" />
        </mxCell>
        <mxCell id="h5Ed9bphOVO61y2eIJjv-31" value="" style="verticalLabelPosition=bottom;html=1;verticalAlign=top;align=center;strokeWidth=1;shape=mxgraph.floorplan.wall;fillColor=#000000;direction=north;rounded=0;shadow=0;comic=0;fontFamily=Verdana;fontSize=12;" vertex="1" parent="48ef80bc37b76060-301">
          <mxGeometry x="130" y="780.5" width="10" height="254.5" as="geometry" />
        </mxCell>
        <mxCell id="48ef80bc37b76060-355" value="" style="verticalLabelPosition=bottom;html=1;verticalAlign=top;align=center;strokeWidth=1;shape=mxgraph.floorplan.sink_2;rounded=0;shadow=0;comic=0;fontFamily=Verdana;fontSize=12;rotation=90;direction=west;" parent="48ef80bc37b76060-301" vertex="1">
          <mxGeometry y="823.5" width="40" height="35" as="geometry" />
        </mxCell>
        <mxCell id="48ef80bc37b76060-343" value="" style="verticalLabelPosition=bottom;html=1;verticalAlign=top;align=center;strokeWidth=1;shape=mxgraph.floorplan.toilet;rounded=0;shadow=0;comic=0;fontFamily=Verdana;fontSize=12;rotation=-90;" parent="48ef80bc37b76060-301" vertex="1">
          <mxGeometry x="4" y="940" width="50" height="67" as="geometry" />
        </mxCell>
        <mxCell id="h5Ed9bphOVO61y2eIJjv-35" value="" style="verticalLabelPosition=bottom;html=1;verticalAlign=top;align=center;strokeWidth=1;shape=mxgraph.floorplan.office_chair;shadow=0;rounded=0;comic=0;fontFamily=Verdana;fontSize=12;rotation=90;direction=west;" vertex="1" parent="48ef80bc37b76060-301">
          <mxGeometry x="880" y="1219.5" width="40" height="43" as="geometry" />
        </mxCell>
        <mxCell id="h5Ed9bphOVO61y2eIJjv-34" value="" style="group;rotation=90;" vertex="1" connectable="0" parent="48ef80bc37b76060-301">
          <mxGeometry x="900" y="1158" width="100" height="505" as="geometry" />
        </mxCell>
        <mxCell id="h5Ed9bphOVO61y2eIJjv-38" value="" style="verticalLabelPosition=bottom;html=1;verticalAlign=top;align=center;strokeWidth=1;shape=mxgraph.floorplan.office_chair;shadow=0;rounded=0;comic=0;fontFamily=Verdana;fontSize=12;rotation=90;direction=west;" vertex="1" parent="h5Ed9bphOVO61y2eIJjv-34">
          <mxGeometry x="-20" y="208.09" width="40" height="43" as="geometry" />
        </mxCell>
        <mxCell id="h5Ed9bphOVO61y2eIJjv-36" value="" style="shape=rect;shadow=0;rounded=0;comic=0;fontFamily=Verdana;fontSize=12;align=center;html=1;rotation=90;" vertex="1" parent="h5Ed9bphOVO61y2eIJjv-34">
          <mxGeometry x="-40" y="45" width="140" height="50" as="geometry" />
        </mxCell>
        <mxCell id="h5Ed9bphOVO61y2eIJjv-37" value="" style="verticalLabelPosition=bottom;html=1;verticalAlign=top;align=center;strokeWidth=1;shape=mxgraph.floorplan.workstation;shadow=0;flipV=1;rounded=0;comic=0;fontFamily=Verdana;fontSize=12;rotation=90;direction=west;" vertex="1" parent="h5Ed9bphOVO61y2eIJjv-34">
          <mxGeometry x="7" y="61" width="50" height="40" as="geometry" />
        </mxCell>
        <mxCell id="h5Ed9bphOVO61y2eIJjv-2" value="" style="verticalLabelPosition=bottom;html=1;verticalAlign=top;align=center;strokeWidth=1;shape=mxgraph.floorplan.wall;fillColor=#000000;direction=south;rounded=0;shadow=0;comic=0;fontFamily=Verdana;fontSize=12;" vertex="1" parent="h5Ed9bphOVO61y2eIJjv-34">
          <mxGeometry x="55" y="-8" width="20" height="508" as="geometry" />
        </mxCell>
        <mxCell id="h5Ed9bphOVO61y2eIJjv-40" value="" style="shape=rect;shadow=0;rounded=0;comic=0;fontFamily=Verdana;fontSize=12;align=center;html=1;rotation=90;" vertex="1" parent="h5Ed9bphOVO61y2eIJjv-34">
          <mxGeometry x="-40" y="191" width="140" height="50" as="geometry" />
        </mxCell>
        <mxCell id="h5Ed9bphOVO61y2eIJjv-41" value="" style="verticalLabelPosition=bottom;html=1;verticalAlign=top;align=center;strokeWidth=1;shape=mxgraph.floorplan.workstation;shadow=0;flipV=1;rounded=0;comic=0;fontFamily=Verdana;fontSize=12;rotation=90;direction=west;" vertex="1" parent="h5Ed9bphOVO61y2eIJjv-34">
          <mxGeometry x="10" y="209.59" width="50" height="40" as="geometry" />
        </mxCell>
        <mxCell id="h5Ed9bphOVO61y2eIJjv-42" value="" style="verticalLabelPosition=bottom;html=1;verticalAlign=top;align=center;strokeWidth=1;shape=mxgraph.floorplan.office_chair;shadow=0;rounded=0;comic=0;fontFamily=Verdana;fontSize=12;rotation=90;direction=south;" vertex="1" parent="48ef80bc37b76060-301">
          <mxGeometry x="888" y="1493" width="43" height="40" as="geometry" />
        </mxCell>
        <mxCell id="h5Ed9bphOVO61y2eIJjv-44" value="" style="shape=rect;shadow=0;rounded=0;comic=0;fontFamily=Verdana;fontSize=12;align=center;html=1;rotation=90;direction=south;" vertex="1" parent="48ef80bc37b76060-301">
          <mxGeometry x="860" y="1413" width="50" height="140" as="geometry" />
        </mxCell>
        <mxCell id="48ef80bc37b76060-148" value="" style="verticalLabelPosition=bottom;html=1;verticalAlign=top;align=center;strokeWidth=1;shape=mxgraph.floorplan.workstation;shadow=0;flipV=1;rounded=0;comic=0;fontFamily=Verdana;fontSize=12;rotation=90;direction=north;" parent="48ef80bc37b76060-301" vertex="1">
          <mxGeometry x="891" y="1458" width="40" height="50" as="geometry" />
        </mxCell>
        <mxCell id="48ef80bc37b76060-314" value="" style="verticalLabelPosition=bottom;html=1;verticalAlign=top;align=center;strokeWidth=1;shape=mxgraph.floorplan.dresser;rounded=0;shadow=0;comic=0;fillColor=#FFFFFF;fontFamily=Verdana;fontSize=12;rotation=-90;" parent="48ef80bc37b76060-301" vertex="1">
          <mxGeometry x="692" y="933" width="100" height="65" as="geometry" />
        </mxCell>
        <mxCell id="h5Ed9bphOVO61y2eIJjv-50" value="" style="verticalLabelPosition=bottom;html=1;verticalAlign=top;align=center;shape=mxgraph.floorplan.doorLeft;aspect=fixed;opacity=30;direction=west;gradientColor=none;fillColor=#FFFFFF;fontFamily=Verdana;strokeWidth=1;rounded=0;shadow=0;comic=0;" vertex="1" parent="48ef80bc37b76060-301">
          <mxGeometry x="1011" y="701" width="80" height="85" as="geometry" />
        </mxCell>
        <mxCell id="48ef80bc37b76060-371" value="" style="verticalLabelPosition=bottom;html=1;verticalAlign=top;align=center;strokeWidth=1;shape=mxgraph.floorplan.doorRight;rounded=0;shadow=0;comic=0;fontFamily=Verdana;fontSize=12;rotation=90;flipV=0;flipH=1;" parent="48ef80bc37b76060-301" vertex="1">
          <mxGeometry x="81" y="802" width="59" height="39" as="geometry" />
        </mxCell>
        <mxCell id="h5Ed9bphOVO61y2eIJjv-53" value="" style="verticalLabelPosition=bottom;html=1;verticalAlign=top;align=center;strokeWidth=1;shape=mxgraph.floorplan.doorRight;rounded=0;shadow=0;comic=0;fillColor=#FFFFFF;fontFamily=Verdana;fontSize=12;flipV=1;direction=north;" vertex="1" parent="48ef80bc37b76060-301">
          <mxGeometry x="292" y="873" width="85" height="80" as="geometry" />
        </mxCell>
        <mxCell id="48ef80bc37b76060-358" value="" style="verticalLabelPosition=bottom;html=1;verticalAlign=top;align=center;strokeWidth=1;shape=mxgraph.floorplan.doorRight;rounded=0;shadow=0;comic=0;fontFamily=Verdana;fontSize=12;rotation=90;direction=north;" parent="48ef80bc37b76060-301" vertex="1">
          <mxGeometry x="69.5" y="908" width="52" height="60" as="geometry" />
        </mxCell>
        <mxCell id="h5Ed9bphOVO61y2eIJjv-55" value="" style="verticalLabelPosition=bottom;html=1;verticalAlign=top;align=center;strokeWidth=1;shape=mxgraph.floorplan.wall;fillColor=#000000;rounded=0;shadow=0;comic=0;fontFamily=Verdana;fontSize=12;" vertex="1" parent="48ef80bc37b76060-301">
          <mxGeometry x="-158.5" y="1214.5" width="298.5" height="10" as="geometry" />
        </mxCell>
        <mxCell id="h5Ed9bphOVO61y2eIJjv-33" value="" style="verticalLabelPosition=bottom;html=1;verticalAlign=top;align=center;strokeWidth=1;shape=mxgraph.floorplan.doorRight;rounded=0;shadow=0;comic=0;fontFamily=Verdana;fontSize=12;rotation=90;flipV=0;flipH=1;" vertex="1" parent="1">
          <mxGeometry x="763" y="502" width="59" height="39" as="geometry" />
        </mxCell>
        <mxCell id="h5Ed9bphOVO61y2eIJjv-51" value="" style="verticalLabelPosition=bottom;html=1;verticalAlign=top;align=center;strokeWidth=1;shape=mxgraph.floorplan.toilet;rounded=0;shadow=0;comic=0;fontFamily=Verdana;fontSize=12;rotation=90;" vertex="1" parent="1">
          <mxGeometry x="890" y="640" width="50" height="67" as="geometry" />
        </mxCell>
        <mxCell id="h5Ed9bphOVO61y2eIJjv-52" value="" style="verticalLabelPosition=bottom;html=1;verticalAlign=top;align=center;strokeWidth=1;shape=mxgraph.floorplan.sink_2;rounded=0;shadow=0;comic=0;fontFamily=Verdana;fontSize=12;rotation=90;direction=east;" vertex="1" parent="1">
          <mxGeometry x="907.5" y="523.5" width="40" height="35" as="geometry" />
        </mxCell>
        <mxCell id="h5Ed9bphOVO61y2eIJjv-54" value="" style="verticalLabelPosition=bottom;html=1;verticalAlign=top;align=center;strokeWidth=1;shape=mxgraph.floorplan.doorRight;rounded=0;shadow=0;comic=0;fillColor=#FFFFFF;fontFamily=Verdana;fontSize=12;flipV=1;direction=west;" vertex="1" parent="1">
          <mxGeometry x="822" y="610" width="56.94" height="60.5" as="geometry" />
        </mxCell>
        <mxCell id="48ef80bc37b76060-374" value="" style="verticalLabelPosition=bottom;html=1;verticalAlign=top;align=center;strokeWidth=1;shape=mxgraph.floorplan.chair;shadow=0;rounded=0;comic=0;fontFamily=Verdana;fontSize=12;" parent="1" vertex="1">
          <mxGeometry x="878.94" y="1130" width="40" height="52" as="geometry" />
        </mxCell>
        <mxCell id="48ef80bc37b76060-376" value="" style="verticalLabelPosition=bottom;html=1;verticalAlign=top;align=center;strokeWidth=1;shape=mxgraph.floorplan.chair;shadow=0;direction=east;rounded=0;comic=0;fontFamily=Verdana;fontSize=12;" parent="1" vertex="1">
          <mxGeometry x="820" y="1130" width="40" height="52" as="geometry" />
        </mxCell>
        <mxCell id="48ef80bc37b76060-377" value="" style="verticalLabelPosition=bottom;html=1;verticalAlign=top;align=center;strokeWidth=1;shape=mxgraph.floorplan.chair;shadow=0;direction=west;rounded=0;comic=0;fontFamily=Verdana;fontSize=12;" parent="1" vertex="1">
          <mxGeometry x="878.94" y="1218" width="40" height="52" as="geometry" />
        </mxCell>
        <mxCell id="48ef80bc37b76060-375" value="" style="verticalLabelPosition=bottom;html=1;verticalAlign=top;align=center;strokeWidth=1;shape=mxgraph.floorplan.chair;shadow=0;direction=west;rounded=0;comic=0;fontFamily=Verdana;fontSize=12;" parent="1" vertex="1">
          <mxGeometry x="820" y="1218" width="40" height="52" as="geometry" />
        </mxCell>
        <mxCell id="48ef80bc37b76060-284" value="" style="shape=rect;shadow=0;rounded=0;comic=0;fontFamily=Verdana;fontSize=12;align=center;html=1;" parent="1" vertex="1">
          <mxGeometry x="820" y="1150" width="100" height="100" as="geometry" />
        </mxCell>
        <mxCell id="48ef80bc37b76060-381" value="" style="verticalLabelPosition=bottom;html=1;verticalAlign=top;align=center;strokeWidth=1;shape=mxgraph.floorplan.chair;shadow=0;direction=east;rounded=0;comic=0;fontFamily=Verdana;fontSize=12;" parent="1" vertex="1">
          <mxGeometry x="820" y="939" width="40" height="52" as="geometry" />
        </mxCell>
        <mxCell id="48ef80bc37b76060-382" value="" style="verticalLabelPosition=bottom;html=1;verticalAlign=top;align=center;strokeWidth=1;shape=mxgraph.floorplan.chair;shadow=0;direction=west;rounded=0;comic=0;fontFamily=Verdana;fontSize=12;" parent="1" vertex="1">
          <mxGeometry x="870" y="1039" width="40" height="52" as="geometry" />
        </mxCell>
        <mxCell id="h5Ed9bphOVO61y2eIJjv-4" value="" style="shape=rect;shadow=0;rounded=0;comic=0;fontFamily=Verdana;fontSize=12;align=center;html=1;" vertex="1" parent="1">
          <mxGeometry x="817.94" y="961" width="100" height="100" as="geometry" />
        </mxCell>
      </root>
    </mxGraphModel>
  </diagram>
</mxfile>
